<svg xmlns="http://www.w3.org/2000/svg" viewBox="0 0 1299.33 2381.33"><defs><style>.cls-1{fill:#473018;}</style></defs><g id="Camada_2" data-name="Camada 2"><g id="Camada_1-2" data-name="Camada 1"><path class="cls-1" d="M492,2304.43c-32.95,20.7-66.52,11.84-99.44.86-34.65-11.55-58.79-38.22-84-62.87-10.29-10.09-14.19-24.27-19.39-37.17-3.34-8.27-7.53-9.26-15.16-9-44.62,1.74-82.8-14.65-114.3-45.08-21.6-20.86-24.3-50-27.47-78.24-2.13-18.92-3.92-37.88-6.38-56.75-.55-4.18-2.25-9.23-5.2-11.91-28.61-26-44-62.27-70.32-90.32-16.06-17.11-18.48-41.45-19-64.53-.65-29.14-.31-58.37,6.38-87,4.52-19.33,3.47-38.76,1.37-58-4.47-40.84,8.31-75.6,29.85-110.16,32.62-52.33,82.71-86.77,125.47-128.39,23-22.34,53.83-38.26,88.32-41.27,2.8-.24,5.47-2,8.19-3,1.69.67,2.66,0,3.09-1.67l-.23.18c8.94-1.12,16.67-2.8,24.07-10.1,11.87-11.69,27.62-17.86,44.69-18.6,9.72-.43,19.55.93,29.2,0,10.38-1,22.69-.72,26.86-13.28,3.65-11,7.38-22.5,4-36.09-26.55,11.14-54.06,11.19-81.75,9.4-40.16-3.42-76-20-111.35-37.44-41.09-20.22-71-53.09-99.3-88.19-20-24.82-35.8-51.08-43.67-82.19-2.65-10.48-3.82-21-5.64-31.54,1.47-20.54,8.12-39.77,15-58.93,2.85-7.94,8.55-15.23,3.65-24.52-8.75-16.62-17.43-33.29-25.6-50.21-16.54-34.25-25.24-68.27-.7-103.42C82,862.58,83,846.75,82.24,831.3c-.33-6.55-1.22-11.26-7-16.21-14.93-12.78-28.16-28.57-31.45-47.92C40.42,747.53,30.45,736,13.87,728c-12-18.24-16.37-37.86-12.5-59.66C7.57,633.37,9,595.52,28,566.08c20.84-32.41,10.5-57-5.61-83.25-19-30.87-18.69-61-2.77-92.88,11.26-22.54,26.52-39.66,48.64-52.31,23.18-13.26,39-33.26,41.52-61.43,1.1-12,4-24,3.87-35.94-.23-35.1,18.37-62.46,36.48-89.65,10-15,21-29.32,29-45.59A61.29,61.29,0,0,1,202.26,79.4c22.22-13.43,34.09-10.55,60.88,14C268,75.1,277.5,59.79,285.68,43.79c4.7-9.2,11.26-15.66,21.69-17.93,7.37-1.61,12.91-6.82,18.48-11.37,20.87-17,36.64-19.1,60.13-6C397.71,15,407.93,21,422.21,12.69A25.29,25.29,0,0,1,450.05,15c7.75,5.88,16.64,5.72,25.21,2.7,31.69-11.16,62.24-2,92.92,4.74,22,4.84,43.2,11.69,60.91,26.68,10.56,8.93,19.4,18.48,24.24,32.11,4.09,11.5,16.1,15.21,26.75,18.06,13.88,3.72,28.56,4.55,42.35,8.5,27.41,7.86,51.26,21,62.43,49.64,1.92,19.74,9.88,36.84,28.68,44.28,16.28,6.44,33,11.73,48.77,19.58,24.16,21.43,44.25,45.86,56.71,76,10.11,24.47,18.09,49.42,20.84,76,2.31,22.21,9,42.21,26.34,58.45,16.88,15.77,24.19,36.08,24.07,60.14-.14,30.11-5.31,60.28-.15,90.36,2.15,12.5,5.32,24.82,7.4,37.33,1.5,9,9.9,11,15.27,15.59,30.07,25.64,48.82,56.82,52.07,96.87,1,12.36-2.22,24-3.57,35.9-3,26.12-.29,50.43,12.38,74.9,18.67,36.06,9.45,74.08-.59,110.9-5.65,20.75-13.52,41-25.56,58.95-11.54,17.17-23.41,34.26-39.06,49.15,47.62,19.8,71.22,57.26,83.39,103.34,6.54,24.77,14.81,47.08,38,62.46,13.86,9.19,18.71,26.7,23.34,42.67,11.49,39.67,15.72,80.46,14.3,121.44-1.16,33.48,11.77,61.49,27.65,89,5.32,9.23,15.65,12.85,24,18.66,25.82,17.87,28.19,44.86,26.93,72.87-.44,9.61-1.51,19.23-2.85,28.77-3.33,23.75,2.17,45.44,16.15,64.52,11.93,16.3,17,34.68,18.46,54.07,1.58,21.52,7.61,41.51,13.74,62.11,11.42,38.31,9.43,77.35-1.22,116.58-8.42,31-26,56.47-41.86,83.23-4.4,7.43-6.43,14.93-5.61,23.51,4,41.33-5.11,79.83-27.92,114.33-24.16,36.56-55.53,62.71-102.59,61.37-8.46-.25-11,2.75-11.18,10.65-1.18,41.76-21.25,76.23-43,110-7.65,11.88-17.45,22-26.35,32.81-10.06,12.23-22.36,15.1-36.11,15.28-17.48.22-35.06,0-52.32-3.61-24-5-42.51,8.84-62.32,18.18-24.53,11.56-49.48,19.81-77.46,16.58-22-2.54-40.93-11.77-59.32-23-9.42-8.47-20.53-19.25-32.3-16.72-21.18,4.55-42.12,10.15-63.72,12.71-27.29,2.9-52.3-4.45-76.19-16.89-11.6-8.49-23.93-16.16-34.62-25.67C523.35,2298.45,509.15,2293.07,492,2304.43ZM237.39,1456.64l3.49-.67-1.55-1.84-1.75,2.91c-1.69-2.63-2.84.12-4.24.41-5,1-8.6,3.58-10.51,8.36-2.43,1-5.71-1.88-7.51,1.69-.16.32.07,1.23.32,1.32,3.4,1.25,4.26-3.17,7.11-3.24,4.34-1.79,9.13-3,10.48-8.46C234.82,1458.73,236.18,1458.34,237.39,1456.64Zm51.86-16.93,5.57-2.15c13,1.15,26.21-1.21,39.15,2.87,26.88,8.48,49.82,24.8,74.8,37,13.66,6.69,27.87,10.76,44.42,13.35-8.9-20-23-34.24-36.8-48.21-15.1-15.31-33.92-23.25-56.22-23.75-23.63-.53-43.52,12-65.69,16.18a6,6,0,0,0-6.75.58l-7,2.42c-10.49,2.36-21.09,4.4-30.37,10.32a8,8,0,0,0-7.43,3.19c-.24.28.39,1.92.94,2.14,3.12,1.25,5.43,0,7.06-2.78,10.5-1.75,20.8-4,29.48-10.78C283.44,1441.92,286.37,1441.3,289.25,1439.71Zm360.34-392-.28.16c7-1.82,12.16-6.12,16.38-11.76l-.35.11c2.65-1,5.57-1.65,7.92-3.15,34.64-22.21,70.82-40.78,111.26-50.37a204.42,204.42,0,0,0,39.24-13.27c34-15.9,65.64-35.36,94.53-59.69C967.3,868.48,1008.36,821,1038,764c15.37-29.59,16-58.14-5.28-87.23-7.81,28.15-20.14,52.52-35.87,75.36-27.92,40.54-64.2,72.4-102.66,102.44-30.44,23.78-64.24,41.65-97.68,60.31-22.51,8-43.74,19.15-63.9,31.36a558.09,558.09,0,0,0-151.48,134.09c-4.17,5.33-12.85,7.89-11.26,17.07l0-.05c-4.6.14-6.46,2.17-4.63,6.73-3.58,7.83-9.66,14.87-7.65,23.79,8.6-7.47,16.1-16.69,25.45-24.3,18.1-14.73,35.25-30.62,52.79-46,4.75-.5,8.58-2.09,9.1-7.63C646.84,1050,648.63,1049.74,649.59,1047.71ZM1133,1395.38c.83-4.88-3.83-4.09-6-5.83-1-1.68-1.6-3.82-3-5-33.37-27.22-71.93-39.69-114.7-40.52-43.32-.83-85.53,7-126.84,18.47-39.19,10.84-79.54,19.42-114.27,42.71a312.49,312.49,0,0,0-88.37,90,652,652,0,0,0-51.67,95.51c-14.56,33.52-24.27,68.49-35.63,103-1.39,4.23-2.36,7.48,4.08,9.45,13.73-49,35.57-94.49,61.39-137.92,23.69-39.85,54.26-73.67,96.08-95.7,41.22-21.71,87.22-27.18,131.7-37.08,34.8-7.74,70.85-9.67,106-16.17,33.34-6.18,65.67-4.82,97.4,6.52,22,7.87,43.59,17,65.37,25.5l15.35,10.4c-5.35-12.1-11-20-12.14-28.46-2.26-16.6-13.21-25.8-24.77-35.16ZM314.49,2172.65l.24,0c6.88-19.44,5.17-40.07,7.85-60.08a605.89,605.89,0,0,1,51.68-177.12c24.81-53.08,56-102.7,94.39-147.08,28.87-33.35,56.39-69.06,100.8-84.13,2.1-.71,5.36-1.1,4.33-4.49-1.2-4-4.48-2.86-7.33-2.15A197.6,197.6,0,0,0,506,1724.27c-37.85,24.65-63.8,59.87-83.88,99.54-22.59,44.61-41.59,91.3-67.27,134-22.76,37.86-39.47,77.31-49.52,119.6-5.7,24-16.82,47.93-8.86,73.79-.4,37.63,4.87,59.7,19.13,78.12,0-18,0-35.16.06-52.29C316.46,2175.27,316.88,2173.58,314.49,2172.65ZM20.05,646.05c-6.45,22.83-9.93,45.65-.09,68.5,3.27,7.78,7.17,15.67,15.38,18.68C49.13,738.3,53.84,747.89,56,762c4.85,32.17,28.69,54.13,61,58.65,47.23,6.61,92.26-1.07,136.13-19.38,20.9-8.72,41.35-19.93,64.86-20.57,40.57-1.09,74.1,16.84,106.53,38.76,12.27,8.29,21.79,20.43,37.69,26.92-3.38-29.66,11.58-61.27-21.63-83.53l4.4-1.5,19.37,10.32c.47-10.75,1-20.44,1.27-30.13.65-25.75-14.88-53.38-36.08-62a205.58,205.58,0,0,0-37.65-11.33c-54.84-10.75-110.56-9.39-166-9.68-54-.29-106.66-3.08-150.6-40.05-13.67-15.86-25.14-33-30.2-55.86-24.48,39.52-15.55,54.69,6.79,92.57,17.43,32.09,44.13,52.87,79.27,61.43,46.4,11.29,93.94,4.54,140.94,6.52,44.23,1.86,88.59,1.64,131.12,16.63,4.28,1.5,8.57,2.49,13.23,10.44a220.37,220.37,0,0,0-71-17.35c-49.95-3.85-100.14-4.17-150.27-3.67-33.58.34-65.79-2.85-96.05-20.52-19.48-11.37-35.91-26.78-55.6-37.53L23.31,644.75c-.88-1.21.18-4.42-2.6-3.46C19.06,641.86,18.44,644.18,20.05,646.05ZM969.77,458.94c-5.25,15.18-8.61,30.84-11.59,46.59-6.65,10.87-10,23.57-16.25,34.24a577.37,577.37,0,0,1-85.1,111.62c-29,29.68-60.18,56.94-90.52,85.11-29.1,27-59.49,52.65-89.61,78.55-45.3,39-84.67,83.23-115,134.57a287.9,287.9,0,0,0-35.33,96.76c-1.53,8.73-3.05,18.63,2.39,27.87,5.28-23.31,16-44.35,25.36-65.63,20-45.33,49-85.37,81.91-122,37.2-41.46,81.18-75.2,127.72-105.83C804,754.25,842.89,725.86,876.58,691s66.06-70.81,84.09-117c21.78-34.87,17.09-72.6,11.77-110.35-.23-1.62-2-3-3.06-4.52l-.33-2.44c-.34.34-.9.63-1,1C967.79,459.14,968.43,459.57,969.77,458.94Zm-460,674.93.16,0c-13.52-6.89-28.92-7.4-42.09-3.75-22.6,6.26-41,20.8-54.52,40.64-9.29,1.71-12.25,10.68-18.05,16.25-57.87,55.42-129.71,78.22-205.28,89.33,18.06,20.22,43.6,30.77,67.75,43.33,9.09,4.73,19,10.76,30,6.58,12.87-4.89,26.24-9.47,37.73-16.79,46.72-29.76,87.35-66.7,124.34-107.86,25.95-28.88,56.95-48,97.53-46.83-6.21-13.67-20.68-15.83-33.09-21.1C512.65,1132.09,511.14,1131.82,509.75,1133.87Zm-363.53,17,.12-3c2.86.66,5.84,2.19,8.56,1.83a336.23,336.23,0,0,0,79.21-20.58c39.24-15.55,74.43-39.11,112.79-56.39,39.77-17.91,79.65-31.24,124.54-18.25,11.09,3.21,20.29,12.27,36.48,12-16.16-17.83-34.13-28.46-50.48-39.65-13.6-9.31-32.55-10.23-50.31-9.94-50.1.84-95.16,20.68-141.51,35.9-23.7,7.78-47.67,14.2-73.19,11.91-23.21-2.08-45-7.91-64.73-20.56-7.67-4.92-13.62-7.66-15.33,5.91-1.06,8.44-5.67,16.47-9,24.54-1.85,4.44-3.65,7.64,3,10.1,44.84,16.59,89.69,16.91,134.53.54,29.42-10.74,55.57-28.58,85.48-38.68,37.22-12.59,74.43-22.53,114.12-16.85,5.37.76,12.28-2.21,17.07,5.89-10.65-.52-19.63-1.22-28.63-1.35-54.85-.8-104.8,17.17-152,42.67-49.63,26.83-100.45,34.63-155,18.84-7.54-2.19-15.81-12.41-21.82-6.15-4.92,5.11-3.51,16.47-4.49,25.11-.25,2.24,1,4.66,1.61,7-3.24,14.58,7.54,18.07,17.58,21.91,7,2.7,15.59,1.56,21.1,8.23-13.76,2-25.25-3.28-35.91-11.21,4.44,28,6.69,31.07,30.56,42.63.51.25.37,1.83.54,2.8-4,6.44-9.67-5-14.82,3,11.43,14.7,23.94,29.45,34.88,45.28,9.5,13.77,22.41,18.65,38.08,21.18,30.88,5,60.45,3,90.09-8.09,41.17-15.37,78.86-35.61,109.53-67.62l-.33-.11c2.58.91,3.53-.73,4.26-2.72,9.28-9.21,18.37-18.63,27.89-27.59,26.56-25,57.67-35.67,94.05-28.94,2.91.54,5.76,1.58,8.66-1.78-7.52-7.21-14-15.4-23.52-20.61-37.74-20.77-75.88-15.26-112.86.45-51.49,21.88-95.57,58-147.72,78.91l.32-.08c-1.76-.78-3.52-1.65-5,.44-11.71,1.88-22.42,11.1-35.24,4.76,4.12-5.61,11.74-3.72,16.6-7.76,16.43-3.16,31.44-10.27,46.58-16.95C302.25,1140.39,335.92,1112,376,1095c27.32-11.58,54.84-18.37,84.77-15.35,21.05,2.13,39.1,11.86,58.68,22-1.36-8.21-1.66-14.77-6.37-18.39-23.32-18-48.45-30.45-79.39-28.11-39.46,3-75.21,17.86-108.5,36.81-51.14,29.11-103,54.82-161.77,64.06C158.06,1153.22,149.67,1160.24,146.22,1150.88ZM417.94,86.13c-.12,1.44-.64,3-.31,4.32,12.59,50.31,7.48,99.4-10,147.64-5.9,16.22-12,32.36-18.52,50,10-2.3,14-8.61,17.94-15.4,30.73-53.54,39.71-111,30.94-171.61-.89-6.19-.33-13.89-7.82-17.51C427.33,63.16,414.74,49,398.3,32.36Zm-43.61,2149,0,.15c1.38-4.28-1.49-7.41-2.89-11-10-25.34-15.43-51.68-12.1-78.77,9.5-77.3,39.1-148.31,72-217.85,18.35-38.84,39.46-76.35,64.83-111.49s53.31-66.83,91.19-88.75c2.15-1.25,6.37-.91,5.28-5.46-1-4.27-4.61-2.59-7.19-3-32-5.35-53.74,13.38-73.5,33.64-32.94,33.77-61.49,71-87.34,110.76-23.62,36.3-43.81,74.24-59.4,114.17-19.28,49.37-32.31,100.91-36.52,154-1.64,20.61-8.08,41.27-2,62.19,1.91,45.33,17.7,101.53,102.78,112.16-9.41-11.19-18.32-21.09-26.41-31.61-8.58-11.13-16.38-22.86-24.53-34.32C378.94,2236.84,376.57,2236.07,374.33,2235.18ZM242,224c31.43,25.44,66,40,108.32,30.07-30.21-19-63.62-33-89.36-58.4a249.16,249.16,0,0,1-64-94c-6.37,12-11.25,21.93-16.91,31.44-3.54,5.93-2.72,10.73.8,16.13C198.48,176.35,217.73,202.2,242,224Zm989,1326.84c-.78-19.53-6.33-36.09-23.09-48.78-14.09-10.67-31.26-17.29-42.49-31.74-28.68-25.9-63-40.66-100.14-48.82-42.39-9.31-83.35,5.81-125,9.39-42.85,3.68-84.4,15.17-126.11,24.86-45.71,10.62-85.15,33-116.28,69.38-29.82,34.84-53.73,73.08-70.44,115.69-9.44,24.08-18,48.56-17.77,75,.05,5.19-1.18,10.82,4.8,14.68,8.76-6.54,7.35-17.61,11.92-25.93,22.86-41.61,47.4-82.29,78.82-117.86s68.51-64.57,114.62-80.48c42.74-14.75,87.21-22,131.1-31.51,39.14-8.52,78.89-14.08,119.27-10.38,21.64,2,42.24,8.15,51.85,16.3-42.16-11.8-83.89-12.58-126.23-6.51-39,5.6-77.07,15.84-115.65,23.45-35.18,6.93-69.67,16.5-100.15,35.69-65.63,41.3-107.53,103.18-142.5,170.25-6.48,12.42-8.92,27.29-8,42,19.9-28.85,36.19-59.33,58-86.29,34.59-42.66,76.86-74.41,128.93-92.23a662.94,662.94,0,0,1,166.08-34.07c45.62-3.37,91.39-2.71,135.66,13.51,22,8.07,42.26,19,62.43,30.44,14.74,8.38,28.93,17.6,42,28.5,2.64,2.21,7.35,2.59,7,.46-2-11.16,8.19-22.46-3.26-34-15.55-15.63-28.66-33.69-42.81-50.7,16.82,8.15,32.59,17.21,45.59,30.26,0,1.59.89,3.15,2.41,2.46C1233.31,1553,1231.91,1551.76,1231,1550.85ZM409.41,87.58c-4.69-23.66-15.9-44.51-26.59-65.86-7.45-14.87-18.31-10.56-28.21-8.51-15.17,3.14,2.51,11-1.26,16.25a4.26,4.26,0,0,1-1.22.81c-1.77-.8-26.12,2.76-29.06,4.08-1.77.8-3.73,1.17-5.57,1.82C303.89,41,279.22,75.44,279.44,89.66a15.76,15.76,0,0,0,2.26,8.23c10.6,15.56,21.5,30.93,32.3,46.36,15.4,33,28.78,67,47.08,101.17,22.77-46.62,20-92.4,10.56-138.67,3.43-6.56-6.19-13.1,0-19.66,9.42.54,4.72,10.36,9.27,14.11,8.57,55.19,7.64,109.88-8.36,163.85-.68,2.32-1.4,6.11,3.32,7.3a131,131,0,0,0,28.78-51.47C417.65,176.84,421.25,132.49,409.41,87.58Zm32.43,1344c4.37-18.85,10.88-37.22,15.4-55.87,11.76-48.53,26.82-95.5,51.71-139,2.88-5,5.47-10.23,8.2-15.35-13.27,6.2-20.71,17.27-29.68,26.72-23.17,24.39-40.55,52.47-47.37,85.69-4.29,20.92-3.44,42.94-15.13,62.13-1.12,1.85.19,5.75,1.3,8.3,4.11,9.4,8.61,18.64,13,27.93.59,1.49-.5,4.55,2,4.11C443.28,1435.87,443.21,1433.34,441.84,1431.55ZM214,273.31c11.05,9.69,23.61,16.23,37.65,21,32.83,11.14,74.06,3.71,97.22-21.64-10-2.16-19.75-4.39-29.57-6.37-29.6-6-55.79-19.45-80.63-36-10.24-8-21.55-15-30.49-24.34-13.72-14.26-25.94-30-38.51-45.31-3.89-4.75-7.15-7.49-10.38,0-3.57,8.25-9.79,14.58-14.85,21.75-4.6,6.51-4.86,11.7.61,19C165,228.32,187.27,252.88,214,273.31Zm-25.22,44.95a75.7,75.7,0,0,0,22.05,11.24c44.9,13.6,84.4-3.27,122.24-23.62a82,82,0,0,0,30.74-28.56c-6.22-1.13-8.53,3.3-11.9,5.68-23.64,16.64-48.67,25.94-78.73,21.88-23.8-3.21-42.35-16.59-63-26.08-14.74-16.57-34.12-27.66-50.28-42.6-9-8.31-16.28-18.67-27.64-24.31-4.19,12.05-2.79,24.81-4.8,37.09-1.63,10,1,16.83,7.39,24.81,7.58,9.48,18.2,16.38,23.33,28.14-14.46-4.91-21.48-19.07-32.4-27.79C116.34,288,121.6,298,133.2,304.43c16.2,9,29.79,22.39,47.74,28.4l62.6,23.23c-22.94-.55-42.77-10.25-63.42-18,9.95,5.26,16.95,14.15,27.12,19.43,34.65,18,70.83,31.92,108.73,40.7,25.06,5.8,50.73,11.14,76.41,2.24C406,395.77,408,382.32,401,360c-5-15.81-13.08-5.5-20.38-3.8-8.57,2-17.09,4.2-25.72,5.95-27.53,5.57-55.17,7-83.81,2.81,3.57-7.85,8.41-4.45,13-4.39,29.85.43,59.36-.08,85.79-17.73,20.16-13.46,20-12.51,10.59-34.8-3.86-9.16-11.53-11.13-16.42-7.24-11.89,9.46-26.38,12.21-39.3,18.72-45.54,22.95-91.95,30.24-139.43,5.3-3.53-4.86-10.89-4.89-13.61-10.77l2-2.76ZM266,191c18.69,22,44.74,30.18,71.93,38.1C323.76,204.34,319,176,303.08,152.47c-3.13-6-5.38-12.78-9.58-17.94-7.62-9.34-9.42-23.69-22.82-28-11.23-3.6-20.68-8.82-28.07-18.7-8.75-11.68-19.68-3.77-28.5.4-7.42,3.51-14.15,9-6.6,20.16,7.2,10.65,10.07,24.23,17.27,34.88C236.55,160.67,248.29,178.49,266,191ZM474.53,71.35C468.75,54.45,458.69,40.11,448,26c-6.94-9.14-14.09-1.86-21.19-1.3-4,.32-4.92,2.78-3.65,6,6.72,16.93,13.6,33.79,20.42,50.68-1.37,2.81-1,5.6-.34,8.57,11.87,49.36,6.5,97.59-9.56,145.14C426,258,415.82,279.82,404.94,302c7.12,2.4,10.09-2.21,13.16-5.57a202.15,202.15,0,0,0,24.38-32.88A253.84,253.84,0,0,0,478.67,138.8C479.32,116.12,481.7,93.49,474.53,71.35ZM23,418c-6.38,34.59,8.32,62.26,28.4,88.43,2,2.59,9.45,4.21,5.54,8.34-8.95,9.48-3,18,2.31,23.82C71,551.44,83,564.63,99.06,572.85c34.56,29.77,75.83,41.29,120.16,40.42,39.27-.77,78.44-6.1,117.72-7.46,34.49-1.19,69.08-.89,103.22,6.71,10.91,2.43,22.68,16.53,30.55,8.29,5.4-5.66-.56-22.17-1.44-33.83,0-.49-.11-1-.17-1.46-1.45-12.46-7.53-18.3-21-19-44.26-2.27-88.42,1.49-132.61,1.07-46.18-.44-92.43.37-138.44-5.39-23.45-2.93-46.29-8.56-69.2-13.94L94.08,540.5c1.61-.58,2.74-1.48,2.35-3.43l12.65,4.16c6.85,2.09,13.6,4.63,20.57,6.19C214.23,566.36,300,560.81,385.51,559.2c21.86-.41,43.66-3.47,65.53-4.49,4.46-.2,9.13,2,10.66-3.81a23.83,23.83,0,0,0-3.62-19.74c-2.92-4.06-6.37,2.15-9.8,3.09-6.58,1.81-13,3.91-19.88,5-37.75,6.15-75.71,5.06-113.62,3.61-52.92-2-105.71-4.94-156.63-22.3-12.9-4.39-22.76-16-37.58-15.13-14.82-10.71-29.73-21.29-44.43-32.16-20.48-15.15-33.93-36.52-49.29-56.2l-2.3-2.31Zm724.19,621.32c-2-1-4.24-2.56-5.84.31a3.51,3.51,0,0,0,.82,3.34c2.66,1.79,4-.73,5.64-2.21,14.87,2.5,30.07-.74,44.93,3.11,19.2,5,38.3,9.39,58.74,5.85,13.25-2.3,27.07-2.31,40.65-3,15.87-.85,31.86.15,47.83-3.28,30.28-6.5,56.08-22.2,81.34-38.38,9.9-6.34,24-10.29,27.6-24.08,2.46-9.29,6.54-17.84,11.21-27.54-2.85.51-4.42.34-5.4,1A623,623,0,0,1,951.09,1013c-30.5,13.65-61.69,27.33-96.88,19.87-18.57-3.93-37.27-3.58-56.22-3.08-9.8.26-19.66,6-29.57,1-1.78-3.64,1.46-4.37,3.38-4.64,21.54-3.05,43.08-6.32,64.87-2,12.35,2.46,24.79,4.43,37.46,3.51,30.84-2.22,58.12-14.54,85.6-27.84,33.26-16.1,64.7-35,95.7-54.81,4.51-2.89,7.76-6.63,8.82-11.27,7.82-34.24,9.41-68.09-8.58-101-4.16,4.92-8.31,9.34-11.93,14.18-32.22,43.12-65.85,84.89-114.49,110.88-14.65,7.83-28.65,18.25-46.62,17.66l-2.15-4a299.41,299.41,0,0,0,78.09-42.61c36.3-27.46,60-64.22,78.19-105.07,7.6-17.13,12.21-35,9.38-56a480.42,480.42,0,0,1-98.91,127.29c-43.6,40.12-91.1,74.39-149.19,91.26-20.71,6-41.69,11.25-61.41,20.47-66.41,31-122.48,76.06-174,127.45-3.13,3.12-7,5.37-4.2,11.49,1.74-1.23,3.27-2.12,4.58-3.27,38.32-33.74,77.7-66.18,122.44-91.14,24.93-13.91,49.13-29.57,77-37.67,0,1.65.09,3.29.13,4.93-1.91,3.63-7.87,3.45-8.28,8.86,4.36,3.22,11-3.4,14.44,3.23C764.64,1041.34,751.69,1029.72,747.15,1039.27Zm-201,135c1.54-.06,3.11-.8,2.45-2.33-.78-1.82-2.08-.52-3,.4-2.68-2.7-6.16-2.67-9.6-2.88-38.28-2.42-65.32,17.57-88.51,44.77-26.55,31.15-56,59-89.57,82.59-18.61,13.07-39.12,22.76-61.64,35.71,20,4.75,36.68,8.45,54.1,7.68,5.62,3,7.89-2.19,10.88-4.76,20.74-17.86,39.7-37.7,66.68-47.59,5.36-2,13.75-1.85,18.09-8.56,15-23.19,33.31-43.72,52-63.92ZM239.76,1515.71c21.32-1.58,39.87-12.2,59.32-19.31,33.56-12.27,66.2-12.7,99.49-.58,19,6.93,38.24,13.36,58.57,20.43-4.06-8.81-10.75-12.42-17.56-16-22.1-11.72-45.5-21.61-65.91-35.79-32.19-22.35-65.11-25.27-100.74-11.9-32.67,10.06-63.79,25.12-89.7,46.25-38.69,31.54-79.59,61.71-106.08,106-15.17,25.37-26.48,51.45-23.86,81.92,12.16-33.75,31.79-63,53-91.28s46.58-51.64,80.57-63.57C204.27,1525.77,222.12,1521.05,239.76,1515.71Zm908.71,442.52a6.34,6.34,0,0,0-1.82-.42c-20.32-14.22-44.41-20-67.42-26.3-70-19.19-142.1-20.55-214.24-19.39-23.92.39-42.68,7.67-51.65,31.9-1.62,4.39-2.92,7.15,1.1,11.5s6.17,2,9.72.64a126.5,126.5,0,0,1,47.42-8.44,592.66,592.66,0,0,1,132.44,16c44.69,10.69,86.37,27.27,124.38,53,35.38,25.71,59,59.51,68.71,104.27a92.49,92.49,0,0,0,14.39-21.61c6.82-14.08,15.28-28.5,13.11-45.31-3-23.18-11.91-43.88-27.45-61.54l2.28-5.39c12.27,10,19,24.47,29,38.7,7.45-32.36-14.3-49.37-31.05-69.7,17.1,3.47,23.17,17.56,33.14,27,14.67-19.85,18.17-28.66,13.46-45.29-3.49-12.29-8.36-24.72-15.22-35.44-19-29.71-45.24-51.57-77.66-65.79-52.07-27.91-109-30.06-165.19-24.92-55.53,5.09-110.17,18.31-162.89,38.38-29.31,11.15-50.58,26.79-50.78,62.1,4.83-5.64,10.62-9.57,16.89-11,48.7-11,96.86-23.87,147.14-27.88,41.63-3.31,82.37-1.66,122.83,7,33.25,7.13,63.65,22.2,93.7,37.75a16.72,16.72,0,0,0,1.76,1.81L1152,1924h.22c-45.34-28.14-94.7-41.77-148-44.92-67.28-4-132,8.31-196.05,26.12-14.17,3.94-18.42,14.6-14.62,29.94l2.66,2.31.48-3.33c8.25-17.42,24-23.64,41.3-26,31.33-4.29,63.11-3.67,94.45-2.43,74,2.93,147.32,11,214.47,46.44.82,1,1.65,2,2.43,3C1149.05,1956.13,1148.76,1957.18,1148.47,1958.23ZM140,434.53c9.15.75,16,7.18,24.25,9.91a615.77,615.77,0,0,0,191.93,31c13.37.06,27.12,2.33,41.73-3-8.26-5.49-16.43-6.64-24.3-8.13-65.05-12.28-127.55-31.67-185.48-64.51-9.59-5.43-20.48-8.54-30.77-12.72-6.47-6.3-15.07-9-22.66-13.4-10.57-6.12-22.14-10.84-31.84-18.09C84.78,342.1,84.53,341.4,66.75,354c-4.7,3.32-8.62,7.79-13.44,10.9-7.92,5.11-5.54,9.69,0,14.31C80,401.14,108.17,420.73,140,434.53ZM1145.09,1826c47.59,26.69,91.75,56.91,111.56,112.75,16.49-22.28,16.35-25,4.39-44.21-7.14-11.46-13-23.7-19.6-35.52-6.69-12-11.79-24.28-23-34.3-19.3-17.25-41.08-28.35-64.94-36.6-31.63-9-64.2-13.5-96.66-10.34A1300.69,1300.69,0,0,0,840,1817.53c-32.42,8.85-61.91,26-90.22,44.42-4.56,3-8.6,7.1-9.41,12.71-1.31,9,4.29,14.64,11.14,19,4.58,2.93,6.08-1.39,7.41-4.28C771.08,1863,795.16,1852,820.21,1843c49.24-17.68,99.75-30.56,151.84-36.36,44.76-5,89.19-4.83,133.26,7.2C1118.73,1817.54,1130.85,1825.3,1145.09,1826ZM823.87,889.59l-.33.21c31.64-14.9,59.89-35.13,86.3-57.65,30.09-25.67,59.37-52.5,82-85.35,13-18.86,24.15-38.82,30.26-61.36,5-18.49,2.32-33-17.29-42.35-4.37,47.51-31.82,81.47-65.77,111-16,13.92-33.68,25.88-50.59,38.73-31.95,16.61-63.45,34.18-96,49.59-34.44,16.32-69.77,31.14-100.93,53.17-38,26.83-71,58.94-96.07,98.75-20.43,32.4-41.13,64.49-49,102.82-.93,4.53-2.76,8.91,2.18,14.07a162.51,162.51,0,0,1,30.75-45.64c19.19-20.19,38.35-40.54,59-59.17,28.91-26.07,59.25-50.53,94-68.74q43.32-22.71,86.71-45.26ZM564.77,1658c13.93-32.91,24.62-67,39.34-99.72,17.24-38.32,39.8-73.11,65.66-105.39,41.92-52.34,93.61-95.29,143.21-140.07,10.35-9.35,21.55-18.18,36.17-21.25,8.45-1.77,16,3,24.49,1,37.05-8.9,74.59-13.68,112.8-11.49,63,9.17,114,43,164.94,82.59-11.35-29.84-29.27-50.73-52.84-66.56-23.84-16-51.94-22.59-78.12-33.22,52.06,7.92,95.61,31.42,129.32,74.08,4.65-35.9-13.76-64.3-21.94-94.93-5.08-19-28.24-25.48-39.25-41.53-1.18-1.72-4.28-2.25-6.59-3.07-35.45-12.55-70.79-25.42-106.45-37.34-10-3.35-22.65-14.27-26.65-12.74-15.13,5.78-29.41-.3-43.93,1.65-44.69,6-85,22.65-123.25,45.62C630.91,1279.78,559,1413.9,538,1580.22c7.4-12.27,12.52-25.79,19-38.46,17.5-34.33,32.37-69.79,53.11-102.82,36.49-58.1,74.63-113.93,130.58-155.23,38-28.07,79.4-49.33,125.68-60.26,21.94-4.73,44-7.69,66.56-7.32,25.53.41,51.28,3.27,76.55-1a111.86,111.86,0,0,1,62.33,7c17.18,7.11,38,10.87,46.12,31.83v.37c1.12-2.56.73-5-1.72-6.29-21.49-11-42.75-22.46-67-26.9-21.48-3.92-42.28,3.74-63.57,2.44-35.17-2.15-70.3-2-105.21,3.74a302.9,302.9,0,0,0-53.05,16.86c-30.37,12.68-59.13,28-85,48.28-50.37,39.49-87.38,89.86-121,143.94-27.61,44.35-47.93,91.8-69.63,138.76-7.72,16.7-6.2,35.27-5.49,53.61,15-39.16,34.56-75.73,53.66-112.59,14.86-28.69,32.3-55.42,54.44-78.78,38.41-40.55,78.85-79.25,115.86-121,23-26,51.13-39,82.88-48.32,22.39-6.57,44.23-15,66.31-22.58,18.78-.57,38.08-7.37,55.86,4.35-6.61.66-13.15-.17-19.68-.15-7,0-14.33-1-20.84,3-7.74.29-15.36.29-22.93,3.07-22.06,8.13-43.94,17.26-66.64,23-27.26,6.89-48.5,21.55-66.95,41.84-17,18.66-33.68,37.67-51.85,55.13-54.55,52.43-105.65,106.73-137,177.69-12.68,28.68-18.56,58-25,87.72-1.1,5.11-3.1,11.39.79,16.77-.27.62-.54,1.25-.82,1.88l1.73,0Zm61.09-476.86c-17.88,18.09-31.66,39.34-45.07,60.65-17.7,28.13-34.56,56.93-46.91,87.9-12.76,32-29.52,62.64-36.68,96.6-5.89,28-9.05,56.53-14.27,84.66-1.79,9.64.61,16.57,7.92,24,3.56-10.84,7.3-20.31,9.8-30.09,12.29-48.18,22.77-96.66,43.11-142.68,19.69-44.55,43.71-86,73.43-124.3,15.78-20.34,34-38.45,51.89-56.87a55.88,55.88,0,0,0,9.42-6.3c37-31.36,79-53.66,124.64-69.78,37-13.05,75.14-20.86,113.7-26.1,18.12-2.46,36.57-7.8,55.27-3.08-1,9.7-9.35,5.15-13.22,5.39A572,572,0,0,0,853.69,1098c-41.76,10.68-82.62,24.25-119.37,47.32-15.83,9.93-34.1,17.11-45,33.8h.31l-3.9,1.12c-2.52,1.51-5.38,2.66-7.51,4.59-34.18,31-64.4,65.57-88.39,104.89C540.19,1371.06,512,1459.49,506,1554.83c-.47,7.57-.58,14.6,5.22,20.3,2.34,2.3,2.71,8.08,6.48,6.81,2.93-1,5.57-5.4,6.66-8.83,4.84-15.27,9.9-30.54,13.38-46.15,10.58-47.44,24.24-93.67,46.05-137.42,28.7-57.6,67-107.2,116.55-148.44,21.06-17.53,45.6-30,66.3-47.9,25.12-11.12,49.35-24,74.83-34.61,39.48-16.5,78.94-18.43,118.6-8.36,20.12,5.11,39.84,14,59.82,21,20.74,7.17,41.82,13.55,65.33,17.72-8.43-25.06-14-48.84-26-71.18-17.07-31.86-42.13-43.49-76.58-39.41-3.71.44-8.49,3.51-11-2.45,6.86-7.92,18.38-2,26.36-8.18-13.12-8.6-26.85-9.68-41.25-8.78-53,3.3-106,6.85-158,18.23-22.18,4.86-45.19,5.85-66.3,16.72C690.64,1115.45,656.33,1145.79,625.86,1181.12Zm-516.43,788c.75-2.25,2-4.47,2.19-6.77,2.61-31.8,9.89-62.69,18.56-93.23,8.14-28.68,23.5-54.4,35.23-81.61A342.11,342.11,0,0,1,204.09,1731c30-35.41,64.58-66.27,102.46-93,53.78-38,112.31-64.53,179.54-70.55-6.54-2.21-11.63-6.63-19.51-6.49-33.49.62-67,.67-100.48.47-13.38-.08-25.66,2.93-38.24,7.5a397.16,397.16,0,0,0-78.34,38.88c-26.17,16.74-50.37,36.55-69.23,61.9-19,16.27-30.67,38.26-43.2,59-13.59,22.52-21.89,48-30.06,73.14-13.51,41.63-21.13,83.94-19.28,128.06.72,17.19,8.56,28.87,19.82,39.82a18.52,18.52,0,0,0,1,3C111.52,1972.33,110,1970.59,109.43,1969.15ZM286,2124.63v.19c1.83-9,3.76-17.94,5.47-26.94,8.58-45,22.59-88.64,47-127,22.59-35.47,38.84-73.73,56.62-111.18,13.71-28.87,29.36-56.19,46.28-83,26.67-42.23,69.14-65.49,110-90.71-8.28-8.82-18.27-4.28-27.33-2.72-36.88,6.31-72.75,14.74-99.38,44.66-22,24.74-39.31,52.72-56.37,80.7-21.84,35.8-37.89,74.69-54.34,113.19-19.5,45.64-37.76,91.81-56.56,137.75-2.85,7-3.69,15.27-11.65,19.21l.2-.21c-3.88-12.26,4.58-21.77,7.23-32.58,11.12-26.37,22.85-52.5,33.23-79.15,21.3-54.66,45.84-107.78,72.4-160.05,4.7-9.24,12.42-15.56,17.28-24.74,15.05-28.38,33.89-54.56,59.38-74.58,33.36-26.19,73.65-30.72,113.5-33.87-15.05-10.61-36.35-13-57.44-7.64-33.88,8.61-62.57,26.39-89.67,47.68a659,659,0,0,0-128.93,134c-11.58,16.09-19.19,34.08-30,50.37-13.8,20.85-21.34,44.32-28.76,67.86-6.64,20.58-12.22,41.47-15.15,62.88-6,43.68-7.84,87,12.48,128.36,9.54,19.43,14.75,24.63,33.66,26.46-18.8-29.32-17.3-59.95-7.67-91.2,1.22-4,1-10.56,6.51-9.15,6.4,1.64,1.14,7.54,1,11.35-.19,4.72-2,9.4-3.32,14.06-7.39,27.13-2.4,51,17,72.16,4.4,4.79,8.16,6.6,13.44,5,5.11-1.57,8.85-4.31,9.53-11.16,1.44-14.42,4.3-28.7,4-43.29C286.44,2129.14,289,2127.05,286,2124.63ZM604.6,77.71c2.67,32.1,2.14,64.13-3.53,95.87C590.1,235,563.89,288,514.16,327.66c-25.15,20-54,33.15-84.13,43.27-10.46,3.52-10.2,9.23-7.36,16.36S426.84,402,439.85,399c36.22-8.3,64-30.38,91.21-53,42.17-35,72.37-79,90.86-130.7,14.54-40.63,22.18-82.42,18.81-125.79-2.19-24.11-18-37.34-39.14-49.36C602.7,54,603.65,65.87,604.6,77.71Zm-418,1569.74c38.81-35.94,81.91-65,133.57-82.31-13.48-10.11-26.37-3.62-38.74-1.89-30.66,4.3-57.31,17.68-80.63,37.86-11.82,7.64-21.73,17.48-31.8,27.18-28.71,27.64-52.16,59.6-74.09,92.52a677.11,677.11,0,0,0-46.73,81.56,23.42,23.42,0,0,0-2.67,9.69c0,20.94-2,42.07,2.45,62.71,4,18.85,9.86,37.22,26.71,50.87.89-6.58,1.71-11.72,2.28-16.89,7-63.36,21.93-124.1,52.8-180.81C145.7,1698.64,165.34,1672.65,186.59,1647.45ZM175.1,344c-12.74-14.19-32.22-19.18-45.2-33.33-3.19-3.49-11.65-11.54-14.6-2.55-2.76,8.42-21.3,13.66-6.43,27.3,16.31,15,33.68,28.45,51.22,41.82,21.29,8.52,37.85,24.56,59.44,33.92,42.58,18.46,86,33.14,131,42.43,23.62,4.87,47.23,11.7,72,10.46,11.56-.58,18.13-2.19,11.15-15.79-4.44-8.65-7.27-18.19-10.26-27.51-2.86-9-8.44-11.67-17.56-10.55-23.42,2.87-46.7,2.73-70.09-2-36.34-7.41-71.55-17.78-104.59-34.85C212.46,363.59,193.8,353.73,175.1,344Zm58.15,1182.79c-25.95,4.28-50.69,11.78-72.5,27.17-44.26,31.25-72.15,75.22-94.3,123.2-8.2,17.77-16.5,36-11.89,57.21,1.87,8.61-.46,18-2.62,27-1.39,5.76-3.63,11.75-1,18.27,41.68-74.6,88-144.68,157.37-196.28,4.44-2,9.25-3.44,13.27-6.09,30.69-20.25,64.9-24.47,100.59-23.13,36.95,1.39,73.93,2.18,110.9.18,16.63-.91,33-8.06,50.08-1.4-2-15.53-16.71-15.68-25.54-22.41-31.36-23.9-66.9-37.36-106.52-36.49C309.28,1494.87,272.6,1515.93,233.25,1526.74ZM551.49,65.94c-.25-10.18-.76-20.38-.66-30.56.06-5.94-2.1-9.29-8.14-9.6-18.81-1-37.72-4.5-56.27,2.23-2.49.9-6.89,0-6,4.13,2.64,11.9-.17,25,8,35.66-2.44.43-2.62,2-2.53,4.18,1.14,27.15,3,54.34.3,81.48-3.59,35.68-12.55,69.6-29.76,101.62-12.84,23.87-29.27,44.19-48.9,62.34-3.8,3.51-7.67,7-3.64,12.36,5.18,6.83,8.83-.34,11.8-2.54,49.69-36.67,91.1-79.69,113.68-139.13C544.51,148.42,552.19,108.12,551.49,65.94ZM543.7,1196.19c-4,.51-5.5,3.57-7,6.73-14.35,30-32.08,58.24-44.89,89.26a436.29,436.29,0,0,0-33.27,170.38c0,8.72-.21,18.78,9.09,26,13.14-43.58,26.23-86.49,44.18-127.65,11.76-27,22.34-54.78,37.06-80.12,18.81-32.36,37.47-65,60.24-95,3.14-2.24,7.22-3.82,9.27-6.8,23.94-34.88,57-59.53,92-81.78,29.45-18.71,60.87-32.94,96.31-36.4-1.06-5.49-4.95-5.92-7.94-6.21-57.32-5.7-110.86.94-156.39,41.77-21.77,19.52-38.4,43.37-59.59,63.28C569.8,1171.91,556.83,1184.14,543.7,1196.19Zm633.8,467.22c1.61-1.84,0-2.6-1.17-3.49-24-9.65-46.4-23.24-72.57-27.93-52.17-9.37-103.68-7.9-155,5.66-28.9,7.65-57.07,17.54-85.42,26.9-3.21,1.06-7,3.74-8.65-.94-1.77-5.06,3.56-4.75,6.37-5.93,21.65-9.07,44.15-15.59,66.62-22.21,51.07-15.06,102.84-20.4,155.87-12.56,33.27,4.93,63.73,17.33,93.6,31.85,29.52,16.57,59,33.23,86.7,59-6.57-47.32-47.07-57-77-80.12,12.26.45,18.78,7.23,26.76,10.5,8.28,3.41,15.17,10.11,25.09,11.39-12.4-32.17-33.81-58.83-55.49-69.57-34.67-27.88-75.32-41.2-118.63-45.8-28.5-3-57.27-2.59-86.12.21a752.8,752.8,0,0,0-148.53,29.35c-57.32,17.6-104.17,52.32-140.45,100-20.81,27.37-41.37,55.49-43.72,92-.28,4.47-2.25,9.94,2.1,12,4.66,2.21,7.51-2.79,9.49-6.64,15.53-30.07,37.34-55.5,59.94-80.22,58.9-64.4,132.91-98.38,219.29-103.55,64.48-3.85,128,6.1,189.86,24.31,12.21,3.6,25.49,6.79,36.26,15.71-11,3.49-18-5-26.75-7.33-53.18-13.87-106.38-25.52-162-26.25-39.07-.52-77.18,3.48-113.93,14.78-52.7,16.2-97.81,45.8-135.48,86.53-26.26,28.39-50.41,57.78-59.16,96.9-1.24,5.55-1.58,9.4,3.06,12.85l2.16,2.45c.35-1.08.71-2.17,1.07-3.25,17-53.87,86.9-101.46,115.26-106.73-2.92,7-3.06,6.94-9.62,10.75-34.73,20.18-69.37,39.86-81.28,83.14-3.73,13.58-5.4,26.41-3.88,40,.34,3.07,1.63,6.15,5.14,5.87,2.88-.22,3.1-3.29,3.27-5.78.87-12.68,8-22.84,13.49-33.68,13.19-26.2,66.17-62,95-64.63-1.36,5.6-6.19,7.43-11.15,9.77-18.54,8.72-36,19.48-52.9,30.93-25.44,17.21-23.54,45.89-28.8,71.37-.81,3.93-3.47,11,2.79,12.63,4.85,1.24,6-5.21,8.08-8.91,11.37-19.91,25.61-36.42,48.61-43.62,14-4.39,27.4-10.62,41.41-14.92,38.58-11.86,77.53-22.73,117.23-29.93,30.09-5.45,60.22-11.12,90.86-13.5,45.65-3.55,90.94-.41,136.14,5.28,12.22,6.87,27.79,5.13,41.54,16.66l-43.84-9.76a499,499,0,0,0-109.12-6.27c-90.78,4.88-177.71,26.46-263,56.3-23.19,8.12-40.62,28-43.76,50.41,31.16-18.12,62-36.07,96.08-46.28,48.62-14.55,99.34-19.35,148.91-29.57,55.42-11.43,110.79-12.74,165.8,2.82,55,19.41,94.58,56.63,122.15,109.09,12-37.45,18.75-67.23-12.78-91.32a242.2,242.2,0,0,0-36.91-23.48c-3.23-1.65-8.32-2.2-9.33-10.81l64.6,34.41c-.87-20.16-9.06-33.48-23.36-43.29-8-5.49-16.94-9.91-24.12-16.31-10.74-9.6-25.88-13.8-35.58-28.85,26.64,9.67,45.63,27.6,69.88,37-18.66-40.76-52.06-66.2-91-86ZM595.22,75.16c-.32-10.16-.74-20.31-.9-30.47-.06-3.73-.52-7.48-4.8-7.69-10.55-.5-19.4-9.55-30.43-6-.42,12.11-.73,24.15,1.3,36.08-.31,8.14-.35,16.29-1,24.4-4.6,58.32-19.54,113.31-55.06,160.87-25,33.49-55.65,62.19-83.07,93.64-2,2.29-7.61,3-5.55,7.32,1.67,3.45,6,4.72,10,4.88,14.52.58,27.8-3.89,40.58-10.22,56.11-27.79,94.43-71.09,114.8-130.5C597,171,601,123.63,595.22,75.16ZM78.3,953c10.38,57.24,90.18,128,165.79,99.72,36.89-13.76,73.58-28.63,112.39-36.49,37.8-7.66,75.36-11.38,110.34,11.06,7.85,5,16.47,8.9,24.73,13.31-5.5-14.47-10-28.21-21.24-38.41C441.12,975.73,406,975.41,370.1,978.61c-5.1.46-10.07,3.75-14.84-.72.94-2.35,2.11-4.62,4.94-4.86,31.11-2.63,62.26-4.07,93.21,1.2,5,.86,9.7,4.08,16.49,2.06C461,950,449.36,927.46,420,918.28c-22.9-7.14-45.93-6.3-69.24-6.75-18.12-.35-35,9.21-53.32,5.56,6.3-10.56,17.92-7.3,26.77-8.78,41.73-7,82.77-3.4,122.21,13,3.66,1.52,7.31,3.38,11.17,1,9.22-5.62,11-33.76,1.9-39.4-20.53-12.66-37.92-30.05-62.28-37-25.71-7.37-51.37-12.34-77.62-6.63-28.92,6.29-57.82,13.26-86,22.19C184.41,877,138.92,872.64,96.62,841.13c-2.61,15-4,29.92-11.94,42.49-6,9.43-6.05,16.31,3.19,23.42,5.73,4.41,10.22,10.39,15.49,15.43,29.88,28.5,64.16,33.14,102.3,19.55,25.82-9.2,52-17.42,78.08-25.91,4.61-1.5,9.71-5.23,14,.86-.91,1.13-1.6,2.91-2.76,3.29-34.85,11.49-69.27,24.73-104.78,33.61-27,6.75-52.69-1.37-76.37-17.37-14.28-9.64-25.71-22.24-38.52-33.44-8.07,16.16-3.93,28.29,7.32,39.34,12.76,12.53,25.31,25,40,35.62,34,24.56,71.51,32.69,112,24.77,28.26-5.53,55.8-14.69,83.93-21,12-2.68,24.07-8.64,37-4-1.62,6.34-7.65,5.33-11.77,6.18-27.78,5.73-54.88,14-82.32,20.92-40.85,10.35-81.09,11.39-120.11-10.59-21.45-12.09-40.41-26.81-59.2-42.18-.21-2.81-1.66-4.28-4.53-4.22C77.85,949.59,78.07,951.27,78.3,953ZM925.45,2288.64c-16.06-10.89-31.58-23.12-40.41-40.38-24.39-47.63-47.81-95.76-68.64-145.13s-39.33-99-36.84-153.85c.31-6.88-1.19-14-9.1-19.45-.49,27.06-7.11,51.94-7,77.77.32,58.81,7,116.19,29.1,171.37a418,418,0,0,0,87.06,134.9c5.71,5.91,11.54,11.71,17.09,17.76,2.69,2.93,5,6.67,9.62,5,20.78-7.38,41.18,1.78,61.8,1.26,15.35-.39,31.4,3.33,46.09-8.76C988.47,2326.23,959.72,2312.91,925.45,2288.64ZM81,606.73a13.32,13.32,0,0,0,3.44,7.83c20.77,23.87,49,31.42,78.54,34.52,47.07,4.95,94.47,1.85,141.69,4C362.36,655.76,419.54,659.41,468,699c1.46-10,4.49-18.42,3.33-26.18-1.28-8.66,4.14-18-4.23-26.3-16.5-16.38-34.12-29.8-58.18-32.14-42.79-4.18-85.56-2.67-128.19,1.48-36.28,3.53-72.5,7.77-108.44-1.37-27.57-7-52.55-20.17-76.44-35.41L60.28,549.26A128.27,128.27,0,0,0,81,606.73ZM521.7,929.37a212.55,212.55,0,0,1,41.68-59.64c18.21-18.19,36.6-36.21,54.87-54.36,37.86-37.6,76-74.93,113.44-112.94,38.21-38.78,76.23-77.77,111.45-119.38,24.17-28.56,48.64-57,69.49-88,13-19.29,25.29-39.81,30.9-63,1.05-4.37,2.87-11.15-2.61-13.16-6.69-2.46-7.52,5.23-8.85,9.08-15.37,44.44-44.59,79.4-75.87,113.15-54.86,59.21-118.34,108.81-179,161.58-34,29.55-66.11,60.5-91,98.82C569,828.13,554.78,856.24,540,884.12c-7.55,14.28-14.51,29.15-18,45.21l-10.28,19.31C516.72,943,523.23,938,521.7,929.37ZM760.78,2356.8c19.21,13.66,40.84,14.34,65.44,11.86l-27.92-24.52c-.52-1.32-.72-2.95-1.62-3.92-36.13-38.88-66.11-81.19-84-132.16-20.05-57.25-24.31-115.16-15.08-174.5,6.34-40.81,20.25-80.12,24.71-121.32.72-6.72,5.32-17.54-1.79-19.35-6.62-1.69-9,10.09-11.59,16.39a743.94,743.94,0,0,0-30.07,90.89c-11.31,43.21-23.47,86.56-26.5,131-5,73.2,24.6,135.16,70.58,190.09C734.07,2334.54,742.33,2351.23,760.78,2356.8ZM120.89,498.2c13.91,9.46,29.93,14,45.59,19.23,47.86,16,97.83,16.15,147.41,19.35,37.7,2.43,74.6.25,109.82-15.06,9-3.92,17.44-8.52,23.31-16.63,5-6.92,1.54-19.31-5.65-19.41-26.19-.37-52.08-4.37-78.39-4.19C285.83,482,210.78,470,139.53,438.9c-8.69-7.66-21.34-6.44-30.3-13.71C89.49,409.15,65,399.55,47.76,380c-1.73-2-5.68-4.57-7.41-1.31-4.65,8.73-14.57,15.58-8.89,28.21C50.1,448.44,82.86,475.84,120.89,498.2Zm642-353.53c-3.52-13.2-15.17-17.17-25.53-22.81-10.71-5.83-8.27.6-6.55,6.65-2.25,32.06-2.46,64.39-8.55,96-14.86,77.32-47.51,147-94.12,210.05C588.71,487.87,542.47,534.81,490.45,576c-3.92,3.1-10.52,5.6-7.26,12.46,3.14,6.6,9.42,3.26,14.42,2.91,25.06-1.77,44.28-15.85,63.4-30.24,26.53-20,52.49-41.11,68.13-70.8,25.94-49.22,55.6-96.22,84-143.91,20.08-33.69,40.18-67.16,54.35-103.79C780.36,209.43,782.61,176.45,762.87,144.67Zm-555,1806c2.71-4.66,6.09-9,8-14a433.61,433.61,0,0,1,60-106.77c46.3-60.19,98.2-114.48,165.09-151.76,27.41-15.27,56.6-29.11,90.06-24.16,12,1.77,11-4.66,7.25-11.87-9.29-17.8-25.76-19-43-17.62-25.94,2-50.38,10.74-75.25,17.39-27.08,7.25-53.3,16.32-75.2,35A361.61,361.61,0,0,0,274,1758.81c-32,50.42-61.72,102.06-83.32,158-7.7,8.56-9,20-13.61,29.92-21.31,46.25-28.9,95.23-27.33,145.36,1,31.8,14.13,58.95,44.4,76.71-8.18-48.24-9.84-94.88-2.81-142C195.16,2000.91,203.62,1976.31,207.9,1950.71Zm-44.48-138.9c-11.49,17.24-18.78,36.57-23.91,56.23-12.78,48.87-32.13,98.22,1,147.58,10.74-27,22.06-53.28,31.53-80.21,4.71-13.37,15.44-24.24,15.8-39.24,14.29-20,24.68-42.5,35.58-64.05,19.86-39.24,41.43-77,68.08-111.82,21.12-27.59,45.18-52.36,76.68-68.12,17.75-8.87,36.84-14.35,56.41-18.61,29.66-6.46,53.53-29.66,86.88-28.53-7-16.65-19.48-20.09-32.9-21.28-45.8-4-86,12.9-124.87,34.22-44.73,24.56-83.69,56.87-119.61,92.71C204.64,1740.07,179.72,1773,163.42,1811.81Zm846-519.39c-26.3-7.59-52.92-5.65-79.59-2.69-25.45,2.83-50.22,11.42-76.41,8.53-6-.67-11.69,2.55-16.95,6.44-28.28,20.91-52.72,46.13-78.8,69.5-48.93,43.85-93.58,91.51-126.71,148.73-21.05,36.35-38.09,74.48-44.11,116.65-1.41,9.92-7,19-6.19,30.67,9.34-7.68,12.82-17.94,17-27.31,11.71-26.31,21.51-53.5,33.93-79.45a537.31,537.31,0,0,1,61.47-99.79c27.67-35.32,60.5-64.24,102.69-81.54,42.84-17.56,87.57-28.8,132.69-37.74,30.44-6,61.5-9.08,93-6.09,25.63,2.44,48.82,12.09,72.89,19.33,18.83,13.74,43,19,59,39.13C1154.7,1366.08,1064.4,1301.91,1009.43,1292.42ZM951.1,443.18c-15.54,32.23-33.3,63.46-56.34,90.62-29.49,34.75-58.1,70.24-89.27,103.68-63.37,68-130.84,131.74-196.3,197.56-33.88,34.07-70.06,66.16-85.38,114.6-9.51,30.05-13.09,59.64-5.82,90.52,11.2-53.54,36.24-100.66,68.78-143.25,31.88-41.73,70.94-77.08,110.49-111.65C767.12,724.19,839.69,665.89,897.2,592c29.31-37.64,52-78.48,61.49-125.76,3-5.38-.55-11.93,4.77-17.73,3.17-3.46-3-10.25-7.17-12.16C950.86,433.91,951.12,439.46,951.1,443.18Zm7.71,155.53c-9.76,15.18-18.43,31.22-29.48,45.39C883.17,703.33,826,750.27,763.26,790.94c-22.35,14.48-44.92,29.23-64.86,46.73-40.19,35.27-76,74.42-105.5,119.76-27.09,41.64-45.67,86.14-60.28,136.14a53,53,0,0,0,9.26-18.09c3.62-11.07,6-23.8,13.12-32.19,13.47-15.82,21.93-34.62,32.9-51.66,33.54-52.11,76.73-92.84,130.82-121.77C757.69,849,798.3,831.27,837.6,811c21.86-11.26,44.08-22.36,62.62-39.12,10-1.12,15.48-9.61,22.59-15,35.65-27.09,64.27-58.52,62-107.74-1.18-25.72-4-51-13-78.25C966.67,581.92,962.74,590.31,958.81,598.71ZM398.69,2255c7.24,17.1,22,27.51,35.1,39.38,14.44,13.07,26.68,13.68,42.35,2,4.66-2.19,10.21-2.88,14.08-8.34-58.56-42.63-80.25-101.58-75.58-171.68,4.4-65.9,29.65-125.57,57.47-184.13,11.94-25.14,25.18-49.72,41.29-72.74,30-42.91,61.47-83,120.81-82.85-3.8-5.07-8.33-9.75-11.27-15.28-7.28-13.67-19.41-16.3-33.33-17-13.35-.69-22.81,7-31.67,14.39-34,28.44-59.5,64.37-81.23,102.33-24.46,42.73-47.65,86.22-64.72,132.9-8.57,23.43-19.47,46.16-26.21,70.29-11,39.59-23.47,79.4-17.27,121.12C372.28,2210.73,379.5,2235.72,398.69,2255ZM867,2316.78c-17-19.39-29.67-41.87-43.78-63.28-48.35-73.35-68.85-154.62-67.45-242,.53-32.69.77-65.41-5.41-97.76-.59-3.13,1.17-7.77-3.57-8.33-4.33-.51-4.93,4.33-6.14,7.14-9.24,21.37-16.13,43.54-22.46,65.93-24.54,86.91-25.46,172.42,13.12,256.19,19.53,42.39,45.83,79,85.11,105.18,9.61,6.5,18,14.8,29,19.25,7.56,3,37.25-4.7,41.23-13.1,4.46-9.4-7.61-12.65-11.13-19.41C873.55,2322.87,869.87,2320,867,2316.78Zm195.34-166.59c16.1,10.4,30.84,24.48,52.68,19.15,6.56-1.6,16.32,2.69,18.49-7.14,2.59-11.74,9-24.18-2.09-35.61-3.13-3.2-7-6.77-6.41-14.28,16.15,12.14,23.54,28,28.53,45.49,22.32-10,31.9-19.22,31-32.83-2.77-43.1-20.69-77.86-58.12-101.22-17.9-19.91-42.35-29.44-66.22-38.15-57.06-20.8-116.51-30.36-177.29-31.12-11.81-.14-23.26,1.19-33.54,8-18.09,12.07-18.11,13.92,1.91,24.54,28.2,15,59.83,18.52,90.18,26,31.33,7.74,42.46,11.12,52.39,21-36.51-11.34-74.15-22.48-114.4-24.39C936,2062.7,997.78,2108.2,1062.32,2150.19Zm-131,137.16c25.57,17.39,55.09,22.35,84.64,28,10.58,2,16.77-2,22.31-8.88,15.4-19.06,25.22-41.41,38-64.53-22.71,1.62-42.9-2.49-66.58-8.44,13.06-6.12,22.93-3.85,32.66-3.47,14.11.55,30.61,1.2,39.39-9.39,9.13-11,6.85-27.74,4.67-42.25-1.53-10.17-12.35-9.9-18.66-14.74-3.09-2.38-6.5-4.33-9.77-6.47-16.32-11.29-32.49-22.78-49-33.82-52.14-35-101.27-73.72-148.51-115-11.71-10.25-22.72-22.11-39.75-30,9,85.57,42.87,156.22,104.72,213.44-77.21-56-101.59-140.13-120.47-229.54-2.8,4.4-3.92,5.53-4.27,6.86a72.24,72.24,0,0,0-1.13,7.24c-6.64,41.51,3.14,80.2,20.32,117.59q25.89,56.34,51.91,112.62C886.06,2237.49,902,2267.3,931.29,2287.35Zm-399.88,8.51c-13.71-29.9-19-57.87-20.79-86.38-4.2-67.47,17.09-129.31,43.1-190.07,13.23-30.9,26.54-61.76,40.17-92.5,13.91-31.36,28.6-62.15,48.93-89.71,22-29.79,21.51-32.47-14.5-41.61-21.49-5.44-40.71-3.68-58.91,11.51-21.74,18.13-37.89,40.15-53.33,63.42-23.63,35.61-42.55,73.75-58.9,112.82-15.69,37.49-27,76.67-32.29,117.6-8.22,63.19,3.82,119.5,49.48,165.95,7.25,7.37,13.7,19,24.36,19.19C509.63,2286.26,518.71,2289,531.41,2295.86ZM491.66,978.78c2.61-4.41,4.35-6.62,5.29-9.13,1.18-3.13,1.41-6.62,2.55-9.77,18.49-50.8,43-98.76,69.31-145.84a343.45,343.45,0,0,1,41.48-58.27c21.75-24.88,46.64-46.45,72.23-67.46,35.28-29,68.82-60,103.39-89.9A859.29,859.29,0,0,0,870.6,513.6c19.34-22.09,31.89-50,40.25-78.67,4.61-15.78,13.32-31.36,8.3-49.63-10.7,13.61-20.49,26.88-31.12,39.45-43,50.87-92.44,95.41-140.35,141.43-41,39.41-87.27,73.51-123.43,117.81-22.77,27.91-47.58,54.39-64.09,87.21-8.51,16.93-23,31-30.4,48.3-16,37.35-38,72.48-42,114.78C486.34,949.27,486.05,962.61,491.66,978.78ZM477.19,815.25c10.14-14.16,20.46-27.67,29.84-41.82,33.35-50.27,70-97.92,111-142.21,37.38-40.39,79.74-75.52,120.36-112.44,51-46.39,103.76-91,144.39-147.43,19.11-26.53,40.1-53.26,16.75-88.24-9.43-14.14-16.6-30-31.1-41.11-2.58,23.73-8,45-17.85,65.45-21.93,45.74-50.9,86.95-82.6,126-62.76,77.31-133,147.68-206.77,214.45-29.69,26.87-57.45,54.92-71.12,94.19C481.86,765.74,472.51,788.8,477.19,815.25Zm5.94-103.65c5.56-1.72,8.87-4.92,12.15-8.5,14.09-15.35,28-30.93,43.24-45.12,73.08-68.17,145.91-136.4,209.34-214.15,35.22-43.17,69.2-86.71,93.68-137.07,10.15-20.88,17.75-41.88,18.05-65.71.11-8.75-2.41-11.69-8.74-15.62-14.73-9.15-32.51-9.34-49.17-19.07,3.42,37.73-4,72.47-13.68,106.44C772.86,365.91,744.67,413,709.88,455c-54.38,65.62-116,124.11-185.65,173.92C496.68,648.58,490.84,680.9,483.13,711.6ZM687.6,1855.46c-10.6,1.11-16.48,9.37-23,16.08-29.55,30.48-50.3,66.19-66.42,105.56-19.33,47.22-33.21,95.7-39.68,146-8.92,69.38,2.66,134.2,48.08,190.41,15,18.56,29.86,35.05,56.95,25.55.74-.26,1.45-.63,3-1.29-13.06-16.58-23.71-34.32-33.87-52.61C603,2231.81,591.16,2175.39,598.8,2115c4.92-38.84,17.27-75.46,31.44-112C649.23,1954.08,673.27,1907.2,687.6,1855.46ZM916.75,330.65c-7.86,6.31-6.57,16.1-11.18,22.47-16.23,22.42-31.62,45.48-50.51,65.94-35.92,38.88-76,73.34-114.68,109.28C702.56,563.47,662.32,596,627,633.87a1188.89,1188.89,0,0,0-94.74,116.06c-21.4,29.72-42.66,59.81-52.09,96.21-3.54,13.66-4.45,27.11-.77,42.28C510.16,837,539.26,786.7,571.63,738.49a636.69,636.69,0,0,1,56.56-72.2c39.29-43.43,86.14-78.81,128.06-119.51,51.17-49.68,104.56-97.27,147-155C915.68,374.92,931.57,356.11,916.75,330.65ZM709.46,1865.36c-14.84,16.38-23.58,32.41-32.06,49.69a1061.23,1061.23,0,0,0-53.71,129.82c-23.16,68.92-27.85,138,.45,206.89,12.37,30.12,30.24,56.53,52.57,80.08,8.1,8.54,15.57,1.85,22.28-1.68,9.13-4.8-.21-8.67-2.13-12.29-6.42-12-14.09-23.24-18.13-36.7-4.26-14.23-8.91-28.8-14.72-42.12-20.73-47.49-24.45-95.7-14.86-146,12.73-66.78,31.55-131.86,53.43-196.09C705.71,1887.75,710.46,1879.28,709.46,1865.36ZM495.06,553.61a37.33,37.33,0,0,0,20.72-10c11.15-10.14,22.23-20.37,33-30.91,58.45-57.15,105.74-121.94,137.45-197.85C711.61,254.16,722.38,191.1,721,125.57c-.12-5.67-2.35-7.73-6.67-9.51-18.71-7.74-23.77-4.94-24.69,15.17C686.18,207,669.58,279.6,635,347.39c-24.6,48.28-50.63,95.63-86.89,136.85C529.45,505.49,509.54,526.28,495.06,553.61Zm289.7-322.1c-11.1,11.88-12.39,26.62-18.89,38.91-21.29,40.25-44.23,79.45-68.58,118-20.3,32.11-39.68,65-57.07,99-18.37,35.94-48.35,61.93-80.72,85.09a474.6,474.6,0,0,1-64.94,39.07c-9.6,4.77-8.9,12.82-8.91,21,0,4.2,1.94,9.29,5.53,9.11,6.42-.33,11.31-5,15-10.5a10.35,10.35,0,0,1,3.1-3c33.27-20.59,62.34-46.36,91.31-72.46C670.88,492.4,734.93,424.4,771.3,334.88,784.67,302,788.56,267.92,784.76,231.51ZM104.23,825.25c8,11.76,21.17,14.43,30,22.46,13.37,12.22,28.51,15.36,45.54,15.62,25.74.4,49.54-8.3,73.86-14.64,21.52-5.61,42.67-13.44,64.51-16.72,34.47-5.19,67.73.76,98.73,18,10.54,5.85,20.41,13.53,33.17,14.95,4.76.53,9.62.89,11.59-3.49s-3.17-6.09-6-8.66c-14.77-13.32-29.6-26.44-46-37.85-30.78-21.4-64.1-31.5-101.48-25.35-25.26,4.15-47,18.2-70.94,26.1C193.85,830,149.64,834,104.23,825.25ZM618.18,2343.06c-7.87-11.46-13.37-20.46-19.84-28.69-25.17-32-42.19-68.29-47.44-108.27-11.52-87.72,12.87-169.7,46-249.48,16.52-39.83,44.38-72.49,71.83-105.16,4.16-5,13.59-10.2,8-16.4-4.94-5.43-12.65,2.43-17.82,6-16.42,11.43-26.56,28.49-36.09,45.44-19.42,34.54-34.74,71-49.61,107.77-14.57,36-30.05,71.61-41.35,108.8-9.82,32.32-15.53,65.65-14.37,99.3,1.52,44.45,20.78,82.34,48.74,116.37C579.06,2334.5,595.8,2340,618.18,2343.06ZM477.25,548.39c8.29-8.53,15.48-16.29,23.05-23.67,66-64.33,115-140.25,148-225.73,21.55-56,31.22-115.2,34-175.4.64-13.68-3.08-20.31-16.92-19.86,1.94,37.23-5.2,73.14-13.05,108.77-8.06,36.58-21,71.6-35,106.48-13.3,33.11-32,62.73-50.54,92.51-23.88,38.32-59.15,67.77-84.4,105.4C475,527.8,473.61,535.92,477.25,548.39ZM650.94,145.62c-4.12,1.17-4.67,3.52-5,5.95-2.65,20.32-8.18,39.85-14.23,59.45-18.91,61.35-55.81,109.88-105.26,149.12-25.11,19.94-52.08,37.62-82,50.22-4.43,1.87-10.34,3.58-7.17,11.68,2.71,6.92,6.19,6.23,12.34,5.5,24.49-2.93,45-14,64.77-27.92,60.45-42.66,104-97.78,124.88-169.34A280,280,0,0,0,650.94,145.62Zm-46,177c-1.33,1.24-2.93,2.29-3.93,3.75-33.43,48.54-80.44,81.18-130.14,110.44-14.51,8.54-19.75,16.82-16.22,33.05a167.69,167.69,0,0,0,6,19.73c4.07,11.53,12.62,13.39,22.29,5C537.48,447.51,575.58,388.45,604.91,322.65ZM438.27,1291.76c-24.51,6.64-36,25.5-49.68,44C426.42,1333.6,426.42,1333.6,438.27,1291.76Zm526.12-245c13-1.21,26.44,15.56,39,.35,8.85-10.76,20.67-19.78,25.1-36.57C1005.89,1022.89,986.55,1036.44,964.39,1046.77ZM419.58,1422.94c-2.08-16.3-10.58-23.93-27.28-21.06-3.71.64-7.71-.34-11.58-.64-10.33-.81-31.37,5.26-37.82,11.53C369.86,1410.63,394.71,1418.32,419.58,1422.94Zm93-465.87c-5.29,15.14-19.77,28.4-11.18,46.95Q507,980.55,512.61,957.07Zm239.08,72.81c.09-.73.2-1.53.3-2.34-.92,0-1.84,0-2.76-.11-1.51-.13-1.87.41-1,1.62S750.1,1031.14,751.69,1029.88Zm-251.6-19.76.91-.47-.6-.52ZM804,1961.3c-.07-.46-.14-.91-.2-1.37-.45.11-1.09.08-1.29.37s.08.87.15,1.32Z"/><path class="cls-1" d="M1170.75,1696.89c2.23,3.16.11,5.51-1.48,8-31.25-15.46-65-21.4-99.09-26.42-53-7.81-105-.57-156.33,12.22-15.06,3.75-29.43,10.25-44.48,15.62-2.55-6.75,1-9,6.08-10.81,64-22.14,129-32.46,197-22.42,31.46,4.66,61.85,11.46,91.17,23.51C1165.66,1697.41,1168.35,1696.81,1170.75,1696.89Z"/><path class="cls-1" d="M1169.72,1502.42c1.89,5.26,6.61,7.55,12,10.54l-8.68,3.2c-9.62-14.59-26.16-20.17-39.43-30.33C1148.75,1484.84,1156.35,1500,1169.72,1502.42Z"/><path class="cls-1" d="M999.42,2224.61c-1,2.79-1.92,5.6-5.51,5.93-3.48-6.5-10.59-4.88-15.82-7.33a365.2,365.2,0,0,1-46.78-26.54C953.69,2206.91,975.22,2219.06,999.42,2224.61Z"/><path class="cls-1" d="M1117.94,1254l.31.17s-.35.1-.33.15S1117.94,1254,1117.94,1254Z"/><path class="cls-1" d="M762.45,1013.67c20.41-11.69,43.17-17.19,65.14-24.75,2.44-.84,5.31-1.48,6,1.44,1.06,4.34-2.85,6.17-6,6.63-14.15,2.1-26.54,9.32-40,13.12-8.56,2.4-15.68,8.82-25.06,8.49C762.54,1017,762.5,1015.32,762.45,1013.67Z"/><path class="cls-1" d="M882.63,975.48c-13.93,10.07-30.36,12.64-46.83,15.43,13-11.09,29.63-13.44,44.68-19.46Z"/><path class="cls-1" d="M1013.1,2039.42c27.37,5.51,50.79,18.62,71.14,37.62C1060.79,2064,1036.85,2051.89,1013.1,2039.42Z"/><path class="cls-1" d="M130.71,1186.07c14.19-5.6,29.06.9,43.51-2.45,4.22-1,10.1-3.6,13.57,2.54C168.75,1193,149.72,1194.2,130.71,1186.07Z"/><path class="cls-1" d="M187.55,1186.22c2.25-6.31,2.53-6.39,12.2-3.81C197.26,1189,196,1189.41,187.55,1186.22Z"/><path class="cls-1" d="M245.72,2078.84l2.95-.45a6.58,6.58,0,0,1-.21.71c-.8-.17-1.59-.38-2.46-.53C245.92,2078.63,245.72,2078.84,245.72,2078.84Z"/><path class="cls-1" d="M352.09,29.74c3.77,4.79,11.93,8.24,5,16.29C350.12,42.21,348.72,36.7,352.09,29.74Z"/><path class="cls-1" d="M363.3,59.18c7.07,3.76,9.33,9,4.87,16.21C360.93,71.67,360,66.06,363.3,59.18Z"/><path class="cls-1" d="M357,45.83c7.91,1.79,10.12,6.28,6.41,13.56C355.5,57.58,356.62,51.52,357,45.83Z"/><path class="cls-1" d="M368.09,75.15c7.8,2.07,9.08,6.14,3.73,12.22C365.64,84.8,364.22,80.78,368.09,75.15Z"/><path class="cls-1" d="M135.59,1151.86c3-6.24,6.83-4.57,10.85-1.15C143.46,1157,139.64,1155.52,135.59,1151.86Z"/></g></g></svg>