<svg xmlns="http://www.w3.org/2000/svg" viewBox="0 0 224.58 201.35"><defs><style>.cls-1{isolation:isolate;}.cls-2{opacity:0.84;mix-blend-mode:darken;}.cls-3{fill:#473018;}</style></defs><g class="cls-1"><g id="Camada_2" data-name="Camada 2"><g id="Camada_1-2" data-name="Camada 1"><g class="cls-2"><path class="cls-3" d="M132.53,34.64c1,.26,2.43,1,2.91-.67.55-1.89-1.05-2.31-2.37-2.77A94.39,94.39,0,0,0,102,26.09c-21.55,0-41.11,7.26-59.49,17.86C28.17,52.21,14.29,61.3,0,69.56v3A299.71,299.71,0,0,1,70.31,41.92C90.55,36.14,110.86,29.06,132.53,34.64Z"/><path class="cls-3" d="M162.4,140.4c17.18.9,34.18,1.78,50.47,6.6,3.95,1.17,7.85,2.47,11.71,3.87V140.35c-10.4-3.17-20.92-6-31.54-8.66C181.66,128.88,169.51,132.28,162.4,140.4Z"/><path class="cls-3" d="M62.45,30.19c21.67-9.91,44.71-8.11,67.59-7.53-1-5.68-6.18-6.48-10.2-8.22-16.38-7.11-32.91-13.1-51.36-8.1C53.23,10.47,39,17.13,24.9,23.85A259.17,259.17,0,0,0,0,37.65V65c7.48-4.54,14.85-9.23,22.3-13.78A375.4,375.4,0,0,1,62.45,30.19Z"/><path class="cls-3" d="M74,60.26c19.3-7.41,38.74-12.78,59.6-11.65,1.18.07,2.78,1.31,3.53-.79s-1.16-2.25-2.08-3.09c-11.4-10.5-25-8.69-38.14-5.75a342.67,342.67,0,0,0-63.8,21.44A318.92,318.92,0,0,0,0,77.3V99.88q9.4-6.15,19-12A334.76,334.76,0,0,1,74,60.26Z"/><path class="cls-3" d="M145.73,66.8c15.48-6.32,29.94-14.25,45.7-19.31a147.54,147.54,0,0,1,33.15-6.73V25.33c-22.69,5.26-44,15.19-64.7,26.81A38.45,38.45,0,0,0,145.73,66.8Z"/><path class="cls-3" d="M156.36,13.37C153.2,17,148.61,19.14,145.88,24c5.73-.63,9.8-3.82,13.91-6.47C168.54,11.88,177,5.74,185.67,0H170.19A120.21,120.21,0,0,0,156.36,13.37Z"/><path class="cls-3" d="M113.92,0H26.25Q13,2.72,0,6.56V33.4q10.71-6.51,21.59-12.76c4.29-2.46,9-3,13.36-5.37C48.37,7.86,62.73,2.32,78.14,1c20.16-1.75,37.44,7,54.18,16.1C129.36,9.64,122.54,3.56,113.92,0Z"/><path class="cls-3" d="M0,0V2.5Q4.29,1.19,8.6,0Z"/><path class="cls-3" d="M150.08,165.56c.58-1.4,2.5-2.8.75-4.26s-3.1.45-4.32,1.25A249.68,249.68,0,0,0,120.33,183a233.86,233.86,0,0,0-18.85,18.33h28.39C137.51,190,144.82,178.35,150.08,165.56Z"/><path class="cls-3" d="M215.59,88.87c-19.14-1-38.11-2.19-54.16,12a49.7,49.7,0,0,0-12,15c-.66,1.32-.95,2.88.53,3.69,1.2.67,2.09-.5,2.81-1.45,3.66-4.84,9.17-7,14.18-9.94,12.11-7,42.62-7.5,54.81-1-2,1.88-4.42,1.35-7,1a190,190,0,0,0-29.2-1.45c-14.66.23-21.38,12.18-30.14,21-1.34,1.35-4.26,3.5-2.18,5.77,1.62,1.76,3.75-.52,5.56-1.45,9.73-5,19.73-7.86,30.8-4.73,6.73,1.9,13.72,2.91,20.43,4.84q7.31,2.12,14.57,4.34V65.57a158.62,158.62,0,0,0-26.68,4.34C180,74.4,162.68,79.83,149,93.18c-1.94,1.89-3.08,3.34-2.13,5.93.08.51.15,1,.22,1.54l1.28-1c20.85-17.08,61.2-17.84,73.9-12.54C219.25,89.12,219.21,89.06,215.59,88.87Z"/><path class="cls-3" d="M161.76,185.38c.15.54.3,1.08.46,1.62l1.05-1.21c7.85-4.8,15.75-3.18,23.29.39a203.55,203.55,0,0,1,26.09,15.17h11.93v-5a364.16,364.16,0,0,0-49.17-19.14C168.72,175.11,164.24,178.26,161.76,185.38Z"/><path class="cls-3" d="M158.77,197.76c-.15.07-.2.37-.29.57l.62.22.28-.6C159.17,197.88,158.92,197.7,158.77,197.76Z"/><path class="cls-3" d="M211,150.53c-15.26-4.93-31.52-5.77-47.63-5.81-2.6,0-5.29.59-7.08,2.62-2.87,3.25-2.11,7-.52,10.5,1.07,2.37,2.8,1,4.08.23,11.75-7.39,24.23-5.46,36.58-2.52,9.5,2.27,18.89,4.88,28.13,7.9v-8.36Q217.83,152.74,211,150.53Z"/><path class="cls-3" d="M195.72,159.1c-14.62-3.2-27.2-2.5-36.5,11.55a15.33,15.33,0,0,1,9.62,0c18.73,7,37.65,13.34,55.74,22V166.86Q210.4,162.3,195.72,159.1Z"/><path class="cls-3" d="M77.59,142.61c17-11.6,36.64-17.37,56.14-23.25,3-.9,8.09-.53,7.46-4.48-.56-3.46-5.69-2.33-8.69-2.24-9.55.28-18,4.44-26.28,8.72-16.78,8.73-32.42,19.3-47.95,30.1C43.06,162,27.57,172.22,13.35,184.12A172.16,172.16,0,0,0,0,196.51v4.84H11.92C29.76,178,52.91,159.45,77.59,142.61Z"/><path class="cls-3" d="M196.3,194.83c-9.65-6.09-19.05-8.08-29-.74-1.8,1.33-3,2.09-2.57,4.88.26,1.53.83,2.11,1.59,2.38h40.15Q201.44,198.07,196.3,194.83Z"/><path class="cls-3" d="M69.62,82c23.2-9.3,46.23-17.12,69.88-1.55-.19-3-.78-6.07-.51-9,.66-7.36-3.5-11.57-8.87-15.5-5.15-3.76-10.94-3.16-16.41-2.52-21,2.48-40.57,10.18-59.16,19.67S17.31,92.72,0,104.92V123c10.89-8.18,22.44-15.54,34.14-22.69A239.17,239.17,0,0,1,69.62,82Z"/><path class="cls-3" d="M44,156.43Q64,143.09,84.16,130c13.74-8.89,27.65-17.36,43-23.06,16.55-6.16,17.07-7.35,5.07-20.4-7.16-7.79-15.3-12.1-26.53-10.79C92.24,77.29,80,81.87,67.8,87.14c-18.73,8-36.25,18.35-53,29.68Q7.2,122,0,127.71v63.53C13.06,178,28.22,166.92,44,156.43Z"/><path class="cls-3" d="M135.4,146.37c3.64-2.85,7.76-5,11-10.82-10.21,2.67-17.88,6.8-25.78,11.48a507.09,507.09,0,0,0-55.34,37.84,187.85,187.85,0,0,0-18.38,16.48H72.16A726.67,726.67,0,0,1,135.4,146.37Z"/><path class="cls-3" d="M78.81,169.86c20.36-14.59,42.2-27,61.43-44-4.53-2.33-9-.56-13.38.42-19.76,4.46-37.37,13.3-54.08,24.82-20.05,13.81-38.25,29.56-54,48q-1,1.13-1.89,2.25H41.51C52.63,189.41,65.45,179.44,78.81,169.86Z"/><path class="cls-3" d="M139.3,157.64c2-2.49,6.7-5.61,4.34-8.19-2.21-2.41-6.25,1.67-8.91,3.52A355.54,355.54,0,0,0,99,181.42c-7.27,6.58-14.61,13.13-21.67,19.93H96.25l1.51-1.7C111,185,126.76,172.94,139.3,157.64Z"/><path class="cls-3" d="M144,201.35a109,109,0,0,1,8.52-14c1.92-2.67,3.17-5.89,1.44-10.15-6,8.86-13.33,16-19.47,24.12Z"/><path class="cls-3" d="M155.76,200.75q-.31.28-.6.6h3.24l.86-2.22C157,200.16,156.25,200.31,155.76,200.75Z"/><path class="cls-3" d="M142.74,15.13l-.65.42.67.47C142.76,15.72,142.75,15.43,142.74,15.13Z"/><path class="cls-3" d="M151.21,82.74c14-8,29.4-12.43,44.88-16.4a160.05,160.05,0,0,1,28.49-4.67V44.39a142.25,142.25,0,0,0-35.11,7.83c-15.46,5.5-31,11.36-41.48,25.34-1.29,1.72-3.5,3.39-2.3,5.35S149.42,83.76,151.21,82.74Z"/><path class="cls-3" d="M130.31,4.57c4.32,3.83,5.61,1,6-2.85A17,17,0,0,0,136.39,0H124.18A45.15,45.15,0,0,1,130.31,4.57Z"/><path class="cls-3" d="M142.91,14.83C150,10.09,156.75,5,163.59,0h-8.38c-2.76,2.68-5.49,5.39-8.24,8.11C145.23,9.83,142.86,11.78,142.91,14.83Z"/><path class="cls-3" d="M155.16,49.65c20-10.65,40.42-20.5,62.25-26.5q3.59-1,7.17-1.81V0H220a189.45,189.45,0,0,0-47.8,24.45c-10.06,7.16-19.88,14.69-26.68,25.33-1.34,2.09-3.3,4-1.92,7.12C148.84,56.57,151.16,51.78,155.16,49.65Z"/><path class="cls-3" d="M204.14,2.25q2.38-1.17,4.79-2.25H192.86q-3.68,2.27-7.28,4.63C171,14.22,158,25.66,144.45,36.47c-1.66,1.33-2.89,2.38-.83,4.84C161.88,25.34,182.49,12.86,204.14,2.25Z"/></g></g></g></g></svg>