<?xml version="1.0" encoding="utf-8"?>
<!-- Generator: Adobe Illustrator 24.3.0, SVG Export Plug-In . SVG Version: 6.00 Build 0)  -->
<svg version="1.1" id="Layer_1" xmlns="http://www.w3.org/2000/svg" xmlns:xlink="http://www.w3.org/1999/xlink" x="0px" y="0px"
	 viewBox="0 0 194.4 1437.6" style="enable-background:new 0 0 194.4 1437.6;" xml:space="preserve">
<style type="text/css">
	.st0{clip-path:url(#SVGID_2_);}
	.st1{clip-path:url(#SVGID_4_);}
	.st2{fill:#3C5945;}
</style>
<g id="Camada_2">
	<g id="Camada_1-2">
		<g>
			<defs>
				<rect id="SVGID_1_" y="258.8" width="194.4" height="841.9"/>
			</defs>
			<clipPath id="SVGID_2_">
				<use xlink:href="#SVGID_1_"  style="overflow:visible;"/>
			</clipPath>
			<g class="st0">
				<g>
					<defs>
						<rect id="SVGID_3_" x="-207.3" y="258.8" width="445.6" height="841.9"/>
					</defs>
					<clipPath id="SVGID_4_">
						<use xlink:href="#SVGID_3_"  style="overflow:visible;"/>
					</clipPath>
					<g class="st1">
						<path class="st2" d="M89.9,661.8c-0.7-0.7-1.3-0.8-1.9,0.1l0,0h-0.1l0,0c-5.7-2.8-12.2-3.4-18.3-1.6
							c-9.8,2.7-17.9,9.1-23.8,17.7c-4.1,0.7-5.3,4.7-7.9,7.1C26.9,695.6,14,704.1,0,710.1v32.2c2.6-1.1,5.2-2.4,7.6-3.9
							c20.4-13,38.1-29.1,54.2-47c11.3-12.6,24.8-21,42.5-20.4C101.6,665,95.3,664.1,89.9,661.8z"/>
						<path class="st2" d="M111,662.1c-1.4,1.4-3.1,2.4-1.8,5c0.8-0.5,1.4-0.9,2-1.4c16.7-14.7,33.8-28.8,53.3-39.7
							c9.8-5.4,19.3-11.5,29.9-15.2v-7.3c-2.6,0.9-5.1,1.9-7.6,3.1C157.9,620,133.4,639.7,111,662.1z"/>
						<path class="st2" d="M11.3,795.5c11.7,3.7,21.7,10.8,32.6,16.1c6.1,2.9,12.7,4.9,19.4,5.8c-3.9-8.8-10-14.9-16-21
							c-6.4-6.6-15.3-10.4-24.6-10.4c-8.1-0.2-15.3,3.2-22.7,5.5v2.8C3.8,794.4,7.6,794.4,11.3,795.5z"/>
						<path class="st2" d="M193.4,616.6l0.1-1c-0.4,0-0.8,0-1.2,0c-0.7-0.1-0.8,0.2-0.4,0.7C192.3,616.8,192.7,617.1,193.4,616.6z"
							/>
						<path class="st2" d="M83.6,646.3c-16.4-9-33.1-6.6-49.2,0.2c-12,5.1-23.2,12-34.4,18.8v41c13.1-6,25-13.7,35.2-24.3h-0.1
							c1.1,0.4,1.5-0.3,1.8-1.2c4-4,8-8.1,12.2-12c11.6-10.9,25.1-15.5,41-12.6c1.3,0.2,2.5,0.7,3.8-0.8
							C90.6,652.2,87.8,648.6,83.6,646.3z"/>
						<path class="st2" d="M0,847.7v4.2c1.7-0.7,3.5-1.3,5.3-1.9C3.7,848.7,1.9,848,0,847.7z"/>
						<path class="st2" d="M36.7,778.7c-1.6,0.3-3.4-0.2-5-0.3c-4.5-0.3-13.7,2.3-16.5,5c11.8-0.9,22.6,2.4,33.4,4.4
							C47.7,780.8,44,777.5,36.7,778.7z"/>
						<path class="st2" d="M39.4,819.7c8.3,3,16.7,5.8,25.5,8.9c-1.8-3.8-4.7-5.4-7.7-7c-9.6-5.1-19.8-9.4-28.7-15.6
							c-9.3-6.5-18.8-9.2-28.6-8.6v21.2C12.9,814.6,26.8,814.9,39.4,819.7z"/>
						<path class="st2" d="M69.5,816.5c5.7-19,11.4-37.7,19.3-55.6c5.1-11.8,9.7-23.9,16.2-34.9c8.2-14.1,16.3-28.4,26.3-41.4
							c1.4-1,3.1-1.7,4-3c10.4-15.2,24.8-25.9,40.1-35.6c6-3.9,12.4-7.2,19-10v-9.2c-17.6,0.8-34.1,5.8-48.7,18.9
							c-9.5,8.5-16.7,18.9-26,27.6c-5.7,5.3-11.3,10.7-17,15.9c-1.7,0.2-2.4,1.6-3.1,2.9c-6.2,13.1-14,25.4-19.6,38.9
							c-9.8,23.5-14.7,48.8-14.5,74.3C65.6,809,65.5,813.4,69.5,816.5z"/>
						<path class="st2" d="M87.6,706.7c1.3-2.2,2.4-4.5,3.6-6.7c-5.8,2.7-9,7.5-12.9,11.6c-10.1,10.6-17.7,22.9-20.7,37.4
							c-1.9,9.1-1.5,18.7-6.6,27.1c-0.5,0.8,0.1,2.5,0.6,3.6c1.8,4.1,3.8,8.1,5.7,12.2c0.3,0.7-0.2,2,0.9,1.8c0.9-0.2,0.8-1.2,0.2-2
							c1.9-8.2,4.8-16.2,6.7-24.3C70.1,746.2,76.7,725.7,87.6,706.7z"/>
						<path class="st2" d="M188.9,620.8c-0.1,0.5,0,1.1,0.4,1.5c1.2,0.8,1.8-0.3,2.5-1c0.9,0.2,1.8,0.3,2.7,0.3v-2.7
							c-1.3-0.1-2.5,0.6-3,1.8C190.5,620.2,189.6,619.6,188.9,620.8z"/>
						<path class="st2" d="M119,638.6c-1.8,2.3-5.6,3.4-4.9,7.4l0,0c-2,0.1-2.8,1-2,2.9c-1.6,3.4-4.2,6.5-3.3,10.4
							c3.8-3.3,7-7.3,11.1-10.6c7.9-6.4,15.4-13.3,23-20.1c2.1-0.2,3.7-0.9,4-3.3c0.8,0.2,1.6-0.2,2-0.9h-0.1l0.1-0.1l0,0
							c2.9-0.8,5.3-2.6,7-5.1l-0.1,0c1.2-0.3,2.3-0.8,3.4-1.4c11.2-7.2,22.8-13.5,35.2-18v-25.1c-3.2,1.7-6.3,3.5-9.3,5.3
							C159.7,595.4,137.3,615.2,119,638.6z"/>
						<path class="st2" d="M160.9,473.9c-14.8,12.9-28.8,26.4-39.7,43.1c-7.5,11.6-13.7,23.9-20.2,36c-3.2,6.1-6.2,12.4-7.8,19.2
							c4.5-9.5,10.6-18.1,17.9-25.5c7.9-7.9,16-15.8,23.9-23.7c16.5-16.4,33.1-32.7,49.4-49.2c3.3-3.3,6.5-6.6,9.8-9.9v-18.5
							C183.3,454.9,172,464.3,160.9,473.9z"/>
						<path class="st2" d="M93.1,572.9l-4.4,8.2C90.9,578.7,93.7,576.6,93.1,572.9z"/>
						<path class="st2" d="M54.8,627.6c-17.2,1.3-32.8,7.8-47.3,16c-2.5,1.5-5,2.9-7.5,4.2v13.7c9.6-5.9,19.1-12.2,29.6-16.6
							c11.9-5,23.9-8,37-6.7c9.2,0.9,17,5.2,25.6,9.6c-0.6-3.6-0.7-6.4-2.8-8C79.2,632,68.3,626.6,54.8,627.6z"/>
						<path class="st2" d="M60.3,569.2c1.6,0.7,3.2,1.5,4.9,0.5c4-2.5,4.8-14.7,0.8-17.2c-9-5.5-16.5-13.1-27.2-16.2
							c-11.2-3.2-22.4-5.4-33.8-2.9c-1.7,0.4-3.3,0.7-5,1.1v29.6c2.3-0.5,4.8-0.2,7-0.6C25.2,560.5,43.1,562.1,60.3,569.2z"/>
						<path class="st2" d="M52.9,463.8c-5.3-2.2-10.8-3.8-16.4-4.9c-12-2.2-24.2-3.5-36.5-3.8v28.4c14,0.6,27.9,1.9,41.4,6.6
							c2.5,0.6,4.6,2.2,5.8,4.5c-9.8-4.2-20.3-6.8-31-7.6c-5.4-0.4-10.8-0.7-16.2-1v22.2c1.4-0.2,2.8-0.3,4.3-0.4
							c17.7-0.5,32.3,7.3,46.5,16.9c5.3,3.6,9.5,8.9,16.4,11.7c-1.5-12.9,5-26.7-9.4-36.4l1.9-0.7L68,504c0.2-4.7,0.4-8.9,0.6-13.1
							C68.9,479.6,62.2,467.6,52.9,463.8z"/>
						<path class="st2" d="M0,881.2c23.3-16.3,48.6-27.7,77.6-30.3c-2.8-1-5.1-2.9-8.5-2.8c-14.6,0.3-29.2,0.3-43.8,0.2
							c-5.7,0.1-11.4,1.2-16.7,3.3c-2.9,1.1-5.8,2.2-8.6,3.4V881.2z"/>
						<path class="st2" d="M131.3,531.6c-14.8,14.8-30.5,28.8-37.2,50c-4.1,13.1-5.7,26-2.5,39.5c4.9-23.3,15.8-43.9,30-62.4
							c13.9-18.2,30.9-33.6,48.2-48.7c8.2-7.2,16.5-14.3,24.8-21.4v-19.7C173.6,490,152.2,510.6,131.3,531.6z"/>
						<path class="st2" d="M6.2,845.1c16.1,0.6,32.2,1,48.3,0.1c7.3-0.4,14.4-3.5,21.8-0.6c-0.9-6.7-7.3-6.8-11.1-9.7
							c-13.7-10.5-29.2-16.3-46.4-15.9c-6.4,0.2-12.7,1.3-18.8,3.2v23C2,845,4.1,845,6.2,845.1z"/>
						<path class="st2" d="M83.9,823.6c5.4-21,9.9-42.1,18.8-62.2c8.4-19.3,19.2-37.5,32-54.2c6.9-8.9,14.8-16.8,22.6-24.8
							c1.5-0.8,2.8-1.7,4.1-2.7c10-8.5,21.1-15.7,32.9-21.4V641c-3.2,0.8-6.4,2-9.4,3.5c-18.3,9.4-33.2,22.6-46.5,38
							c-7.8,7.9-13.8,17.1-19.7,26.4c-7.7,12.3-15.1,24.8-20.5,38.3c-5.6,14-12.9,27.3-16,42.1c-2.6,12.2-4,24.6-6.2,36.9
							c-0.8,4.2,0.3,7.2,3.4,10.5C81.2,832,82.9,827.9,83.9,823.6z"/>
						<path class="st2" d="M170.1,532.8c-17.5,15.4-33.1,32.4-46,52.2c-11.8,18.2-19.9,37.6-26.3,59.3c1.8-2.3,3.2-5,4-7.9
							c1.6-4.8,2.6-10.4,5.7-14c5.9-6.9,9.6-15.1,14.3-22.5c14.6-22.7,33.4-40.5,57-53.1c5.1-2.7,10.2-5.3,15.4-7.8v-24
							C186,520.5,177.6,526.2,170.1,532.8z"/>
						<path class="st2" d="M160.7,522.9c-19.7,17-36.9,36.3-50.1,58.7c-7.6,13-12.9,27.3-15.4,42.2c-0.7,3.8-1.3,8.1,1,12.1
							c2.3-10.2,7-19.3,11-28.6c8.8-19.8,21.5-37.3,35.8-53.3c15-16.8,32.7-30.7,51.4-43.3v-17.2C183.4,503.6,172,513.2,160.7,522.9
							z"/>
						<path class="st2" d="M167.1,558c-16.6,11.7-30.9,25.7-41.9,43c-8.9,14.1-17.9,28.1-21.4,44.8c-0.4,2-1.2,3.9,1,6.1
							c3.3-7.3,7.8-14.1,13.4-19.9c8.4-8.8,16.7-17.7,25.7-25.8c12.6-11.4,25.8-22,41-30l9.4-4.9v-28.7
							C185,547.2,175.7,552,167.1,558z"/>
						<path class="st2" d="M157.7,801c11.1-13.8,23.7-26.1,36.7-38v-8c-3.9,4.2-7.9,8.4-12.1,12.4c-23.8,22.9-46.1,46.5-59.7,77.5
							c-5.5,12.5-8.1,25.3-10.9,38.2c-0.5,2.2-1.3,4.9,0.2,7.2c6-14.3,10.7-29.1,17.1-43.3C136.6,830.5,146.2,815,157.7,801z"/>
						<path class="st2" d="M112.5,891.2l-0.5-0.7c-0.1,0.2-0.2,0.4-0.3,0.7L112.5,891.2z"/>
						<path class="st2" d="M18.4,278.4c-6-3.8-12.3-7.1-18.4-10.6v11.5C6.1,280.1,12.4,279.8,18.4,278.4z"/>
						<path class="st2" d="M139.5,357.1c-17.2,23.1-37.4,43.8-60,61.6c-1.7,1.4-4.6,2.4-3.2,5.4s4.1,1.4,6.3,1.3
							c10.9-0.8,19.3-6.9,27.6-13.2c11.6-8.7,22.9-17.9,29.7-30.9c11.3-21.5,24.2-41.9,36.6-62.7c6.2-10.5,12.5-20.9,17.8-31.9
							v-61.9c-2.1-1.7-4.8-2.8-7.3-4.2c-4.7-2.5-3.6,0.3-2.9,2.9c-1,14-1.1,28.1-3.7,41.9C174.1,299.2,159.8,329.6,139.5,357.1z"/>
						<path class="st2" d="M4.2,782.3c5.2-5,12.2-7.9,19.5-8.1c4.2-0.2,8.5,0.4,12.7,0c4.5-0.4,9.9-0.3,11.7-5.8
							c1.6-4.8,3.2-9.8,1.8-15.7c-11.6,4.9-23.6,4.9-35.6,4.1c-4.8-0.4-9.6-1.3-14.3-2.5v30.9C1.6,784.5,3,783.5,4.2,782.3z"/>
						<path class="st2" d="M6.3,1088.6c3.5-26.7,11.1-52.8,22.5-77.2c10.7-23.2,24.5-44.8,41.2-64.1c12.6-14.5,24.6-30.1,44-36.7
							c0.9-0.3,2.3-0.5,1.9-2c-0.5-1.7-2-1.2-3.2-0.9c-9.4,2.4-18.3,6.3-26.3,11.7c-16.5,10.7-27.8,26.1-36.6,43.4
							c-9.9,19.5-18.1,39.8-29.3,58.4c-9,14.8-15.9,30.8-20.5,47.5v65.8c0.9,1.8,2,3.5,3.3,5.1c0-7.9,0-15.3,0-22.8
							c0.3-0.8,0.5-1.5-0.5-1.9h0.1C5.9,1106.3,5.2,1097.3,6.3,1088.6z"/>
						<path class="st2" d="M134.8,306.7c-5.8,14.4-13.9,27.3-22,40.3C102.3,363.7,87,376.5,76,392.9c-3.2,4.8-3.8,8.3-2.2,13.7
							c3.6-3.7,6.8-7.1,10.1-10.3c28.4-27.7,50.4-61.3,64.5-98.4c9.4-24.4,13.6-50.2,14.8-76.5c0.3-6-1.4-8.9-7.4-8.7
							c0.8,16.2-2.3,31.9-5.7,47.4C146.5,276.2,140.9,291.5,134.8,306.7z"/>
						<path class="st2" d="M144.8,380.1c-8,15.7-21.1,27-35.2,37.1c-9,6.4-18.4,12.1-28.3,17c-4.2,2.1-3.9,5.6-3.9,9.2
							c0,1.8,0.8,4.1,2.4,4c2.8-0.1,4.9-2.2,6.5-4.6c0.4-0.5,0.8-1,1.3-1.3c14.5-9,27.2-20.2,39.8-31.6
							c26.3-23.7,50.5-48.8,66.9-80.1V295c-7.8,14.2-16,28.2-24.7,41.9C160.8,350.9,152.4,365.3,144.8,380.1z"/>
						<path class="st2" d="M64.7,278.8C59.2,289,52,298.2,43.4,306c-1.7,1.5-3.3,3.1-1.6,5.4c2.2,3,3.8-0.1,5.1-1.1
							c21.7-16,39.7-34.7,49.6-60.7c6.6-17,9.9-35,9.6-53.2c-0.1-4.4-0.3-8.9-0.3-13.3c0-2.6-0.9-4-3.6-4.2c-8.2-0.4-16.4-2-24.5,1
							c-1.1,0.4-3,0-2.6,1.8c1.2,5.2-0.1,10.9,3.5,15.6c-1.1,0.2-1.1,0.9-1.1,1.8c0.5,11.8,1.3,23.7,0.1,35.5
							C76.1,250.1,72.2,264.8,64.7,278.8z"/>
						<path class="st2" d="M85.6,277.6c-10.9,14.6-24.3,27.1-36.2,40.8c-0.9,1-3.3,1.3-2.4,3.2c0.7,1.5,2.6,2.1,4.4,2.1
							c6.3,0.2,12.1-1.7,17.7-4.5c24.5-12.1,41.2-31,50.1-56.9c6.9-20.2,8.7-40.9,6.2-62c-0.1-4.4-0.3-8.8-0.4-13.3
							c0-1.6-0.2-3.3-2.1-3.3c-4.6-0.2-8.5-4.2-13.3-2.6c-0.3,5.2-0.1,10.5,0.6,15.7c-0.1,3.5-0.2,7.1-0.4,10.6
							C107.6,232.9,101,256.9,85.6,277.6z"/>
						<path class="st2" d="M89.8,310.4c-11,8.7-23.6,14.5-36.7,18.9c-4.6,1.5-4.5,4-3.2,7.1s1.8,6.4,7.5,5.1
							c15.8-3.6,27.9-13.2,39.8-23.1c18.1-15,31.8-34.7,39.6-57c6.3-17.7,9.7-35.9,8.2-54.8c-0.9-10.5-7.9-16.3-17-21.5
							c0.5,6,0.9,11.2,1.3,16.3c1.3,13.9,0.8,28-1.5,41.8C122.9,270.1,111.5,293.2,89.8,310.4z"/>
						<path class="st2" d="M0,237.6v25.6c4.2,1.6,8.5,3,13,4.2C7.5,257.9,5.3,247.1,0,237.6z"/>
						<polygon class="st2" points="84.1,607.8 83.8,607.5 83.7,608 						"/>
						<path class="st2" d="M47.4,538.1c4.6,2.6,8.9,5.9,14.5,6.5c2.1,0.2,4.2,0.4,5-1.5s-1.4-2.7-2.6-3.8c-6.3-5.9-13-11.5-20-16.5
							c-13.4-9.3-27.9-13.7-44.2-11v19.3c1.5-0.3,2.9-0.6,4.4-0.8C19.2,528,34.3,530.7,47.4,538.1z"/>
						<path class="st2" d="M60.1,725.3c6.5-10.1,14.5-19.1,22.7-27.9l21-17.9c0.7,0,1.3-0.4,1.1-1c-0.3-0.7-0.9-0.2-1.3,0.2
							c-1.2-1.2-2.7-1.2-4.2-1.3c-16.7-1.1-28.5,7.7-38.6,19.5c-11.4,13.6-24.5,25.7-39,36c-6.8,4.7-14,8.4-21.8,12.7v4.1
							c6.5,1.5,12.4,2.4,18.4,2.2c2.5,1.3,3.4-0.9,4.7-2.1c9-7.8,17.3-16.4,29.1-20.7C54.6,728.2,58.2,728.2,60.1,725.3z"/>
						<path class="st2" d="M81.6,474.1c6.1-6.7,12.2-13.5,18.8-19.7c31.9-29.7,63.6-59.5,91.3-93.4l2.7-3.3v-19.3
							c-5.6,9.7-12.1,18.8-19.2,27.4c-23.6,28.7-50.8,54.2-80.9,75.8c-12,8.6-14.6,22.7-17.9,36.1C78.4,477.1,80.2,475.8,81.6,474.1
							z"/>
						<path class="st2" d="M35.1,749.9c16.5-0.9,16.5-0.9,21.7-19.2C46.1,733.6,41.1,741.8,35.1,749.9z"/>
						<path class="st2" d="M89.2,584.8c-2.3,6.6-8.6,12.4-4.9,20.5C85.9,598.5,87.5,591.7,89.2,584.8z"/>
						<path class="st2" d="M39.2,373.6c-3.6-2.4-7.2-2.9-10.6-3.5c-9.7-1.8-19.2-4-28.6-6.7V374c7,0.6,14,0.9,21,0.9
							C26.8,374.9,32.8,375.9,39.2,373.6z"/>
						<path class="st2" d="M17.8,286.5c-4.4-0.9-8.6-1.9-12.9-2.8c-1.6-0.3-3.3-0.7-4.9-1.1v14.2C6.8,295.1,13,291.5,17.8,286.5z"/>
						<path class="st2" d="M69.3,449.4c-7.2-7.1-14.9-13-25.4-14c-14.6-1.3-29.3-1.4-44-0.3v17.3c24.6,1.2,49,3,69.7,19.9
							c0.6-4.4,2-8,1.4-11.4C70.6,457.1,73,453.1,69.3,449.4z"/>
						<path class="st2" d="M22.7,591.8c13.6-1.1,27.1-1.8,40.6,0.5c2.2,0.4,4.2,1.8,7.2,0.9c-3.9-11.5-9-21.3-21.8-25.3
							c-10-3.1-20-2.8-30.2-2.9c-6.3-0.2-12.3,2.5-18.6,2.7v29c1.5-0.4,3-0.7,4.6-1.1c5.2-1.2,10.4-3.7,16-1.8
							C21,592.8,21.5,591.9,22.7,591.8z"/>
						<path class="st2" d="M148.1,940.9c2,1,3.3-1.2,4.1-2.9c6.8-13.1,16.3-24.2,26.1-35c4.9-5.4,10.3-10.5,16-15.1v-19.8
							c-10.7,7.6-20.2,16.9-28.1,27.4c-9.1,11.9-18,24.2-19.1,40.1C147.1,937.6,146.2,940,148.1,940.9z"/>
						<path class="st2" d="M47.9,205.2c-0.1,0.6-0.2,1.2-0.1,1.9c5.5,21.9,3.2,43.3-4.4,64.4c-2.6,7.1-5.2,14.1-8.1,21.8
							c4.4-1,6.1-3.8,7.8-6.7c13.4-23.3,17.3-48.4,13.5-74.8c-0.4-2.7-0.1-6-3.4-7.6c-1.2-8.9-6.7-15-13.9-22.3
							C42.6,190.7,45.2,197.9,47.9,205.2z"/>
						<path class="st2" d="M177.1,218.2c-8.1-3.4-10.4-2.1-10.8,6.6c-1.5,33-8.8,64.7-23.8,94.2c-10.7,21-22.1,41.7-37.9,59.7
							C96.5,388,87.8,397,81.5,409c3.4-0.5,6.5-2,9-4.3c4.9-4.4,9.7-8.9,14.4-13.5c25.5-24.9,46.1-53.2,59.9-86.3
							c11.1-26.5,15.8-54,15.2-82.5C180,219.9,179,219,177.1,218.2z"/>
						<path class="st2" d="M61,178.9c-3-4-6.1-0.8-9.2-0.6c-1.7,0.1-2.2,1.2-1.6,2.6c2.9,7.4,5.9,14.7,8.9,22.1
							c-0.5,1.2-0.6,2.5-0.2,3.8c5.2,21.5,2.8,42.6-4.2,63.3c-3.5,10-7.7,19.7-12.5,29.1c3.1,1,4.4-1,5.7-2.4
							c4-4.4,7.6-9.2,10.6-14.3c9.9-16.5,15.3-35.2,15.8-54.4c0.3-9.9,1.3-19.8-1.8-29.4C70,191.3,65.7,185.1,61,178.9z"/>
						<path class="st2" d="M179.1,975.7c2.1,0.5,2.6-2.3,3.5-3.9c3.2-5.6,6.9-10.5,11.8-14.2v-21.2c-1.3,0.9-2.6,1.7-3.9,2.6
							c-11.1,7.5-10.3,20-12.6,31.1C177.6,972,176.4,975,179.1,975.7z"/>
						<path class="st2" d="M147.3,233.7c-1.2,8.9-3.6,17.4-6.2,25.9c-8.2,26.8-24.3,47.9-45.9,65c-11,8.7-22.7,16.4-35.7,21.9
							c-1.9,0.8-4.5,1.6-3.1,5.1c1.2,3,2.7,2.7,5.4,2.4c10.7-1.3,19.6-6.1,28.3-12.1c26.3-18.6,45.3-42.6,54.4-73.8
							c3.6-12,5.3-24.4,5.1-36.9C148.2,231.3,147.3,232.4,147.3,233.7z"/>
						<path class="st2" d="M184.5,1141.8c2.8,6.2,6.2,12.3,9.9,18v-146.5c-0.4-3.8-0.9-7.6-1.6-11.4c-0.3-1.4,0.5-3.4-1.6-3.6
							c-1.9-0.2-2.1,1.9-2.7,3.1c-3.9,9.4-7.2,19-9.8,28.7C168.1,1068,167.7,1105.3,184.5,1141.8z"/>
						<path class="st2" d="M26.2,887.8c7.7-3.9,16-6.3,24.6-8.1c12.9-2.8,23.3-12.9,37.9-12.4c-3-7.3-8.5-8.8-14.3-9.3
							c-20-1.8-37.5,5.6-54.4,14.9c-6.9,3.8-13.5,8-19.9,12.7v23.2C7.5,900.3,15.9,893,26.2,887.8z"/>
						<path class="st2" d="M133.6,922c3.8-2.8,3.2-7.7,5.2-11.3c10-18.1,20.7-35.9,34.4-51.4c6.4-7.3,13.5-14,21.3-19.8v-27.2
							c-9.3,5.2-17.6,12.1-24.5,20.2c-13,15-23.4,32-30.7,50.4c-4.1,10.5-7.9,21.2-7.8,32.7C131.5,917.9,130.9,920.3,133.6,922z"/>
						<path class="st2" d="M157.1,952.7c0.3,0.4,0.6,0.7,1,1.1l0.5-1.4c5.2-16.7,22.1-32,35.9-40.2v-19.6
							c-4.6,3.8-8.9,7.9-12.9,12.3c-11.4,12.4-22,25.2-25.8,42.2C155.2,949.5,155.1,951.2,157.1,952.7z"/>
						<path class="st2" d="M126.2,883.8c5.1-11.5,9.4-23.3,14.8-34.6c7.3-15.4,16.3-30,26.8-43.5c7.5-9.8,16.5-18.5,26.6-25.7v-11.9
							c-20.7,18.7-39.6,39.1-53.6,63.4c-9.2,15.8-16.6,32.5-19.2,50.9c-0.6,4.3-3,8.3-2.7,13.4C122.9,892.4,124.4,887.9,126.2,883.8
							z"/>
						<path class="st2" d="M165.4,890.9c8.3-10.3,18-19.4,29-26.8V844c-22.3,17.5-37.7,41-50.8,66.2c-2.8,5.7-4,12-3.5,18.3
							C148.8,916,155.9,902.7,165.4,890.9z"/>
						<path class="st2" d="M169.7,966.8c1.3-0.1,1.4-1.4,1.4-2.5c0.4-5.5,3.5-10,5.9-14.7c2.8-5.5,9.6-12.1,17.4-17.4v-15.5
							c-11.3,7.1-21.3,15.6-25.3,30.2c-1.7,5.6-2.3,11.6-1.7,17.4C167.6,965.5,168.1,966.9,169.7,966.8z"/>
						<path class="st2" d="M194.4,1193.8V1165c-7.6-10.7-13.6-22.4-18-34.8c-8.7-25-10.6-50.2-6.6-76.1c2.8-17.8,8.8-34.9,10.8-52.9
							c0.3-2.9,2.3-7.6-0.8-8.4c-2.9-0.7-3.9,4.4-5.1,7.2c-5.2,12.9-9.6,26.2-13.1,39.6c-4.9,18.8-10.2,37.7-11.6,57.1
							c-2.2,31.9,10.7,58.9,30.8,82.9C185.1,1184.6,188.3,1190.7,194.4,1193.8z"/>
						<path class="st2" d="M170.4,1183.4c4-2.1-0.1-3.8-0.9-5.3c-2.8-5.3-6.1-10.1-7.9-16c-1.8-6.2-3.9-12.4-6.4-18.4
							c-9-20.7-10.7-41.7-6.5-63.6c5.6-29.1,13.8-57.5,23.3-85.5c1.4-4,3.4-7.7,3-13.8c-6.5,7.2-10.3,14.1-14,21.7
							c-9,18.3-16.9,37.2-23.4,56.6c-10.1,30-12.1,60.1,0.2,90.2c5.4,13,13.2,24.8,22.9,34.9C164.2,1187.9,167.5,1185,170.4,1183.4z
							"/>
						<path class="st2" d="M190.2,1195.4c-4.1-3.7-8.9-8.4-14.1-7.3c-9.2,2-18.4,4.4-27.8,5.5c-11.9,1.3-22.8-1.9-33.2-7.4
							c-5.1-3.7-10.4-7.1-15.1-11.2c-6.2-5.5-12.4-7.9-19.9-2.9c-14.4,9-29,5.2-43.4,0.4c-15.1-5-25.6-16.7-36.6-27.4L0,1145v292.6
							h194.4v-239.7C193,1197.1,191.6,1196.3,190.2,1195.4z"/>
						<path class="st2" d="M7.7,173.9c9.1-7.4,16-8.3,26.2-2.6c5.1,2.8,9.6,5.4,15.8,1.8c3.9-2.1,8.7-1.7,12.1,1
							c3.4,2.6,7.2,2.5,11,1.2c13.8-4.9,27.1-0.9,40.5,2.1c9.6,2.1,18.8,5.1,26.6,11.6c4.6,3.9,8.4,8.1,10.6,14
							c1.8,5,7,6.6,11.7,7.9c6.1,1.6,12.4,2,18.5,3.7c4.8,1.3,9.5,3.2,13.8,5.8V0H0v178.8C3.1,178,5.4,175.8,7.7,173.9z"/>
						<path class="st2" d="M155,1187.3c0.3-0.1,0.6-0.3,1.3-0.6c-5.5-7.2-10.5-14.9-14.8-22.9c-12.9-23.3-18.1-47.9-14.7-74.2
							c2.2-16.9,7.5-32.9,13.7-48.8c8.3-21.3,18.8-41.8,25-64.3c-4.6,0.5-7.2,4.1-10,7c-12.9,13.3-21.9,28.9-28.9,46
							c-8.5,20.4-14.3,41.8-17.3,63.7c-3.9,30.2,1.2,58.5,21,83C136.7,1184.3,143.1,1191.4,155,1187.3z"/>
						<path class="st2" d="M20.3,173.4c-6.6,1.4,1.1,4.8-0.5,7.1c-0.1,0.1-0.3,0.2-0.4,0.3c1.7,2,4.9,3.5,2.1,6.9
							c3.4,0.8,4.3,2.7,2.7,5.8c3,1.6,4,3.9,2.1,7c3.3,0.9,3.8,2.6,1.6,5.2c3.9,0.3,1.9,4.5,3.9,6.1c3.7,24.1,3.3,47.9-3.6,71.4
							c-0.3,1-0.6,2.7,1.5,3.2c5.8-6.4,10.1-14.1,12.5-22.4c5.7-19.2,7.2-38.5,2.1-58.1c-2-10.3-6.9-19.4-11.6-28.7
							C29.3,170.6,24.6,172.5,20.3,173.4z"/>
						<path class="st2" d="M135.2,1189.1c-3.4-5-5.8-8.9-8.7-12.5c-11-14-18.4-29.8-20.7-47.2c-5-38.2,5.6-74,20-108.8
							c7.2-17.4,19.4-31.6,31.3-45.8c1.8-2.2,5.9-4.5,3.5-7.2c-2.1-2.4-5.5,1.1-7.8,2.6c-7.1,5-11.6,12.4-15.7,19.8
							c-8.5,15.1-15.2,31-21.6,47c-6.3,15.7-13.1,31.2-18,47.4c-4.3,14.1-6.8,28.6-6.3,43.3c0.7,19.4,9.1,35.9,21.2,50.7
							C118.1,1185.3,125.4,1187.7,135.2,1189.1z"/>
						<path class="st2" d="M4.1,183.4c-1.5,0.6-2.9,1.6-4.1,2.7v40.7l2.6,3.7c6.7,14.4,12.6,29.2,20.5,44.1
							c9.9-20.3,8.7-40.3,4.6-60.5c1.5-2.8-2.6-5.7,0-8.5c-2.6-1.1-3.1-2.8-1.5-5.2c-3.1-1.6-3.5-4-2.1-7c-3.3-0.8-2.9-3.4-2.7-5.8
							c-2.9-1.6-3.5-4-2.2-6.9c-1.4-0.2-11.3,1.2-12.6,1.8C5.8,182.9,4.9,183.1,4.1,183.4z"/>
						<path class="st2" d="M52.9,1172.9c-4.1-4.9-8-9.2-11.5-13.8c-3.7-4.8-7.1-10-10.7-15c0.2-1.4-0.8-1.7-1.8-2.1l0,0v-0.1l0,0
							c0.6-1.8-0.7-3.2-1.3-4.7c-4.4-11-6.7-22.5-5.3-34.3c4.1-33.7,17-64.7,31.4-95c7.9-17,17.4-33.2,28.3-48.5
							c11.1-15.3,23.2-29.1,39.8-38.7c0.9-0.5,2.8-0.4,2.3-2.4s-2-1.1-3.1-1.3c-14-2.3-23.4,5.8-32,14.7c-14.3,14.8-27,31-38.1,48.3
							c-10.3,15.7-19,32.3-25.9,49.8c-8.6,21.5-13.9,44.1-15.9,67.2c-0.7,9-3.5,18-0.9,27.1C8.9,1143.7,15.8,1168.2,52.9,1172.9z"/>
						<path class="st2" d="M73.3,1168.7c2-1,4.4-1.3,6.1-3.6c-25.5-18.6-35-44.3-33-74.8c1.9-28.7,12.9-54.7,25-80.3
							c5.1-11.1,11.1-21.7,18-31.7c13.1-18.7,26.8-36.2,52.7-36.1c-1.7-2.2-3.6-4.2-4.9-6.7c-3.2-6-8.5-7.1-14.5-7.4
							c-5.8-0.3-10,3-13.8,6.3c-14.8,12.4-25.9,28.1-35.4,44.6c-10.7,18.6-20.8,37.6-28.2,57.9c-3.7,10.2-8.5,20.1-11.4,30.6
							c-4.8,17.3-10.2,34.6-7.5,52.8c1.6,11.1,4.8,22,13.1,30.3c3.2,7.5,9.6,12,15.3,17.2C61.1,1173.5,66.4,1173.8,73.3,1168.7z"/>
						<path class="st2" d="M97.3,1168.5c-6-13-8.3-25.2-9.1-37.7c-1.8-29.4,7.4-56.4,18.8-82.9c5.8-13.5,11.6-26.9,17.5-40.3
							c6.1-13.7,12.5-27.1,21.3-39.1c9.6-13,9.4-14.2-6.3-18.1c-9.4-2.4-17.8-1.6-25.7,5c-9.5,7.9-16.5,17.5-23.2,27.6
							c-10.3,15.5-18.5,32.2-25.7,49.2c-7,16.4-11.7,33.6-14.1,51.3c-3.6,27.6,1.7,52.1,21.6,72.3c3.2,3.2,6,8.3,10.6,8.4
							S91.8,1165.5,97.3,1168.5z"/>
						<path class="st2" d="M125.8,910.1c6-21.3,15.5-41.2,26.8-60.1c10.3-17.4,23.7-32.1,41.9-41.7l0,0v-23.7
							c-12.8,9.6-23.7,21.4-32.4,34.9c-8.7,13.2-16.2,27.2-22.5,41.6c-6.4,14.6-10.6,29.9-15.5,44.9
							C123.4,907.8,122.9,909.2,125.8,910.1z"/>
						<path class="st2" d="M81.6,875.8c-11.3,0.9-22,4.7-32.8,7.6c-11.8,3.1-23.2,7.1-32.8,15.2c-5.7,4.9-11.1,10.2-16,15.8v33.7
							c16.7-19.3,35.3-36.3,58-48.9c12-6.7,24.7-12.7,39.3-10.5c5.2,0.8,4.8-2,3.2-5.2C96.3,875.7,89.1,875.2,81.6,875.8z"/>
						<path class="st2" d="M131.7,794.9c15.9-25.3,32.5-49.7,56.9-67.7c1.9-1.4,3.9-2.8,5.8-4.1V696
							c-57.6,36.9-85.6,92.5-94.2,160.5c3.2-5.3,5.5-11.2,8.3-16.8C116.1,824.8,122.6,809.3,131.7,794.9z"/>
						<path class="st2" d="M194.4,973.7v-8.7c-2.5,3.4-4.1,7.3-4.8,11.4C191.2,975.6,192.8,974.7,194.4,973.7z"/>
						<path class="st2" d="M70.7,604.5C58,593,42.7,592.8,27,594.2c-2.2,0.2-4.3,1.6-6.4-0.2c-0.8,2.6-3.3,2.2-5.1,2.6
							c-5.2,1.1-10.4,2.4-15.6,3.7v16.1c6.9-2.3,14-4.2,21.1-5.7c16.5-3.3,32.9-5,48.1,4.8c3.4,2.2,7.2,3.9,10.8,5.8
							C77.6,614.9,75.6,608.9,70.7,604.5z"/>
						<path class="st2" d="M73.7,523c4.4-6.2,8.9-12.1,13-18.2c14.4-21.9,30.6-42.7,48.4-62c16.3-17.6,34.8-32.9,52.5-49l6.8-6.2
							v-23.7c-25.8,30.8-54.2,59.1-84.1,86.1c-12.9,11.7-25,23.9-31,41.1C75.8,501.4,71.7,511.5,73.7,523z"/>
						<path class="st2" d="M193.3,993.1c0.3,0.2,0.7,0.4,1.1,0.4v-15.4l-1.9,1.2c-2,1.3-3.8,3.1-4.1,5.5
							C187.9,988.8,190.3,991.2,193.3,993.1z"/>
						<path class="st2" d="M91.4,857.2c1.3-0.4,2.4-2.4,2.9-3.8c2.1-6.7,4.3-13.3,5.8-20.1c4.6-20.7,10.6-40.8,20.1-59.9
							c12.2-24.9,29.5-46.9,50.8-64.7c7.4-6.1,15.7-10.9,23.4-16.5V662c-2.9,1.5-5.8,3.2-8.6,4.9c-6.9,4.3-14.9,7.5-19.6,14.7h0.1
							l-1.7,0.5c-1.2,0.6-2.3,1.2-3.3,2c-14.9,13.5-28.1,28.6-38.5,45.7c-21.5,34.9-34.1,74.6-36.5,115.6c-0.2,3.3-0.2,6.4,2.3,8.8
							C89.6,855.3,89.8,857.8,91.4,857.2z"/>
						<path class="st2" d="M139,443.9c-14.8,16-28.6,32.9-41.3,50.6c-9.3,13-18.6,26.1-22.7,41.9c-1.7,6-1.8,12.4-0.3,18.4
							c13.4-22.4,26.1-44.3,40.2-65.4c7.5-11.1,15.7-21.6,24.6-31.5c16.8-18.6,36.8-33.8,54.9-51.2v-14.4c-2,1.8-4,3.6-5.9,5.5
							C172,413.2,154.4,427.4,139,443.9z"/>
						<path class="st2" d="M82.3,590.3c0.5-1.4,0.6-2.9,1.1-4.3c8.1-22.1,18.8-43.1,30.2-63.6c5.1-9.1,11.2-17.6,18.1-25.4
							c9.5-10.8,20.3-20.2,31.5-29.4c10.6-8.7,20.9-17.9,31.2-27v-28.8l-2.8,2.6c-17.9,17.2-38,32.1-53.8,51.4
							c-9.9,12.2-20.8,23.7-27.9,38c-3.7,7.4-10,13.5-13.3,21c-7,16.3-16.5,31.6-18.3,50c-0.6,6.5-0.8,12.4,1.7,19.4
							C80.9,593,81.7,591.7,82.3,590.3z"/>
						<path class="st2" d="M29.6,944.5c6.6-12.4,14.8-23.8,25.9-32.5c14.5-11.4,32.1-13.4,49.5-14.8c-6.6-4.6-15.8-5.7-25-3.3
							c-14.8,3.8-27.3,11.5-39.1,20.8C26,926.3,12.3,939.3,0,953.6v48.5c6.8-15.8,14.3-31.4,22.1-46.8
							C24.1,951.3,27.5,948.5,29.6,944.5z"/>
						<path class="st2" d="M43.2,610.9C28,611.2,14,615.4,0,620.2v6.8c2.6-1.2,5.2-2.2,8-3.2c16.2-5.5,32.5-9.8,49.8-7.3
							c2.3,0.3,5.4-1,7.4,2.6c-4.7-0.2-8.6-0.5-12.5-0.6C34,618.2,16.5,623,0,630.3v13.4c5.6-3,11.2-5.9,16.9-8.5
							c17.3-7.8,34.7-13.6,54.3-8c4.8,1.4,8.8,5.3,15.9,5.2c-7-7.8-14.9-12.4-22-17.3C59.2,611.2,50.9,610.8,43.2,610.9z"/>
						<path class="st2" d="M31.6,322.9c-3.7,0.9-7.5,1.8-11.2,2.6c-6.7,1.4-13.6,2.1-20.4,2.3v12.6c1.1,0.3,2.3,0.6,3.4,0.8
							c10.9,2.5,22.1,4.9,33.3,1c5.9-2,6.8-7.9,3.8-17.7C38.3,317.6,34.8,322.1,31.6,322.9z"/>
						<path class="st2" d="M24.4,298.7c-5.2,4.1-11.5,5.3-17.1,8.2c-2.4,1.2-4.8,2.3-7.2,3.3v14.5c9.4-0.4,18.5-2,26.9-7.6
							c8.8-5.9,8.7-5.5,4.6-15.2C29.9,297.9,26.5,297,24.4,298.7z"/>
						<path class="st2" d="M151,794.2c14.3-15.1,29.3-29.7,43.5-45v-22c-1.7,1.2-3.4,2.5-5.1,3.8c-22,17.2-38.1,39.2-52.8,62.8
							c-12,19.3-20.9,40-30.4,60.5c-3.4,7.3-2.7,15.4-2.4,23.4c6.5-17.1,15.1-33,23.4-49.1C133.7,816.1,141.3,804.4,151,794.2z"/>
						<path class="st2" d="M19.1,291c-5.7,4.2-12.2,7.2-19.1,8.9v6.5c3.7-1.7,7.3-3.5,10.9-5.4c5.5-2.9,10.1-7.2,13.4-12.5
							C21.6,288,20.5,289.9,19.1,291z"/>
						<path class="st2" d="M13.3,1026.8c9.8-15.5,16.9-32.2,24.7-48.5c6-12.5,12.7-24.5,20.2-36.2c11.6-18.4,30.1-28.5,47.9-39.5
							c-3.6-3.8-8-1.9-11.9-1.2c-16.1,2.8-31.7,6.4-43.3,19.5c-9.6,10.8-17.1,23-24.6,35.2c-9.5,15.6-16.5,32.6-23.7,49.3
							c-0.9,2-1.7,4-2.5,6v43.2C3.3,1044.9,7.8,1035.5,13.3,1026.8z"/>
						<path class="st2" d="M70.2,422.8c-0.6-5.4-3.3-8-9.2-8.3c-19.3-1-38.5,0.6-57.8,0.5H0v17.4c4.2-0.3,8.4-0.5,12.6-0.7
							c15-0.5,30.1-0.4,45,2.9c4.8,1.1,9.9,7.2,13.3,3.6c2.4-2.5-0.2-9.7-0.6-14.8C70.2,423.3,70.2,423.1,70.2,422.8z"/>
						<path class="st2" d="M50.3,351c-1.2-3.9-3.7-5.1-7.7-4.6c-10.2,1.4-20.5,1.1-30.5-0.9C8,344.7,4,343.8,0,342.8v18
							c6.1,1.7,12.3,3.3,18.5,4.6c10.3,2.1,20.6,5.1,31.4,4.6c5-0.3,7.9-1,4.9-6.9C53,359.1,51.5,355.1,50.3,351z"/>
						<path class="st2" d="M52.5,402.7c-16.5,2.7-33,2.2-49.5,1.6L0,404.2v8c11.2-0.2,22.5-0.6,33.8-0.8c9.5-0.2,19-1.5,28.6-2
							c2-0.1,4,0.9,4.7-1.7c0.8-3,0.2-6.1-1.6-8.6c-1.3-1.8-2.8,0.9-4.3,1.4C58.3,401.4,55.4,402.1,52.5,402.7z"/>
						<path class="st2" d="M129.4,308.3c-0.6,0.5-1.2,1-1.7,1.6C113.1,331.1,92.6,345.3,71,358c-6.3,3.7-8.6,7.3-7.1,14.4
							c0.7,2.9,1.6,5.8,2.6,8.6c1.8,5,5.5,5.8,9.7,2.2C100,362.7,116.6,336.9,129.4,308.3z"/>
						<path class="st2" d="M58.1,379.3c-11.4-0.2-22.7-1.9-34.2-1.8c-8,0.1-16-0.2-23.9-0.8v24.8l2.5,0.1
							c16.4,1.1,32.5,0.1,47.9-6.6c3.9-1.7,7.6-3.7,10.2-7.2C62.8,384.8,61.2,379.4,58.1,379.3z"/>
					</g>
				</g>
			</g>
		</g>
	</g>
</g>
</svg>
