<?xml version="1.0" encoding="UTF-8"?><svg id="Layer_2" xmlns="http://www.w3.org/2000/svg" viewBox="0 0 4275.64 1759.04"><g id="Camada_1"><g><g><path fill="#944B20" d="M1430.98,294.01L1014.13,53.35c-123.2-71.13-274.99-71.13-398.19,0L199.1,294.01C75.9,365.14,0,496.6,0,638.86v481.33c0,142.26,75.9,273.71,199.1,344.84l416.84,240.66c123.2,71.13,274.99,71.13,398.19,0l416.84-240.66c123.2-71.13,199.1-202.58,199.1-344.84v-481.33c0-142.26-75.89-273.71-199.1-344.85Zm122.97,803.7c0,128.97-68.81,248.15-180.5,312.64l-377.91,218.19c-111.69,64.49-249.31,64.49-361,0l-377.91-218.19c-111.69-64.49-180.5-183.66-180.5-312.64v-436.37c0-128.97,68.81-248.15,180.5-312.64l377.91-218.19c111.69-64.49,249.31-64.49,361,0l377.91,218.19c111.69,64.49,180.5,183.66,180.5,312.64v436.37Z"/><path fill="#944B20" d="M1317.32,402.05l-25.81-14.9c29.19,81.74,45.06,166.85,46.39,255.53,.03,1.84,.16,49.07-.05,55.46-.56,15.42-1.52,30.8-2.98,46.16-4.65,48.87-13.87,96.87-27.37,144.03-26.94,94.1-69.59,180.48-127.22,259.62-62.74,86.15-143.05,149.55-242.18,188.85-43.42,17.21-88.45,28.15-134.87,33.58-38.86,4.54-77.73,5.1-116.57,.85-97.05-10.61-184.76-45.02-262.91-103.77-38.9-29.24-71.08-64.31-95.42-106.51-22.01-38.18-36.46-79.01-42.26-122.71-12.52-94.22,9.61-179.39,68.42-254.32,34.81-44.35,80.2-72.33,136.22-80.77,57.03-8.59,109.34,4.04,155.96,38.78,24.8,18.48,42.62,41.83,50.29,71.97,10.67,41.93,3.04,80.18-25.48,113.36-22.27,25.9-58.87,33.09-88.05,17.79-4.27-2.24-8.41-4.71-12.32-8.79,7.5,2.74,14.24,5.59,21.58,6.46,23.58,2.79,43.66-4.3,57.34-23.77,26.79-38.14,20.02-89.35-12.93-118.09-13.53-11.8-29.48-19.35-46.59-24-48.4-13.17-92.6-5.14-131.4,27.63-13.46,11.37-23.42,25.58-31.86,40.93-21.67,39.39-32.19,81.63-28.78,126.39,5.79,75.99,40.56,135.31,105.52,176.2,39.93,25.13,82.94,42.76,129.2,52.13,38.9,7.88,78.07,9.93,117.65,5.58,59.94-6.6,115.21-26.04,165.74-58.86,42.9-27.86,78.08-63.48,106.72-105.86,43.44-64.28,75.18-133.77,94.36-208.95,8.42-33.02,14.03-66.52,17.21-100.47,3.41-36.45,3.79-72.9,.9-109.36-8.9-112.23-43.68-215.74-105.23-310.14-32.95-50.53-72.14-95.31-117.18-134.53-86-27.33-180.73-17.91-260.7,28.26l-339.93,196.26c-100.47,58.01-162.36,165.2-162.36,281.21v392.51c0,116.01,61.89,223.21,162.36,281.21l339.93,196.26c100.47,58.01,224.25,58.01,324.72,0l339.93-196.26c100.47-58.01,162.36-165.2,162.36-281.21v-392.51c0-116.01-61.89-223.21-162.36-281.21Z"/></g><g><g><path fill="#944B20" d="M2411.42,476.59v-115.81h296.44v115.81l-46.67,19.01c-9.51,4.32-15.56,13.83-15.56,24.2v532.37h-225.57l-222.97-477.93v318.91c0,10.37,6.05,19.88,15.56,24.2l44.94,19.01v115.81h-294.71v-115.81l44.94-19.01c9.51-4.32,15.56-13.83,15.56-24.2v-373.35c0-10.37-6.05-19.88-15.56-24.2l-44.94-19.01v-115.81h288.66l221.25,474.47v-315.45c0-10.37-6.05-19.88-15.56-24.2l-45.8-19.01Z"/><path fill="#944B20" d="M3226.39,919.94c0,7.78,5.19,14.69,12.1,18.15l47.53,20.74v93.34h-219.52v-50.13c-35.43,38.89-83.83,58.77-143.46,58.77-127.04,0-220.38-93.34-220.38-268.78s93.34-267.05,221.25-267.05c61.36,0,108.03,19.88,142.6,61.36v-52.72h159.88v386.32Zm-159.88-63.95v-120.13c-14.69-44.08-48.4-68.27-93.34-68.27-61.36,0-106.3,44.08-106.3,127.91s44.94,128.77,106.3,128.77c42.35,0,78.65-25.93,93.34-68.28Z"/><path fill="#944B20" d="M3663.82,664.99c0-7.78-4.32-15.56-12.1-19.01l-46.67-19.88v-92.47h215.2v388.04c0,7.78,4.32,14.69,11.23,18.15l47.53,20.74v92.47h-215.2v-51.85c-31.98,36.3-74.32,61.36-133.09,61.36-120.13,0-184.95-73.46-184.95-216.06v-181.49c0-7.78-4.32-15.56-11.24-19.01l-46.67-19.88v-92.47h214.33v272.24c0,90.75,25.06,129.64,81.24,129.64,38.03,0,64.82-29.38,80.37-65.68v-204.83Z"/><path fill="#944B20" d="M3953.6,532.76v-146.06h156.43v146.06h130.5v89.02l-130.5,25.93v178.03c0,59.63,22.47,88.15,55.31,88.15,20.74,0,45.8-16.42,72.6-26.79l17.28,138.28c-48.4,17.28-91.61,35.43-129.64,35.43-107.17,0-171.98-78.65-171.98-238.53v-174.58l-76.05-25.93v-89.02h76.05Z"/></g><g><path fill="#944B20" d="M1961.05,1167.9v-7.13h45.41l71.32,149.3,70.84-149.3h45.41v7.13l-20.44,3.8c-2.85,.71-4.75,2.85-4.75,5.71v156.9c0,2.85,1.9,4.99,4.75,5.71l20.44,3.8v7.13h-63.24v-7.13l20.21-3.8c2.85-.71,4.75-2.85,4.75-5.71v-158.81l-71.32,150.01h-13.79l-71.08-150.01v158.81c0,2.85,1.9,5.23,4.75,5.71l19.97,3.8v7.13h-63.24v-7.13l20.44-3.8c2.85-.71,4.75-2.85,4.75-5.71v-156.9c0-2.85-1.9-4.99-4.75-5.71l-20.44-3.8Z"/><path fill="#944B20" d="M2342.61,1336.93c0,2.14,1.43,3.8,3.57,4.04l21.63,1.9v8.08h-37.8v-28.53c-10.22,18.07-29.95,29.48-53.01,29.48-36.85,0-65.14-28.77-65.14-73.22s28.29-71.56,65.14-71.56c23.06,0,42.79,11.17,53.01,29.72v-29h12.6v129.09Zm-12.6-36.61v-41.84c-6.66-24.25-25.68-39.7-50.64-39.7-30.9,0-54.92,24.49-54.92,60.15s24.01,61.57,54.92,61.57c24.96,0,43.98-15.69,50.64-40.18Z"/><path fill="#944B20" d="M2413.46,1340.73c2.14-.24,3.57-1.9,3.57-4.04v-114.35c0-2.14-1.43-3.8-3.57-3.8l-21.87-2.14v-8.08h37.8v48.5c10.7-33.04,33.52-53.01,69.42-48.97v12.6c-49.21-5.71-64.66,33.28-69.42,75.12v41.13c0,2.14,1.43,3.8,3.8,4.04l21.63,1.9v8.32h-63.24v-8.32l21.87-1.9Z"/><path fill="#944B20" d="M2505.46,1168.85v-8.08h38.04v111.73h22.82l46.36-49.92c2.14-2.14,1.43-3.8-1.43-4.04l-21.16-1.9v-8.32h63.95v8.32l-17.12,1.9c-2.85,.24-5.94,1.9-8.08,4.04l-52.06,55.39,49.69,58.96c1.9,2.14,4.99,3.8,7.85,4.04l20.21,1.9v8.08h-32.33l-56.34-67.75h-22.35v67.75h-38.04v-8.08l20.68-1.9c2.85-.24,4.75-2.38,4.75-5.23v-159.76c0-2.85-1.9-4.99-4.75-5.23l-20.68-1.9Z"/><path fill="#944B20" d="M2792.41,1278.45v9.27h-118.15c3.8,31.86,24.96,52.06,54.68,52.06,26.15,0,43.03-13.08,53.25-27.34l3.8,10.46c-12.6,15.69-29.48,28.05-58.72,28.05-38.27,0-66.33-28.05-66.33-71.79s29-70.61,66.33-70.61c42.79,0,65.14,30.43,65.14,69.89Zm-11.17-.95c0-32.57-17.83-58.24-53.73-58.24-32.57,0-53.01,25.68-53.73,58.24h107.46Z"/><path fill="#944B20" d="M2828.07,1208.08v-44.93h12.6v44.93h52.54v10.7h-52.54v73.94c0,35.42,5.71,48.26,23.3,48.26,7.85,0,17.35-2.14,30.19-6.42l2.62,11.89c-14.74,4.28-26.15,6.89-35.66,6.89-24.49,0-33.04-17.12-33.04-60.86v-73.7h-26.63v-10.7h26.63Z"/><path fill="#944B20" d="M2952.65,1335.5c0,2.85,1.9,5.23,4.99,5.47l20.45,1.66v8.32h-63.47v-8.32l20.45-1.66c3.09-.24,4.99-2.61,4.99-5.47v-111.97c0-3.09-1.9-5.47-4.99-5.71l-20.45-1.66v-8.32h38.04v127.66Zm3.33-162.61c0,7.61-5.71,11.41-14.03,11.41s-14.03-3.8-14.03-11.41,5.71-11.89,14.03-11.89,14.03,4.04,14.03,11.89Z"/><path fill="#944B20" d="M3138.55,1336.69c0,2.14,1.43,3.8,3.57,4.04l21.63,1.9v8.32h-37.8v-82.49c0-34-15.69-50.64-42.08-50.64-24.25,0-38.04,20.21-43.98,39.94v78.93c0,2.14,1.43,3.8,3.57,4.04l21.87,1.9v8.32h-63.47v-8.32l21.87-1.9c2.14-.24,3.57-1.9,3.57-4.04v-114.35c0-2.38-1.43-3.8-3.57-4.04l-21.87-1.9v-8.32h38.04v28.29c8.8-15.93,23.06-29.48,46.12-29.48,32.33,0,52.54,20.44,52.54,59.67v70.13Z"/><path fill="#944B20" d="M3214.63,1292c-9.99-7.85-15.45-19.26-15.45-34.95,0-33.04,19.97-49.21,56.11-48.97l79.4,.48v10.94l-45.88-.48c13.31,6.66,20.21,20.21,20.21,38.04,0,27.81-18.78,46.6-53.25,46.6-12.6,0-23.06-2.38-31.38-6.66-4.99,8.8-4.99,19.97,0,28.29,8.56-1.66,18.07-2.61,28.77-2.61,38.51,0,65.61,10.22,65.61,36.14,0,29.24-28.05,39.46-65.38,39.46s-65.85-10.22-65.85-39.46c0-16.17,9.98-25.44,25.67-30.91-5.94-11.17-5.47-25.91,1.43-35.9Zm38.75,41.37c-28.29,0-52.78,4.75-52.78,26.15s24.49,28.29,52.78,28.29,52.3-6.66,52.3-28.29c0-18.31-19.97-26.15-52.3-26.15Zm1.9-115.06c-29.24,0-43.74,12.84-43.74,38.75,0,24.25,19.02,36.37,43.74,36.37,28.05,0,41.37-16.64,41.37-36.37,0-22.82-11.65-37.8-41.37-38.75Z"/><path fill="#944B20" d="M3432.39,1339.78c2.85-.71,4.75-2.85,4.75-5.71v-156.67c0-2.85-1.9-4.99-4.75-5.71l-20.44-3.8v-7.13h86.3c51.11,0,90.34,31.86,90.34,94.62s-39.23,95.57-90.34,95.57h-86.3v-7.37l20.44-3.8Zm18.07-167.13v166.41h47.78c43.98,0,77.02-28.05,77.02-83.68s-33.04-82.73-77.02-82.73h-47.78Z"/><path fill="#944B20" d="M3644.45,1335.5c0,2.85,1.9,5.23,4.99,5.47l20.45,1.66v8.32h-63.47v-8.32l20.44-1.66c3.09-.24,4.99-2.61,4.99-5.47v-111.97c0-3.09-1.9-5.47-4.99-5.71l-20.44-1.66v-8.32h38.04v127.66Zm3.33-162.61c0,7.61-5.71,11.41-14.03,11.41s-14.03-3.8-14.03-11.41,5.71-11.89,14.03-11.89,14.03,4.04,14.03,11.89Z"/><path fill="#944B20" d="M3720.76,1292c-9.99-7.85-15.45-19.26-15.45-34.95,0-33.04,19.97-49.21,56.11-48.97l79.4,.48v10.94l-45.88-.48c13.31,6.66,20.21,20.21,20.21,38.04,0,27.81-18.78,46.6-53.25,46.6-12.6,0-23.06-2.38-31.38-6.66-4.99,8.8-4.99,19.97,0,28.29,8.56-1.66,18.07-2.61,28.77-2.61,38.51,0,65.61,10.22,65.61,36.14,0,29.24-28.05,39.46-65.38,39.46s-65.85-10.22-65.85-39.46c0-16.17,9.98-25.44,25.67-30.91-5.94-11.17-5.47-25.91,1.43-35.9Zm38.75,41.37c-28.29,0-52.78,4.75-52.78,26.15s24.49,28.29,52.78,28.29,52.3-6.66,52.3-28.29c0-18.31-19.97-26.15-52.3-26.15Zm1.9-115.06c-29.24,0-43.74,12.84-43.74,38.75,0,24.25,19.02,36.37,43.74,36.37,28.05,0,41.37-16.64,41.37-36.37,0-22.82-11.65-37.8-41.37-38.75Z"/><path fill="#944B20" d="M3896.68,1335.5c0,2.85,1.9,5.23,4.99,5.47l20.45,1.66v8.32h-63.47v-8.32l20.45-1.66c3.09-.24,4.99-2.61,4.99-5.47v-111.97c0-3.09-1.9-5.47-4.99-5.71l-20.45-1.66v-8.32h38.04v127.66Zm3.33-162.61c0,7.61-5.71,11.41-14.03,11.41s-14.03-3.8-14.03-11.41,5.71-11.89,14.03-11.89,14.03,4.04,14.03,11.89Z"/><path fill="#944B20" d="M3956.59,1208.08v-44.93h12.6v44.93h52.54v10.7h-52.54v73.94c0,35.42,5.71,48.26,23.3,48.26,7.84,0,17.35-2.14,30.19-6.42l2.61,11.89c-14.74,4.28-26.15,6.89-35.66,6.89-24.49,0-33.04-17.12-33.04-60.86v-73.7h-26.63v-10.7h26.63Z"/><path fill="#944B20" d="M4162.71,1336.93c0,2.14,1.43,3.8,3.57,4.04l21.63,1.9v8.08h-37.8v-28.53c-10.22,18.07-29.95,29.48-53.01,29.48-36.85,0-65.14-28.77-65.14-73.22s28.29-71.56,65.14-71.56c23.06,0,42.79,11.17,53.01,29.72v-29h12.6v129.09Zm-12.6-36.61v-41.84c-6.66-24.25-25.67-39.7-50.64-39.7-30.91,0-54.92,24.49-54.92,60.15s24.01,61.57,54.92,61.57c24.96,0,43.98-15.69,50.64-40.18Z"/><path fill="#944B20" d="M4211.69,1169.09v-8.32h38.27v174.73c0,2.85,1.9,4.99,4.75,5.23l20.92,1.9v8.32h-63.95v-8.32l20.92-1.9c2.85-.24,4.75-2.38,4.75-5.23v-159.28c0-2.85-1.9-4.99-4.75-5.23l-20.92-1.9Z"/></g></g></g></g></svg>
