<svg xmlns="http://www.w3.org/2000/svg" viewBox="0 0 378.93 436.65"><defs><style>.cls-1,.cls-2{fill:#3c5945;}.cls-2{font-size:51.02px;font-family:BellamoraFreePersonalUse-Reg, Bellamora Free Personal Use;}</style></defs><g id="Camada_2" data-name="Camada 2"><g id="Camada_1-2" data-name="Camada 1"><path class="cls-1" d="M158,416A128.6,128.6,0,0,1,110.64,407c-42.36-16.7-73.84-56.1-86.37-108.12a1,1,0,0,1,1.95-.46c12.36,51.37,43.4,90.26,85.15,106.72,39.84,15.7,85.29,10.21,128-15.45S317,321.13,337.56,269c15.86-40.25,21.77-82.55,17.11-122.34a1,1,0,0,1,2-.23c4.7,40.11-1.26,82.75-17.24,123.3-20.71,52.55-55.88,95.77-99,121.71C213.33,407.69,185.17,416,158,416Z"/><path class="cls-1" d="M72,282.69l0,0h0Z"/><path class="cls-1" d="M200.12,347.37v0h0Z"/><path class="cls-1" d="M230.21,317.68l.06,0v0Z"/><path class="cls-1" d="M71.48,305.53v0h0Z"/><path class="cls-1" d="M164.19,160.41h-.05Z"/><path class="cls-1" d="M202.21,183v0h0Z"/><path class="cls-1" d="M228.38,186.72l0,0h0Z"/><path class="cls-1" d="M145.8,196.11l0,0,0,0Z"/><path class="cls-1" d="M295.16,25.14a7.48,7.48,0,0,1-3.47-.5,5,5,0,0,0-4.54,0c-2.67,1.13-5.44,2-7.93,3.82-.78-5.82-2-7.4-6.1-8a9.93,9.93,0,0,0-5.52.79,67.44,67.44,0,0,1-8.31,2.65c-5.06,1.5-10.2,3-13.8,7.34-1.23,1.49-2.82,2.68-4.2,4.06-3.23,3.23-7.25,4.07-11.5,3.32A19.06,19.06,0,0,0,218.35,40c-5.27,2.3-8.43,6-9.26,11.8-.72,4.91-2,9-7.92,10.9-5.39,1.69-9.49,6.24-13.87,9.92a12.83,12.83,0,0,0-4.62,8.69,8,8,0,0,1-.35,8c-1.59,2.74-1.58,6.07-1.05,9.19a3.16,3.16,0,0,1-.81,2.74c-1.5,2-3.26,3.86-5.63,4.5-6.68,1.82-9.12,6.94-10.61,12.9-.74,2.94-1.39,5.91-2,8.87-.36,1.66-1.82,2-3,2.67a35.48,35.48,0,0,0-8,5.75c-.86,1.49-1.81,2.92-2.56,4.49a34.63,34.63,0,0,0-3.09,14.71c-.12,7.28.19,14.45,3.19,21.21,2.59,5.81,5.31,11.58,9.94,16.16,3.25,3.08,6.66,5.92,11.11,7.29a10,10,0,0,1-4.24,4c-1.81,1.13-3.32-.17-4.7-1.13s-2.37-2.07-3.62-3a10.79,10.79,0,0,0-7.46-2.31,6,6,0,0,1-4-1.22.32.32,0,0,1-.53-.13,5.11,5.11,0,0,1-1.33-.47,23.45,23.45,0,0,0-15.22-4c-9.61.74-19.38-.17-28.84,2.94-6.24,2.06-11.42,5.05-15.09,10.57a27.53,27.53,0,0,1-6.17,7.06,55.85,55.85,0,0,0-9.79,10.12c-2.32,2.91-4.54,6.18-4.32,10,.37,6.2-1.47,12.28-.62,18.47a3.26,3.26,0,0,1-.59,2c-1.64,2.6-3.38,5.13-5.07,7.7-2.53,3.82-5.21,7.72-4.69,12.54a24.46,24.46,0,0,0,9.51,17.41c1,.76,1.39,1.31.95,2.68-.69,2.14-1.67,4.3-1.44,6.62.57,5.66.81,11.46,3.91,16.48,3,4.76,6.19,9.34,12.42,10.18,3.3.37,4.51,2.5,5,5.53.34,2.29,1.08,4.51,1.64,6.77a21.25,21.25,0,0,0,7.7,10c2.94,1.92,6.12,3.39,9.21,5,1.72.9,2,3.39,2.28,5.41a23.41,23.41,0,0,0,5,9c3.13,3.3,7.08,4.85,11.32,6,3.42.89,7.14,1.08,9.61,4.19a38.5,38.5,0,0,0,6.11,5.86,7,7,0,0,0,6.06,1.84,58.59,58.59,0,0,0,6.66-1.34c6.19-1.94,12.24-4.14,16.71-9.19.84-1,1.46-1.07,2.49-.17,5.69,5,12.29,5,19.06,3A27.79,27.79,0,0,0,203,366.8a6,6,0,0,1,3.13-2.33c4.73-1.68,9.54-3,13.8-6a33.84,33.84,0,0,0,12.21-14.33,46.91,46.91,0,0,1,4.72-9.12,16.4,16.4,0,0,0,3.3-8.62,13.82,13.82,0,0,1,4.67-9.67c1.15-1,2.28-2.12,3.33-3.27,3-3.34,5.55-6.93,4.2-11.82-.44-1.59-1.35-3.11-1.06-4.8.88-5.05,2.18-9.87,5.78-13.9a62.19,62.19,0,0,0,10.79-16.53c1.08-2.46,2.29-5.13,1.52-7.71-1.29-4.3,0-7.92,1.75-11.67,3.25-7,4.2-14.06.34-21.44a45.6,45.6,0,0,0,9.93-2.06,31.8,31.8,0,0,0,9.27-4.66c5.05-3.53,10.13-7.29,11.54-13.69a20.21,20.21,0,0,1,6.21-10.57,29.15,29.15,0,0,0,4.16-4.08c3.74-5.3,4.64-11.11,3.56-17.4-.19-1.12-1-2.24-.28-3.51,1-1.77,1.92-3.62,2.95-5.39,2.47-4.27,6.23-7.47,9.36-11.19a12.53,12.53,0,0,0,3.23-10c-.47-3.81.77-7,2.78-10a43.93,43.93,0,0,0,5.28-11.58,33.65,33.65,0,0,0,.83-15.29c-1.14-2.6-2.67-5-4-7.47-1.56-2.87-.78-5.81,1-8.46,1.58-4.71,0-8.8-2.61-12.61-1.3-1.92-3-3.54-4.37-5.43-1-1.46-2.13-3.16-1.45-5a12,12,0,0,0,.32-6.49c-.65-3.69-2.56-6.73-4.79-9.61-3.11-4-5.95-8.3-11-10.2A4.13,4.13,0,0,1,310.51,38a4.09,4.09,0,0,0-3.22-3.16c-2.63-.45-3.28-2.24-4.06-4.27C301.68,26.56,299.5,25.19,295.16,25.14Zm-13.53,4.52c1.44-1.79,8.06-3.51,10.25-2.7.3.11.58.27.88.35a25.26,25.26,0,0,1,4,2.47,1.76,1.76,0,0,0-1,2.48c-.63.66-1.36,1.29-.61,2.31a1.72,1.72,0,0,0-1,2.47c-1,.29-1.27.92-.8,1.84-1.41.2-.91,2-2,2.43-3.61,6.72-8,12.68-15.65,16.1,1.26-6.12,3.12-11.72,4.63-17.41.25-3,.49-6.06.79-9.09A2.55,2.55,0,0,1,281.63,29.66Zm-8-6.94c1.53.4,3.7.55,3.58,2.9a8.58,8.58,0,0,0,1.55,5.22c1.21,1.92-.05,3.89-.07,5.84a16,16,0,0,1-.67,3.21c-.45,4.56-2.8,8.57-3.6,13.1-2.55-3.8-4.93-7.51-5-12.17-.9-3.37-.51-6.79-.17-10.17.2-2.06,1.25-4,1.46-6.11S272.39,22.39,273.67,22.72Zm-10.43,4.12a2.19,2.19,0,0,1,1.56-2.09c1.69-.59,3.33-1.32,5.35-2.15a40.37,40.37,0,0,0-1.79,18.29c.57,5.81,3.26,11,5.05,16.48-6.28-3.14-9.06-8.53-10.33-14.93A59.9,59.9,0,0,1,263.24,26.84Zm-7.94.34A20.27,20.27,0,0,0,259.39,26c1.17-.59,1.29.09,1.28,1.08,0,3.2-.14,6.41.09,9.6A45.61,45.61,0,0,0,262,42.87a36.62,36.62,0,0,0,6.27,12.81c1,1.26,2,2.54,3,3.84-5.49.75-11.37-2.59-14.29-7.37a17.53,17.53,0,0,1-2.5-6.49,58,58,0,0,1-1.11-16A2.25,2.25,0,0,1,255.3,27.18Zm-11.81,9.46c.45,2.21-.14,4.69,1.15,6.79.57-2,0-3.94,0-5.9a4.65,4.65,0,0,1,1.65-3.84c1.52-1.31,2.67-3,4.43-4.1.83,1.87.66,3.91.92,5.87.46,3.53,1.71,6.91,1.83,10.48,1.57,3.31,2.49,6.89,5.11,9.75,3.3,3.61,7.37,5.05,12,5.43.66.06,1.41-.26,2.06.53a13.21,13.21,0,0,1-6.76.36c-6.8-1.39-13.44-3.38-17.6-9.72a12.16,12.16,0,0,1-1.57-3.67l-1.15-2.43-.53.14c-.27,1,.64,1.78.57,2.74,3.31,8,9.82,11.9,17.84,13.77,2.28.53,4.36,1.68,6.81,1.74,1,0,1.76,1.06,1.29,2.6-1.14,3.73-1,3.63-4.92,3.22-5.1-.55-8.81-3.54-12.47-6.68-.55-.48-.8-1.4-2.06-.79a39.07,39.07,0,0,0,10.69,8.31c1.25.68,2.53,1.29,3.8,1.93,1.08.54,3.15.1,2.13,2.58-1.44,3.49-3.08,5-5.25,4.13-4.11-1.55-6.74-4.87-9.25-8.18A74.36,74.36,0,0,1,245,55.4c-.71-1.7-.66-3.53-1.35-5.21,1.76,3.09,3.22,6.35,6,8.79q-2.67-4.68-5.36-9.36c-1.6-2.6-1.9-5.66-3-8.46C240.51,39.16,240.89,37.38,243.49,36.64Zm38.68,24.68a40,40,0,0,0,16.51-17.27,2.11,2.11,0,0,1,.49-.5c1-2.69,1.93-5.37,3.12-8.7.32,3.76.42,6.82-1.35,9.64.56,1.22-.31,2.12-.84,3a42,42,0,0,1-21.58,18.07,4.29,4.29,0,0,1-3.82.06C277.33,64.09,279.76,62.72,282.17,61.32ZM278.71,92.4c-3.89-.32-7.58-1.07-10.92-3.24-.84-.55-1.34-.82-1-2,.44-1.33,1.35-.93,2.09-.71a57.31,57.31,0,0,0,15.36,2.26c10.19.24,19.79-2,28.48-7.61a57.66,57.66,0,0,0,7.91-5.9A1,1,0,0,1,321.9,75a44.9,44.9,0,0,1-10.19,9.29C301.71,91,290.61,93.36,278.71,92.4Zm19.18-.19c-10.45,5.13-21.28,8.51-32.92,8.71-2.07,0-2.93-1.08-2.25-2.93a27.7,27.7,0,0,1,1.3-3.07c1.24-2.37,2.75-2.86,5.43-2.42,9.19,1.52,18.4,2.33,27.56-.23A4.25,4.25,0,0,1,297.89,92.21ZM235.07,42.48c-.44-3.23,2.4-2,3.62-2.72s1.51,1.07,1.54,1.83c.15,3.1,2.05,5.73,2.16,8.81,1.31,3.14,2.6,6.3,3.92,9.44A64.56,64.56,0,0,0,255.68,75a35.07,35.07,0,0,0,8.48,7.51,2.26,2.26,0,0,1,1.09,3.12,29,29,0,0,0-1.58,4.47c-.54,2.41-1.52,1.93-3,.81-3.2-2.41-5.42-5.7-7.85-8.75A107.65,107.65,0,0,1,241,63.32c-1.71-3.39-2.1-7.1-3.86-10.35C236.3,49.49,235.54,46,235.07,42.48Zm-9.94-2.09c.92.11,1.86,0,2.79,0,3.5.28,3.46.4,4.31,4a50,50,0,0,0,2.08,5.53,17.25,17.25,0,0,1,1.42,4,42.35,42.35,0,0,1,2.5,4.76c3.79,10.06,9.53,18.93,16.33,27.18a9.75,9.75,0,0,1,2.17,3.52c-2.37-.85-3.84-2.55-5.49-3.94a99.6,99.6,0,0,1-20.58-23.7c-.75-1.19-.93-2.7-2-3.74a59.13,59.13,0,0,1-5-15.83C223.44,41,223.62,40.21,225.13,40.39Zm-3,.38c.56-.22.78.51.79.93.12,4.21,2.16,7.93,2.95,12,.36,1.83,2.05,3,2.34,4.83,5.61,11.23,13.68,20.48,23.3,28.39,3.28,2.7,6.08,5.88,9.29,8.63.88.76,0,2.65-1.31,3a8.53,8.53,0,0,1-4.61-.35c-6-1.74-10.75-5.29-15.17-9.49-5.82-5.52-12-10.71-16.28-17.64a29.17,29.17,0,0,1-3.67-7.1c-2.4-6.71-3.63-13.5-1.65-20.57C218.67,41.2,220.61,41.37,222.08,40.77Zm-12,18.58c.91-.11.16-1.08.18-1.61.21-5.32,1.25-10.28,5.62-13.9l.53-.23c0,.17,0,.35,0,.52-.13,4-.67,8.07.3,12.07.7,2.87,1.45,5.72,2.18,8.58,1.93,1.43,2,3.89,3.1,5.77,4.52,7.42,10.76,13.23,17.11,19,4.55,4.1,9.15,8.16,14.47,11.31a31.29,31.29,0,0,0,3,1.43c.52.24,1.59-.18,1.53.63a3.81,3.81,0,0,1-1.59,2.82c-.79.56-1.14-.19-1.72-.63-2.81-2.14-5.83-4-8.58-6.22-10.77-8.65-22-16.83-30.51-27.93C215,70,214.43,69,213.8,68l-1.14-1.82c-.15.28-.39.27-.65.18.31.79.61,1.59.91,2.39a108.33,108.33,0,0,0,7.14,8.88c5.11,5.48,10.93,10.16,16.61,15,5.43,4.62,11.3,8.72,16.55,13.58,1.6,1.48,1.75,2.83.64,4.53l-.13.2c-1.1,1.53-2.07,4.2-3.32,4.34-1.83.21-1.83-2.76-2.93-4.19A66,66,0,0,0,235.37,99.6c-5-3.89-10.42-7.28-15.36-11.25-5.59-4.47-9.52-10.17-10.72-17.44-1.14-2.67-1.26-5.55-1.4-8.37C207.83,61.26,208,59.59,210.07,59.35Zm44.25,57.27a77.16,77.16,0,0,0,12.09,1.88c6.41.47,12.82.35,18.81-2.21,5.68-2.41,11.48-4.49,17.32-6.37,7-2.26,13.9-4.75,20.71-7.54,2.07-.85,3.76-2.54,6.36-2.87a34,34,0,0,1-12.36,11.43c-13.77,7.33-28.74,9.14-44,9.73a105.6,105.6,0,0,1-18.82-.46,1.51,1.51,0,0,0-.7.05,3.25,3.25,0,0,1-2.94-.25c-.46-.35-.18-1.18.26-1.7C251.89,117.29,252.64,116.22,254.32,116.62ZM208.25,71.36a42.55,42.55,0,0,0,5.82,12.29c3.51,4.85,8.44,8.08,13.3,11.39a106.46,106.46,0,0,1,16,13.07c2.74,2.78,3.54,6.27,3.89,10,.18,1.89-1.46,2.49-2.2,3.7s-1.9,1.8-3.12,2.9c-1.92-9.93-8.63-16.29-15.51-22.59C220.85,97,214.66,92.46,209.33,87c-3.34-3.44-6.06-7.29-6.17-12.4a2.13,2.13,0,0,1,.39-1.33A20.71,20.71,0,0,1,206.92,64C207.36,66.44,207.81,68.9,208.25,71.36Zm-22.37,32.12a11.08,11.08,0,0,1-1.5-13.58c1.19-2,1.6-3.64.42-5.69-.71-1.22-.38-2.6,0-3.91,1.15-3.85,3.94-6.32,7.1-8.48,0-.4.31-.62.57-.52.45.17,0,.45,0,.69-.08,1.79-.16,3.57-.23,5.35,1.32,3.37,1.77,7,3,10.4,1.92,5.32,5.59,9.05,9.78,12.48,6.27,5.12,12.46,10.35,18.26,16a35.52,35.52,0,0,1,7,9.5,3.26,3.26,0,0,0-.56-2.67c-3.73-6.25-9.25-10.82-14.54-15.62-5.62-5.11-12.22-9.19-16.8-15.39a19.29,19.29,0,0,1-3.48-15.81c1.15-7,1.61-9.82,8.73-12.18a20.33,20.33,0,0,0-2,10c1.63,9.13,7.87,14.92,14.53,20.54C223,100.41,230,106,235.73,113a33.22,33.22,0,0,1,3.49,5.3c1.74,3.26.81,8.29-1.94,11.42-1,1.17-2.1,2.32-3.27,3.6-.48-1.17-.9-2.23-1.33-3.28l-.71-.27c1.82,6.19-3.3,8.57-5.95,12.6-1.3-2.45-1.23-4.94-1.89-7.24-1.76-6.07-4.06-11.76-9.2-15.83-3-2.35-6.68-3.07-10.17-4.15A41.29,41.29,0,0,1,185.88,103.48Zm-2.06-.74a42,42,0,0,0,17.47,12.56c3.79,1.5,7.94,2,11.5,4.1,5.27,3.11,8.36,7.8,10,13.64a76,76,0,0,1,1.79,9.45c.09.62.57,1.35-.15,1.7s-1.26-.21-1.8-.77c-1.43-1.49-1.86-3.46-2.56-5.28a24.63,24.63,0,0,0-10.38-12.44c-3.05-1.85-6.49-3.07-9.73-4.6-3.67-1.73-7.53-3.11-10.68-5.83a10.37,10.37,0,0,1-4-6.64C185,106.72,183.6,105,183.82,102.74ZM175.36,108c2.29-.73,4-2.45,5.88-4,2,8.28,7.17,13.53,14.87,16.68,4.42,1.81,8.72,3.93,13,6.15,3.84,2,6.51,5.27,8.94,8.85,2.3,3.38,2.65,7.34,3.89,11,.55,1.65-2.59,5-4.31,4.69-.72-.11-1-.72-1.28-1.28a35.24,35.24,0,0,0-13.81-14.26c-1.24-.72-2.33-2.29-4.17-1.69.07-1.16-.93-1.23-1.65-1.52-4.11-1.65-8.2-3.34-12.36-4.87-6.13-2.26-9.9-6.38-10.66-13a31.53,31.53,0,0,0-.33-3.52C172.92,109.36,173.64,108.51,175.36,108Zm-3.17,1.44a65.87,65.87,0,0,0,1.32,8.13c1.28,4.44,3.62,8.1,7.67,10.06,5.32,2.57,11,4.49,16.47,6.67.17.07.43-.07.65-.12,1.9,2.32,5,2.89,7.16,4.8,2.85,2.46,5.79,4.74,7.89,8,2.7,4.17,1.8,8.16.19,12.35-1-.45-1.29-1.33-1.83-2a59.78,59.78,0,0,0-11.43-9.79,1,1,0,0,0-1.1.08c-1.13-1.88-3.22-2.39-5-3.3-4.14-2.13-8.5-3.84-12.57-6.08a22.39,22.39,0,0,1-11.33-14.65A57.84,57.84,0,0,1,169,115C168.78,112.5,169.52,110.57,172.19,109.4Zm-4.79,6.5.44-.7a.64.64,0,0,1,.12,1,67.63,67.63,0,0,0,3,11.36c2.57,6.76,7.66,10.79,13.8,13.73,4.12,2,8.33,3.76,12.37,5.92.59.32,1.22,1,2.06.47.15,1,1.09,1.12,1.76,1.59,4.78,3.32,9.1,7,10,13.28.34,2.43-.53,4.6-1.34,7-.57-1.4-1.24-2.77-1.69-4.21-2-6.4-7.06-9.82-12.54-12.78s-11.71-5-17.71-7.1C165.35,141.09,162.77,124.07,167.4,115.9Zm53.42,45.43L214.58,166C215.44,162.8,218.6,162.66,220.82,161.33Zm-6.89,5.19,0,.13-.16,0Zm-61.64-27.74a3.34,3.34,0,0,1,.53-1c1-1,2-2.52,3.15-2.65,1.39-.15,1.36,2,2.07,3,5.13,7.6,12.23,11.88,21.16,13.69,8.49,1.72,16.54,4.66,23.26,10.43,1.1.95,2.15,2,3.41,3.13.25-1.5-.92-1.85-1.5-2.5-4.34-4.81-10-7.42-15.9-9.71-4.75-1.84-9.84-2.33-14.6-4a30.48,30.48,0,0,1-16.62-14c-.57-1,0-1.2.67-1.56a15.89,15.89,0,0,0,3.66-2.11c1.61-1.5,2.07-.55,2.51.86a22.69,22.69,0,0,0,5.9,9.24c2.93,2.92,6.56,4.61,10.31,6.09,7.32,2.91,15,5.11,21.26,10.19,2.23,1.8,4.48,3.87,5.21,6.43.87,3.08,2,6.26,2.15,10.14-2-1.64-2.23-3.72-3.28-5.26-4.22-6.25-10.54-8.73-17.33-10.62-6.54-1.82-13.34-2.54-19.81-4.67a54.2,54.2,0,0,1-11.95-5.64c-.38-.24-.59-.74-.88-1.12l-.28.32c-.15-.8-.46-1.37-1.42-.95,0-1.36-1.18-2.1-1.76-3.15C151.36,141.8,150.38,140.26,152.29,138.78Zm-1.61,2.64a7.65,7.65,0,0,0,3.25,5.07c.12.86.44,1.42,1.41,1-.51,1.5,1.24,1.5,1.61,2.41,8.24,4.93,17.33,7.11,26.68,8.79,6.09,1.09,12.06,2.95,17.26,6.66,4.08,2.91,5.91,7.06,6.94,11.7.21.93-.43,1.78-1.11,2.93-1.38-3.28-2.61-6.36-5-8.8a27.36,27.36,0,0,0-12.1-6.86c-6.73-2.05-13.84-2-20.57-3.94a35.29,35.29,0,0,1-7.53-2.72c-1,0-1.75-1-2.81-.76-.9-1.28-1-1.31-1.85-.79.17-1.09-.81-1.37-1.43-1.68-2.11-1.07-3.29-3.38-5.58-4.17.08-.14.24-.31.21-.39C148.29,146,148.34,145.34,150.68,141.42Zm-.82,23.48c-1.68-1.94-2.78-3.88-2.54-6.57.29-3.09.26-6.21.36-9.22,1.46-.46,1,1.52,2.13,1.16a12.19,12.19,0,0,0,7,5.85c.7,1.25.91,1.34,1.86.81.95,2.07,3.2,2,4.84,3,.4-.1.53.18.66.45,8.62,2.79,17.8,2.88,26.44,5.49,6.21,1.87,11.51,5.13,14,11.61a19.37,19.37,0,0,1,.78,5c-.71.12-.95-.31-1.26-.67a16.66,16.66,0,0,0-14.65-6.14c-2.11.12-4.21.35-6.31.53-.3.17-.59.28-.81-.1l0,0c-7.12.79-13.88-.59-20.58-2.95A27.78,27.78,0,0,1,149.86,164.9Zm1.86,15c-1.7-4-3.77-8-3.92-12.38,10.52,6.44,21.79,11,34.69,10.15,1.3-.08,2.59-.89,3.92-.14a15.73,15.73,0,0,1,11,.6,9.51,9.51,0,0,1,4.82,4.8c.37-.1.53.09.57.44,1,1.94,2.56,3.7,1.92,6-4.91-4.35-10.74-5.18-16.94-4.28a97.72,97.72,0,0,1-26.57.51,33.23,33.23,0,0,1-6.42-1.82C153,183.22,152.36,181.45,151.72,179.92Zm3.45,5.58c4.13.73,7.67,1.64,11.33,1.95a77.44,77.44,0,0,0,19.65-1c5.69-1,11.11-.65,15.61,3.61a2.13,2.13,0,0,1,.89,1.35c.21,0,.51-.05.42.26s-.35.19-.55,0c-3.41.05-6.81.09-10.22.12a76.34,76.34,0,0,0-13.06,2.55c-1.23.38-2.26-.5-3.13-.81-4.37-1.56-8.77-1.06-13.19-1-.64,0-1.46.42-1.84-.54A31.37,31.37,0,0,1,155.17,185.5ZM177,195.14c-5.8,4-5.8,4-10.71.32C169.89,194.58,173.26,193.43,177,195.14Zm-12.42,11.53c3.44-1.17,5.61-4,8.3-6.14a28.4,28.4,0,0,1,14.74-5.72c2.09-.24,4.16-.85,6.45-.25-.87.36-1.73.73-2.61,1.06-7.58,2.82-14.31,7.08-20.79,11.89-2.49,1.84-5.19,3.45-7.68,5.33,0,.36-.27.69-.56.52s.1-.47.17-.72c.42-1.6.82-3.21,1.29-4.8C164,207.41,164.24,206.79,164.57,206.67Zm-6-3.91A7.86,7.86,0,0,0,159.9,204c2.37,1.37,2.63,3.19,1.21,5.43-2.61-3.14-4.9-6.67-8.46-9.19C154.1,200.17,157.34,201.59,158.53,202.76Zm-22.29-8a1.33,1.33,0,0,1,1.26.38,14.82,14.82,0,0,1,4.83,1.86l1.12.42a1,1,0,0,1,.89.63c3.18,1.78,6.95,2.28,9.82,4.79a12.68,12.68,0,0,1,4.52,8.76c.26,3.15.54,6.37-.43,9.78a24.49,24.49,0,0,1-4.12-6.25c-1.84-4.1-3-8.49-5.45-12.32-1.18-1.85-3.06-2.92-4.56-4.41l-.91-.31a1.36,1.36,0,0,1-1.14-.86,10.23,10.23,0,0,1-4.77-1.72.84.84,0,0,1-1.16-.38C136.09,195,136.18,194.75,136.24,194.74Zm-.71.34-.43-.24.43-.15Zm-.52-.27c-.29.07-.48,0-.53-.31C134.68,194.57,135,194.43,135,194.81Zm-.61-.34c-.69.46-1.38.16-2.07-.06A2.12,2.12,0,0,1,134.4,194.47Zm-3.33-.4s.05-.18.1-.2c.48-.21.65.21.91.44C131.74,194.25,131.31,194.48,131.07,194.07ZM99.84,196.6c7.86-2.75,16.06-2.26,24.12-2.17a42.79,42.79,0,0,1,15.9,3.54c5.8,2,9.58,5.8,11.26,11.9,1.07,3.87,2.94,7.51,4.47,11.25a5.51,5.51,0,0,1,.52,3.81c-1.79-3-3.51-5.77-5.15-8.6a22.57,22.57,0,0,0-12.39-10.21c-3.15-1.13-6.55-1.74-9.36-3.75-2.74-1.16-5.44-2.42-8.22-3.46-5.45-2-11-1.75-16.57-.45s-11,2.91-16,5.83C91.23,200.24,95.33,198.18,99.84,196.6ZM80.52,213.4a10,10,0,0,0,3.12-3.07c1.62-3.11,4.54-4.51,7.39-5.87,7.71-3.66,15.72-6.22,24.44-5.52a27.68,27.68,0,0,1,11.8,4.13c6,2.73,12.72,3.91,18,8.12a26.93,26.93,0,0,1,9.44,15.55c.4,1.74,2.21,3.29.84,5.42-1.42-2.59-4.19-3.4-6.35-5-4.79-3.58-9.29-7.5-13.73-11.49-4.29-3.86-9-6.87-14.87-7.54a14.4,14.4,0,0,1-2.27-.61c-13.94-.78-26.93,3.12-39.82,8.06A4.58,4.58,0,0,1,80.52,213.4ZM68.29,227.06c1.59-3,4-5.44,6.19-8a3.84,3.84,0,0,1,1.33-.93A110,110,0,0,1,90,212.82,88.64,88.64,0,0,1,108.79,209a35.51,35.51,0,0,1,6.76-.08,24.9,24.9,0,0,1,13.91,3.65c1.72,1.06,4,1.59,4.61,4.24A59.25,59.25,0,0,0,109,213.21a78.66,78.66,0,0,0-15.38,4.1c-9.69,3.84-17.82,9.83-25.25,17-.6.58-1.24,1.13-2,1.86C65.67,232.69,66.84,229.81,68.29,227.06ZM65.86,245a9.15,9.15,0,0,1,1.66-7,58.55,58.55,0,0,1,15.64-13.88,56.24,56.24,0,0,1,11.29-6c3.7-1.28,7.42-2.8,11.46-2.85a41.55,41.55,0,0,1,15-.52,64.18,64.18,0,0,1,13.73,3.29,17.48,17.48,0,0,1,5.52,3c4.13,3.49,8.29,6.95,12.51,10.34,1,.79,1.16,1.87,1.75,2.82-9-6.21-19-9-29.56-9.82a88.82,88.82,0,0,0-22.33.93,55.28,55.28,0,0,0-10.64,3c-4.27,2.16-8.83,3.76-12.81,6.48a78.36,78.36,0,0,0-11.94,9.64,5.39,5.39,0,0,1-1,.61c-.08.23-.07.61-.48.35A3,3,0,0,1,65.86,245Zm14.48-9.31a29.92,29.92,0,0,1,8.78-4.5A51.26,51.26,0,0,1,108.34,226a86.9,86.9,0,0,1,24.42.88c7,1.37,13.77,3.43,19,8.67,1.54,1.54,2.73,3.26,1.88,6-4-3.59-9.38-3.18-13.73-5.44a38.12,38.12,0,0,0-8.92-3.53c-5.53-1.3-11.08-.72-16.55.51a114.92,114.92,0,0,0-20,6.83,78.59,78.59,0,0,1-11,4.26c-1.6,1.82-4.06,2.06-6,3.23-4,2.36-8.08,4.45-12.21,6.69C66.2,244.55,73.7,240.43,80.34,235.69Zm-21.9,28.84a51.38,51.38,0,0,1,18.42-15.2c1.6-.76,2.94-2,4.78-2.3,8.46-4.7,17.49-8,26.67-11a58.47,58.47,0,0,1,17.27-2.83c4.64,0,8.83,1.54,12.94,3.44,3.77,1.75,7.7,3.2,11.13,5.63,2.28,1.62,4.2,3.46,3.51,6.63-.28,1.28-.83,2.18-2.13.72-3.64-4.07-8.69-5.37-13.66-6.31-12.15-2.3-24.2-.94-36.17,1.74a69.63,69.63,0,0,0-18.48,7,17.09,17.09,0,0,1-2.45.91c-3.18,2.73-6.77,4.9-9.92,7.71A71.79,71.79,0,0,0,56,278.63,14,14,0,0,1,58.44,264.53Zm96.35-10.84,0,.3-.21-.18Zm-85.5,19.95c-4.43,2.88-7.78,6.52-8.48,12.1-2.16-2.18-2.27-3.36-1.44-6.76,1.76-7.23,6.47-12.4,11.73-17.2a58,58,0,0,1,8.38-6.23c3.35-2.16,6.72-4.29,10.58-5.44,3-.91,5.83-2.35,8.93-3.15a106.49,106.49,0,0,1,29.84-3.27c5.56.16,11,.92,16,3.36a11.36,11.36,0,0,1,6.33,6.89c-5.26-3.73-10.73-7.34-17.57-7.54a36.78,36.78,0,0,0-15.08,3.11c-1.55.63-3.16.61-4.7,1.27-8.7,3.74-17.24,7.79-25.53,12.36-4,2.23-8.2,4.26-12.31,6.38-1.44,1.07-3.48,1.37-4.26,3.29h-.05l.13.07-.06-.06c1.36.28,2.3-.62,3.36-1.19,7.08-3.75,14.12-7.59,21.26-11.23,6-3.07,12-6.24,18.45-8.42a88.59,88.59,0,0,1,15.33-4.17c6.4-1,11.72,1.71,16.94,4.74,1.29.74,3,1.21,3.11,3.16-7.67-1.09-15.34-2.6-23-.12a127.74,127.74,0,0,0-14.33,5.5c-6.07,2.81-12,5.87-18.52,7.93a58.24,58.24,0,0,0-19,10.88c-1.14.94-2.3,1.84-3.45,2.76.11.6-.42.6-.74.78a58.16,58.16,0,0,1-5,5,1.92,1.92,0,0,1-2.34.4c-.82-.35-1.1-1-1.15-2a11.61,11.61,0,0,1,5.35-10.71,10.49,10.49,0,0,0,1.87-1.4c.41-.46,1.67-.64,1.05-1.51S69.85,273.28,69.29,273.64ZM70.52,287c1.68-4,5.54-5.85,8.73-8.23a67.6,67.6,0,0,1,18.51-9.71c7.6-2.64,14.79-6.46,22.2-9.66,6.6-2.84,13.46-4.52,20.7-3.67a31.8,31.8,0,0,1,10.25,2.94c.43.21,1,.41.69,1s-.67.24-1,.11c-7.07-2.73-14.17-1.15-21.2,0a102.14,102.14,0,0,0-26.92,8.48,97.75,97.75,0,0,0-24.72,16.61c-2.41,2.21-4.33,4.94-7.19,6.64l0,0c.2.36,0,.53-.3.67l-5.42,6.48C65,295,66.58,291.67,70.52,287Zm-.66,8.41c1.41-3.23,4.34-5.12,6.68-7.51A87.44,87.44,0,0,1,97,272.62a100.93,100.93,0,0,1,19.17-8,116.22,116.22,0,0,1,22.29-4.7c4.54-.47,9.17-.55,12.59,3.43.27.32.89.48.58,1.12s-.82.2-1.22.13c-7-1.2-13.71-.16-20.49,1.57a112.67,112.67,0,0,0-19.57,7.12c-11.26,5.22-22.28,11-31.45,19.57a25.74,25.74,0,0,0-6.65,11c-.19.58-.16,1.25-.76,1.64.19.34.39.68,0,1-.18,2.26-.42,4.53-.51,6.79s0,4.29,0,6.65C61.55,309.87,65.41,301.26,69.86,295.45ZM72.74,319c-.4-2.83-1.15-5.65-.28-8.52-.39-4.37,1.3-8.21,3.46-11.75,3.55-5.81,9.2-9.47,14.67-13.23,3.33-2.3,7-4,10.52-6a141,141,0,0,1,21.77-9.78c6.62-2.46,13.49-4.28,20.66-4.29,1.86,0,3.83,0,5.41,1.49s2.88,3.11,2.37,5.56a20.7,20.7,0,0,0-.18,3.06c-7.34-6.16-15.39-4.44-23.55-2.22A81,81,0,0,0,115,278.05c-9.51,4.38-18.81,9.17-26.17,16.89C81,303.14,77.54,312.7,80.39,324a4.57,4.57,0,0,1-2.61-.42C74.63,323.44,73.18,322.1,72.74,319Zm75.7-41.72c3.53,4.85,3.3,5.23-2.5,6.66A75.42,75.42,0,0,0,130.59,290c-4.87,2.4-9.71,4.85-14.54,7.31-9.51,4.85-18.55,10.31-25,19.11a38.13,38.13,0,0,0-6.35,12.86,10.84,10.84,0,0,0-3-4.59c-1.31-1.12-.9-3.23-1-4.9-.86-10.48,3.47-18.71,11-25.69a73.1,73.1,0,0,1,16.17-11.24,107.69,107.69,0,0,1,19-7.9A45.65,45.65,0,0,1,140,272.6C143.78,272.6,146.34,274.37,148.44,277.27ZM86.62,335.7c.06-7.11,1.59-13.8,6-19.47a49.2,49.2,0,0,1,12-10.82c5.25-3.45,10.85-6.26,16.38-9.22a149.61,149.61,0,0,1,17.3-8.23c2.93-1.11,6-2.18,9.17-1.9,1,.09,2.78-.09,2.83,1.1.06,1.35-1.65,1-2.68,1.21-6.78,1.21-13.61,2.38-19.78,5.61-12.35,6.47-23.86,14.11-31.5,26.18a35.64,35.64,0,0,0-5.32,18.33c0,1.69-.3,3.38-.51,5.61C88.1,341.41,86.6,339,86.62,335.7Zm5.56,3.54c.18-11.67,5.45-20.9,13.73-28.58a93.54,93.54,0,0,1,20-14,52.28,52.28,0,0,1,19.15-6.22c1.5-.16,3.08-.58,4.51.38-7.12,4.93-14.95,8.26-22.37,12.36a76.51,76.51,0,0,0-15.48,10.64,43.85,43.85,0,0,0-13.41,24.6,63.52,63.52,0,0,0-1.24,10l-.5-.14C92.26,346.67,92.12,343.09,92.18,339.24Zm59.11-44.93c-1.32,1.83-2.78,2.39-4.12,3.2a236.06,236.06,0,0,0-26.91,18.79A39.09,39.09,0,0,0,107,335.94a58.09,58.09,0,0,1-2.53,6.75,33.73,33.73,0,0,0-1.55,6.42c-.13.65.63,2.1-1,1.75-1.2-.26-2.82-.2-2.94-2.1a41.6,41.6,0,0,1,1.77-15.36c3.62-11.48,11.34-19.55,21.34-25.7a171.23,171.23,0,0,1,20.08-10.54A32.49,32.49,0,0,1,151.29,294.31Zm-37.58,74.48c-3.3-2.23-5.92-4.56-6.89-8.24-1.71-2.6-1-5.52-1-8.31,0-11.56,2.72-22.31,10.91-30.87,5-5.2,11-9.32,16.84-13.51a120.67,120.67,0,0,1,13.13-8.15c1-.52,2.48-1.73,3.13-.84s-1,1.83-1.78,2.59c-4.81,4.64-10.6,8.08-15.61,12.48a57.19,57.19,0,0,0-16.18,23.2c-3.06,8.17-3.72,16.51-3.26,25.07a2,2,0,0,1-.2.65C113.08,364.75,113.37,366.63,113.71,368.79Zm9.83,3.44c-1.36.63-5.84-1.48-6.46-2.64-.91-1.69-1.09-3.58-1.61-5.38-2.16-7.32-1.64-14.57.33-21.85,3.88-14.37,12.83-24.88,24.87-33.12a84.81,84.81,0,0,1,9.6-5.85c.44-.22,1-.76,1.5-.25s-.17.95-.42,1.4a76.91,76.91,0,0,1-9.44,12.68c-9.21,10.69-15.07,22.89-16.66,37-.47,4.11-1.23,8.21-1.12,12.37a8.8,8.8,0,0,1,0,2.11C123.91,369.88,125.07,371.53,123.54,372.23Zm11,7.43c-2.61-2.07-4.19-5.32-7.53-6.55-.75-.28-.64-1-.67-1.62-.07-1.32-.19-2.64-.29-4a67.71,67.71,0,0,1,3.16-25.74c3-9.12,8.07-16.93,14.12-24.25,2.65-3.22,6.05-5.62,8.9-8.93a3.31,3.31,0,0,1-.88,3.36c-6,6.54-8.82,14.61-11.34,22.88s-4.6,16.67-6.5,25.1c-.69,3.05,0,6.17.83,9.18,1.74,6.56,3.93,11.18,6.82,14.21C138,383.32,136.44,381.2,134.49,379.66Zm18.71-63.87-.11.19-.2-.1c0-.06.06-.16.12-.18S153.14,315.76,153.2,315.79Zm12.45,56.31c-1.23,2-2.68,4.33-5,4.76s-4.16-1.39-5.86-2.91c-1.16-1.06-2.15-2.36-4.4-2.95a32.84,32.84,0,0,0,7.38,7.93c-4,1.55-7.5,3.31-11.38,4.08a3.4,3.4,0,0,1-3.69-1.21c-3.08-3.75-6.23-7.42-7.6-12.22-1.55-5.51-.45-10.86,1-16.19,1.74-6.45,3.46-12.89,5.21-19.33s4.52-12.23,9.64-16.69c.3-.26.57-.55.89-.78a7,7,0,0,1,1.24-.41c-6.91,13-12.59,26-8.81,40.92-1.75-13.49,1.36-25.75,9.1-37.29,1.29,2.74,1.42,5.35,1.82,7.84a236,236,0,0,0,6.51,29.62c.9,3.07,1.72,6.17,2.58,9.26.18.6.4,1.2.54,1.81C165.14,369.6,166.51,370.68,165.65,372.1Zm10.45,4.4a13,13,0,0,0,1.17-8.59,2.66,2.66,0,0,0-.68,2.43c.2,2.57-1.89,3.45-3.42,4.63-1.29,1-2.06-.54-3-1-3.26-1.6-3.63-4.87-4.55-7.83a209.83,209.83,0,0,1-8.14-36.33c4.79,4.4,8.3,9.68,11.66,14.86-.21-2.26-1.24-3.83-4.32-8s-6.54-7.78-8.49-12.55c-1.39-3.39-1.19-3.62,2.3-3.24a9.14,9.14,0,0,1,5,2.47,86.07,86.07,0,0,1,18.76,22.2c2.06,3.54,4.11,7.26,4.27,11.58,2.22,6.76.85,12.93-3.26,18.56C182.05,377.42,179.91,377.56,176.1,376.5Zm27.61-13.69c-.26-2.21.45-4.58-1.31-6.78,0,4.25.91,8.61-3.36,11.85.24-2.79.9-5.28.41-7.79l-.84.43a18.28,18.28,0,0,1-3,10.47c-1.47,2.31-4,3.22-6.32,4.26a14.74,14.74,0,0,1-4,1.19,27.16,27.16,0,0,0,2.27-20A60.19,60.19,0,0,0,177.65,337a95.49,95.49,0,0,0-14.78-15.68,20.35,20.35,0,0,0-6.75-3.86c-.58-.19-1.09-.14-1.14-1.08s.4-1.17,1.06-1.54c3.61-2.08,6.69-1,9.7,1.38,9.06,7.32,17.86,14.94,24.56,24.57,2.2,3.16,4.59,6.37,5.64,10.23a1.08,1.08,0,0,1,.18.24l.43-.3c0-.2,0-.41,0-.62-4.67-11.34-12.92-19.93-21.79-27.94a87,87,0,0,0-12-9.47c-2.39-1.49-5-2.35-7.81-1l-.4.36-.09-.56c1.11-2.29,2.74-3.18,4.91-2.2,9.78,4.42,19.08,9.59,27,17a49.91,49.91,0,0,1,13.69,20.85l.72-.24a2.83,2.83,0,0,1,0-.41c-2.12-5-4.33-10.05-7.71-14.37a67.83,67.83,0,0,0-14.51-13.57c-6.65-4.71-14-8.09-21.12-11.77a5.22,5.22,0,0,0-3.24-.38c3.68-4.36,7.94-4.1,12.72-2.45a99.62,99.62,0,0,1,24.17,12.09c7.5,5.17,14.34,11.33,17.91,20.17a27.83,27.83,0,0,1,2.82,16.2,21.65,21.65,0,0,1-1.78,6C208.93,361.13,207.58,361.86,203.71,362.81Zm7.84-2.81c3.32-9,1-17.28-2.17-25.52-1.7-1.55-2.4-3.77-3.68-5.61-4.22-6.05-9.72-10.66-15.78-14.68A107.78,107.78,0,0,0,167.33,303c-4-1.48-8.15-2.61-12.39-.59-.47.22-1.1.6-1.36-.24-.4-1.25-.51-2.53.58-3.51a3.05,3.05,0,0,1,2.48-.6c5.42.64,10.85,1.57,15.78,3.82a209.06,209.06,0,0,1,31,17.5,42,42,0,0,1,10.92,11.28,29.91,29.91,0,0,1,4.26,11.25c.36,2.4-.28,4.45-.69,6.64s-.95,4.27-1.25,6.43C216.16,358.59,215.9,359,211.55,360Zm27.07-37c-1.1-1.18-1.26-2.73-1.94-4s-.76-2.74-2.23-4.06c1.33,6,5.34,11.35,1.26,17.9-.77-6.07-2.7-11.18-4.64-16.29a52.1,52.1,0,0,0-8.32-13.63,57.79,57.79,0,0,0-20.62-14.56,105,105,0,0,0-10.56-4.14c-.47-.14-1.1-.73-1.4.08s.47.81,1,1c4.49,1.77,9,3.46,13.38,5.5a57.06,57.06,0,0,1,19.8,15.33c2.76,3.28,4.12,7.28,6.11,11,0,.21.14.44-.16.52,2.77,6.47,4.27,13.07,2.37,20-2-3.68-2.53-7.86-4.83-11.82-.36,2.87,1.09,5,1.43,7.26a36.81,36.81,0,0,0,1.3,4.52,8.26,8.26,0,0,1-1.58,7.78c-1.5-3.68-2.9-7.12-4.45-10.95a1.89,1.89,0,0,0,0,2.31,39.36,39.36,0,0,1,2.15,6.73c1.41,6.24-2.5,9.24-7.87,12.64,2-9.35,1-18.06-3.86-26.16-5.21-7.62-12.21-13.18-20.26-17.5-7.21-3.86-14-8.51-21.53-11.73-5.28-2.26-11-3.22-16.7-4.2a10.54,10.54,0,0,1,10.64-1.73c13.67,5.13,26.68,11.44,38.44,20.23a80.47,80.47,0,0,1,12.88,12.06l4.43,5.74c-.52-2.85-2.63-4.24-3.43-6.36a108.72,108.72,0,0,0-16.33-14.73,145.26,145.26,0,0,0-12.67-7.73,164.58,164.58,0,0,0-17.63-8.41c-2.18-.92-4.49-1.53-6.68-2.43-3.59-1.49-7.07-.91-10.54.38-.64.24-1.45.92-1.92.27-.61-.85.45-1.45,1-1.86,3.29-2.61,6-6.37,11-5.87a63.14,63.14,0,0,1,9.76,1.64c.86.22,1.65.49,2.4-.06-3.85-2.66-14.12-3.69-18.47-1.81-1.79.78-3.73,1.3-5.15,2.78-.28.29-.62.65-1,.38s-.31-.84,0-1.26a16.86,16.86,0,0,1,4.62-4.56c5.95-4.13,12.28-3,18.67-1.9a2.51,2.51,0,0,0,2.31-.34c-4.06-2.28-17.65-3.61-25.33,1.31l-.47.29,0-.52c-.21-.91.23-1.35.95-1.91,5.14-3.95,11.17-5.09,17.36-5.9a49.29,49.29,0,0,1,25.75,3.28,59.48,59.48,0,0,1,15.66,10c6.81,5.84,12.2,12.78,17.36,20,.86,1.2.83,3,2.56,3.68-.41-2.22-1.73-4-2.87-5.7a89.43,89.43,0,0,0-21-22.65A50.5,50.5,0,0,0,170.71,273c-5.36.73-10.69,1.62-15.72,3.75-.65.27-1.52.59-1.87-.16s.49-1.18,1-1.71c4.07-4.29,9.53-5.64,14.94-6.89a44.77,44.77,0,0,1,27.77,2.12,122.08,122.08,0,0,1,21.45,11.73,67.75,67.75,0,0,1,10.7,8.88c4.89,5,8.56,10.9,10,17.95C240.51,312.24,240.41,317.76,238.62,323Zm12-22.22c.77,3.31-.26,5.94-2.18,8.44,0,.21.07.52-.25.43s-.2-.35,0-.56a26.45,26.45,0,0,0-2.53-8.46c0,3.57-.24,7.16.07,10.71.23,2.61-2.21,3-3.11,4.55-.17.3-.72-.23-.82-.78a44.76,44.76,0,0,0-2.25-7.87A67.4,67.4,0,0,0,235,297c-3.81-6.59-9.41-11.41-15.42-15.71a107.1,107.1,0,0,0-24.11-12.95,45.45,45.45,0,0,0-25.53-1.9c-5.5,1.08-10.67,3.18-16.12,4.7a12.93,12.93,0,0,1,5.33-4.38c11.28-4.7,22.87-8,35.28-6.37,5.76.77,11,3.15,16.11,5.93,5.57,3.05,11.34,5.71,16.76,9.06a48.55,48.55,0,0,1,15,13.86c-.35-2-2.26-4.9-4.74-7.38a63.19,63.19,0,0,0-15.86-11c-6.43-3.36-12.69-7.06-19.52-9.65-7.36-2.8-14.94-3-22.53-1.88s-14.83,3.67-22,6.46c-1.42.56-2.39,2.08-4.16,2-.34-1.09.4-1.66.93-2.31,2.7-3.31,6.3-5.46,10-7.47a65.51,65.51,0,0,1,20.7-7.06,34.31,34.31,0,0,1,21.59,3.43c6.18,3.11,12.52,6,18.21,10,5.53,3.86,12.18,6.22,16.47,11.76a34.69,34.69,0,0,1,7.37,16.41C248.58,295.44,250,298,250.66,300.81Zm1.2-14.09c-.73,1.17-.85,2.73-1.44,4.79-.41-1.43-.62-2.16-.82-2.88-1.82-3.31-3.55-6.67-5.47-9.92a29.66,29.66,0,0,0-11.4-10.88c-5-2.83-9.7-6.32-14.82-9-6.53-3.37-12.8-7.45-20.16-9s-14.75-.57-21.81,1.92a92.52,92.52,0,0,0-21.88,10.76c-.59-.91-.14-1.22.47-1.6,5-3.1,9.8-6.43,15.07-9.08a104.17,104.17,0,0,1,16.29-6.5,50.31,50.31,0,0,1,20.27-2c6.71.7,12.6,3.81,18.58,6.52a71,71,0,0,1,17.64,10.83,29.23,29.23,0,0,1,10,16.89,2.84,2.84,0,0,1-.14.93c.09.43.73.81.16,1.32C252.9,282.17,253.29,284.44,251.86,286.72Zm2.93-4.6c.11-4.15-2.35-7.3-3.26-10.95-2.24-3.39-4.12-7-7-9.94a51.87,51.87,0,0,0-12.17-8.87,115.49,115.49,0,0,0-20.36-9c-7-2.22-14.08-2-21.16-.51a87.29,87.29,0,0,0-18,6c-4.22,1.94-8.25,4.3-12.42,6.35-1.48.73-3,1.64-4.93,1.63,1.11-1.53,2.74-2.08,3.94-3.17,5.11-4.6,11.17-7.57,17.53-9.9,10-3.67,20.5-5,31.1-5.33,5.65-.2,11.29-.8,17-.47a4.07,4.07,0,0,1,2.77.95c2.94,3.07,6.9,4.57,10.35,6.85,3.62,2.39,7.12,4.9,9.59,8.56C253.58,261.16,258.14,278.45,254.79,282.12ZM267,251.2c-.29,3.13,1.91,6.33.57,9.21-2.15,4.64-2.81,10.07-7.09,14a31.61,31.61,0,0,0-8.38-22.56c2.15,4,4.95,7.74,6.25,12.19A21.76,21.76,0,0,1,258,277.8c-2.22-10.17-5-19.64-11.91-27.3a62.56,62.56,0,0,0-15.17-10.24c-1.27-.62-1.71-2-2.94-2.65a12.72,12.72,0,0,0-6.68-1.11c-10.79.43-21.64.4-32.25,2.56a79.35,79.35,0,0,0-19,6.28c-5.19,2.52-10,5.62-15.12,8.26.1-1,1-1.59,1.62-2.1,3.87-3,7.63-6.05,12.17-8.29,11.23-5.56,23.18-7,35.37-7.86,4.06-.29,8.1-.92,12.13-1.48a21.51,21.51,0,0,1,12.63,1.74,106.36,106.36,0,0,0,10.64,4,11.73,11.73,0,0,1,3.16,2,6,6,0,0,1,2.89,1.79c.82.67,1.54,1.45,2.43,2-1-3.29-4.09-4.44-6.48-6.31-3.52-1.35-7.1-2.56-10.55-4.06-4.91-2.13-9.75-3.42-15.28-2.58-8.91,1.35-17.93,2-26.88,3a55.16,55.16,0,0,0-14.9,4.14,176.43,176.43,0,0,0-18.3,8.41c1.81-2.35,3.54-4.81,6.23-6.08,7.54-3.58,15-7.36,23-10,9.77-3.22,19.57-5.64,29.9-5.32a58.45,58.45,0,0,1,15.53,2.8,48.27,48.27,0,0,1,8.32,3.4,75.76,75.76,0,0,1,13.43,10.41c2.51,2.37,5.88,3.57,8.14,6.28,2.48,3,3.92,6.48,5.4,10,.37-2.87-1.48-5.17-2.7-7.52a18.1,18.1,0,0,0-7-7.31c-3.57-2.09-6.47-5.1-9.59-7.8a47.43,47.43,0,0,0-9-6,55.54,55.54,0,0,0-21.82-5.53c-11.21-.67-21.71,2.31-32.24,5.74-6,2-11.5,4.81-17.22,7.26-2.11.9-4.15,2.05-6.34,2.8,19.81-18.45,42.6-27.64,70-22.49a51.64,51.64,0,0,1,20,7.09c2,1.26,3.14,3.49,5.62,4.34.65.22,1.09,2.89,2,4.34,3.18,5.16,6.24,10.41,9.33,15.64C266.66,250.48,267,250.86,267,251.2Zm5-13.41c-.82,4-2.59,7.53-4.14,11.51a68.91,68.91,0,0,1-6.27-9c-1.76-2.93-3.28-6.07-5.25-8.79a29.49,29.49,0,0,0-15.57-11.23c-4.26-1.31-8.59-2.23-12.86-3.45-4.41.08-8.75-.91-13.17-.91a73.09,73.09,0,0,0-29.81,6.35A95.93,95.93,0,0,0,165,234.59c-2,1.58-4.25,2.95-6.43,4.34a2.35,2.35,0,0,1-1.74.41c-.6-.24-.05-1-.1-1.52-.13-1.3.61-2.16,1.45-3A92.07,92.07,0,0,1,196,210.56a77.18,77.18,0,0,1,21.8-3.86,7.6,7.6,0,0,1,1.41.2l.6.27,0,0c3.08-.94,6.09.05,9.07.46,6.95.94,13.42,3.49,19.7,6.48a92.39,92.39,0,0,1,14.79,8.79c.49.36,1.05,1.72,2.12.76-.23.91.63,1,1.12,1.35C271.27,228,273.17,232.07,272,237.79Zm-2.41-12.53c-1.62-.06-2.43-1.95-4.08-1.72-1.83-2.5-4.65-3.74-7.15-5.31a91.66,91.66,0,0,0-16.79-8.52,63.34,63.34,0,0,0-22.67-4.24,9.06,9.06,0,0,1-1.82-.19A110.86,110.86,0,0,0,204.75,207a95.37,95.37,0,0,0-22,7.82c-7.28,3.6-13.6,8.53-20.1,13.23-1.33,1-2.77,1.74-4.33,2.72a4,4,0,0,1,1.5-3.8c3.56-3,6.9-6.16,10.53-9,4.39-3.47,9.64-5.53,14.54-8.18a88.77,88.77,0,0,1,14.9-6,55.6,55.6,0,0,1,11.86-2.86A57.7,57.7,0,0,1,234,201c3.75.83,6.7,3.09,10,4.78,7.62,4,14.56,9,21.47,14.08A10.31,10.31,0,0,1,269.58,225.26Zm-23-20.64c-4.75-3.24-10.12-4.73-15.71-5.45-6.64-.87-13.29-1.23-19.86.62a5.87,5.87,0,0,1-1.85-.11,146.33,146.33,0,0,0-17.3,5.54,125,125,0,0,0-12.88,6.1,186.26,186.26,0,0,0-18.68,11.26c-.4-1.86.67-3.08,1.57-4.17a70.33,70.33,0,0,1,21.75-17.68c4.79-2.52,9.91-4.19,14.79-6.43.52-.23,1-.46,1.57-.11,2.87-.13,5.74-.31,8.61-.48,4.69-.28,9.22-1.51,13.94-1.68,9.86-.36,17.19,4.36,23.71,11A1.19,1.19,0,0,1,246.55,204.62Zm25.81,18.63c-3.13.59-3.06-2.88-4.79-4.07,3.81,1,7.61,1.33,11.68,2.13C277,222.93,274.57,222.83,272.36,223.25Zm12.49-3.5c-1.88,1.33-4,.37-5.91.13-4.81-.61-9.63-1.33-14.06-3.66a47.92,47.92,0,0,1-6.27-4.54,56.74,56.74,0,0,0-5.35-3.83c-2.9-1.67-4.81-4.19-6.68-6.8-1.44-2-3.66-3.18-5.25-5-.35,0-.78.19-.93-.31a.58.58,0,0,1,.25-.5c.49-.19.61.23.75.57,1.54-.71,2,2,3.54,1.18.72,1.62,2.51,1.93,3.75,2.9a38.73,38.73,0,0,1,6.65,6.2c3.59,4.57,8.87,6.09,14.07,7.56a100,100,0,0,0,18.9,3.44c.2,0,.37.2.78.43A25.29,25.29,0,0,0,284.85,219.75ZM242.6,194.63c0-.25.11-.28.29-.11s.22.21.33.31l-.28.25C242.61,195.08,242.59,194.86,242.6,194.63Zm57,4.38c-6.47,3.19-13.22,5.29-20.56,4.94A48.44,48.44,0,0,1,265,201.16h0c-2.49-.81-4.8-2.24-7.55-2.21,2.33,1.36,4.63,2.74,7.4,2.93,2.17,1.93,5,2.09,7.61,2.63,8.72,1.81,17.21.11,25.66-1.9.95-.23,1.92-.35,2.95-.53-1.17,5.94-4.87,10-9.38,13.41a3,3,0,0,1-2.26.49,149.44,149.44,0,0,1-17.54-3.11c-4.78-1.19-9.44-2.48-13.49-5.4a21.85,21.85,0,0,1-4.28-4.31c-2.26-2.79-5.26-4.61-8.25-6.46-.24-.15-.65-.36-.84.07.06-1-1.27-.92-1.47-1.72.61-.63,1.33,0,2-.24,1.12,1,2.67.95,4,1.54,2.06.92,4.35,1.31,6.32,2.51.43.27,1.11.44,1.42-.2.22-.44-.2-.66-.59-.8-3.51-1.34-6.9-3-10.64-3.67-4.29-1.88-8.91-2.44-13.44-3.29-8.13-1.53-16.37-1.58-24.61-1.36-.28,0-.56,0-.9-.07.28-1.05,1-.93,1.71-1,11.69-1,23.3-.84,34.75,2.18a67.28,67.28,0,0,1,9.73,3.82c8.95,3.91,18.38,4.58,27.94,4.11A77.67,77.67,0,0,0,306.56,193,16.22,16.22,0,0,1,299.6,199Zm6.34-7.28A77.4,77.4,0,0,1,276,197.42,68.61,68.61,0,0,1,258.13,195a32.6,32.6,0,0,1-6.24-2.41,58.34,58.34,0,0,0-19-5.26,7.92,7.92,0,0,1-1.3-.43l0,0a4.79,4.79,0,0,1-3.21-.22.7.7,0,0,1-.8-.22c-.63.64-1.27.44-1.91,0-3.77.09-7.54.29-11.31.24-2,0-3.83.35-5.67.38.67-1.31,2.16-1.55,3.41-2.15.25-.76.69-.82,1.27-.36h0c.75-1.3,2.09-.72,3.16-1a90.08,90.08,0,0,1,32.65-1,56.2,56.2,0,0,1,11.17,2.72c6.08,1.15,12.12,2.43,18.35,2.63,7.88.25,15.67,0,23.33-2.09a40,40,0,0,0,12.24-5.63C313.94,186.18,310.91,189.65,305.94,191.73Zm6.15-11.39a32.76,32.76,0,0,1-10.1,4.48c-6.2,1.73-12.6,2-19,2.1a63.18,63.18,0,0,1-16.66-1.77h.06l-.89-.13q-7.71-1.68-15.43-3.36a74.73,74.73,0,0,0-18.76-1.2c-4.49.17-9,.72-13.44,1.23a26.49,26.49,0,0,0-8.54,2.48c-.07-1.15.61-1.5,1.19-2,4.94-3.94,10.82-5.78,16.71-7.68a56.44,56.44,0,0,1,22.12-2.31c6.15.49,12.06,2.31,18,3.85,5.62,1.45,11.35,2.53,17,3.77,3.42.16,6.85.51,10.27.44,7.27-.16,14.19-1.53,19.64-7C315.79,176.49,314.62,178.57,312.09,180.34Zm-.87-8.35c-4.81,6.34-11.61,7.27-18.83,6.94-1.44-.06-3,.43-4.35-.47-4,.16-7.94-.76-11.81-1.63-7-1.55-13.84-3.55-20.83-5a56.42,56.42,0,0,0-28.81,1.57c-3.13,1-6.12,2.43-9.43,3-1.75.3-3.36,1.64-4.95,2.64a8.47,8.47,0,0,1-3,1.28,81,81,0,0,1,21.55-10.64,94.06,94.06,0,0,1,25.47-3.94,89.87,89.87,0,0,1,12.88.91c12,1.45,23.93,1.54,35.78-1,2.83-.61,5.56-1.7,8.35-2.58l4.48-2.1A45.28,45.28,0,0,1,311.22,172ZM316,160.17c-7,3.86-14.73,5-22.53,5.81a105.89,105.89,0,0,1-23.27-.54,103.93,103.93,0,0,0-26.78-.09A75.12,75.12,0,0,0,220.64,172c-3.37,1.67-6.87,3.17-9.93,5.52a6.33,6.33,0,0,1,2.58-3.71,46.5,46.5,0,0,1,14.39-8.34,87.23,87.23,0,0,1,28.18-4.79c6.41-.1,12.83-.13,19.23-.47,6.68-.36,13.36-.51,20-1.19a93.16,93.16,0,0,0,22.1-5c1.88-.68,3.61-1.91,5.55-2.56a53.72,53.72,0,0,1,6.19-4.54,1.81,1.81,0,0,1-.09.82C325.63,152.94,322.31,158.1,316,160.17Zm13-13.35c-.17-.06-.18-.17,0-.3s.15,0,.22,0Zm.72-4.17c.33.68.38,2.15-.37,2.25-1.26.17-1.49,1.35-2.42,1.71-6.07,4.88-13.11,7.6-20.63,9.23-14.77,3.21-29.8,2.94-44.78,3.28-8.48.2-17,.54-25.25,2.42a57.29,57.29,0,0,0-23.34,10.65A26.88,26.88,0,0,1,223,161.57c6.91-4.43,14.72-4.66,22.44-5.38,14.93-1.39,29.89-2.32,44.77-4.2,7.33-.92,14.55-2.36,21.8-3.62A67.86,67.86,0,0,0,328.35,143C328.73,142.5,329.27,141.79,329.69,142.65ZM221.58,160.19l3.19-1.3C224.06,160.05,222.77,160,221.58,160.19Zm108-21.3c.47.82-.46,1.47-1,1.9a31.8,31.8,0,0,1-10.35,4.63,165.89,165.89,0,0,1-17.72,3.72c-8.67,1.51-17.41,2.42-26.16,3.27-8.58.84-17.17,1.53-25.75,2.27-4.14.37-8.29.7-12.43,1.07a34.24,34.24,0,0,0-11.14,3,29.78,29.78,0,0,1,6.76-3.63c4.71-1.93,9.38-4,14.28-5.46,7-2.19,14.23-2.7,21.5-2.85,13-.27,26,.14,38.9-1.52,7.37-.95,14.61-2.26,21.11-6.19C328.12,138.76,329,137.9,329.6,138.89Zm-5.39-1.11a33.47,33.47,0,0,1-13.13,5.59,139.26,139.26,0,0,1-19.27,1.75c-7.38.13-14.75.51-22.12.46a96.25,96.25,0,0,0-15.93.89,54.56,54.56,0,0,0-11.17,2.94,161.51,161.51,0,0,0-23.68,10.91c-.47.27-.86.68-1.33,1a11.23,11.23,0,0,1-1.6.58,15.78,15.78,0,0,1,4.12-5.92C225,151.1,231.33,149,237.18,146c2.7-1.37,6-1.62,8.77-2.84,5.44-2.36,11.25-3.08,17-4.18,9.07-1.76,18.33-1.2,27.49-1.85,10.7-.75,21.44-1.16,32-3,2.62-.46,5.21-1.09,7.94-1.67C329.1,135.26,326.41,136.3,324.21,137.78Zm3.52-6.14c-11.23,2.77-22.78,3.15-34.26,4-9.41.71-18.87.26-28.24,1.58a101.94,101.94,0,0,0-14.48,3.1c-9,2.63-17.81,5.85-26.94,9a13.51,13.51,0,0,1,4.47-5.16c4.93-3.54,10.68-5.07,16.41-6.54a191.1,191.1,0,0,1,23.75-4.59c8.3-1.05,16.65-.92,25-1.36,8.52-.46,17-.59,25.52-1.69a112,112,0,0,0,13.08-3c1.24-.31,2.09-1.66,3.72-1.62C334.93,130.15,331,130.83,327.73,131.64Zm10.78-13.86c-.73,6.75-6.09,7.9-11.21,9.21-10.87,2.79-22,2.87-33.15,3.34-8.85.38-17.74.36-26.55,1.5A181,181,0,0,0,239.13,138c-2.63.78-5.31,1.39-8,2.1,2.16-3.76,5.7-5.66,9.17-7.74,5.76-3.45,12.1-4.06,18.56-4.32a313.25,313.25,0,0,0,47.82-5.21,103,103,0,0,0,23.27-7.08,31.84,31.84,0,0,0,9-6.26C339.55,112.34,338.8,115.05,338.51,117.78Zm-.07-12.19a2.4,2.4,0,0,1-.54,2.84,24.39,24.39,0,0,1-9,6.28c-8.24,3.72-17,5.6-25.79,7.31-15.91,3.08-32,4-48.11,4.9-3.35.19-6.69.68-10,1.13a4.3,4.3,0,0,1-2.38-.21c4.13-3,8.2-6.41,13.65-6a159.15,159.15,0,0,0,41-2.37,63.32,63.32,0,0,0,24.39-9.55c4.71-3.21,9.22-6.75,12.7-11.78C335.37,101.07,337.56,102.93,338.44,105.59ZM335.07,81c.71,1.77,1.74,3.47.81,5.47-.84,6-4.53,9.84-9.55,12.63-5.55,3.07-11.5,5.14-17.48,7.24-8.46,3-17,5.74-25.3,9.16-5,2.06-10.42,2-15.77,1.73-3.86-.19-7.7-.44-11-2.81-.66-.47-1.78-.71-1.49-1.85s1.38-.82,2.19-.8a120.29,120.29,0,0,0,31.7-3.29,82.93,82.93,0,0,0,33.39-16.31c4-3.29,7.4-7.28,11-11C334,80.23,334.35,79.18,335.07,81Zm-2.25-3.1a1.44,1.44,0,0,1-.15,1.87,74.26,74.26,0,0,1-23.9,19.88A96.78,96.78,0,0,1,271.27,110c-2.43.19-4.86.31-7.29.41a6.06,6.06,0,0,1-3.6-.9c4.62-1.89,9.24-2.41,13.76-3.11,8.76-1.36,16.88-4.54,24.92-8a84.25,84.25,0,0,0,29.13-21.15C330.39,74.84,331.3,75,332.82,77.91Zm-4.75-2.38a90.23,90.23,0,0,1-22.36,18.23A101.32,101.32,0,0,1,264,106.45c-1.71.13-3.4.35-5.31.55a5.28,5.28,0,0,1,3.89-3.38c7-2.05,14.44-2.06,21.37-4.34,5.38-1.77,10.76-3.51,15.83-6.24a108.74,108.74,0,0,0,15.35-9.59c4.66-3.6,9.26-7.32,12.87-12.13C329.78,72.69,329.56,73.9,328.07,75.53ZM326.44,67A48.57,48.57,0,0,1,311.1,80.66a47.87,47.87,0,0,1-24.79,6.81c-5.71,0-11.44-.15-16.79-2.86-1.92-1-1.3-2-.92-3.23s.95-1.92,2.61-1.27a43.82,43.82,0,0,0,14.91,3.34c10.26.22,19-3.64,26.71-10.12a60,60,0,0,0,10.35-11.52l3.51-5C328.06,60.52,328.66,63.8,326.44,67Zm-.92-11.81c.51.47.18,1-.2,1.45-1,1.28-2,2.58-3,3.87a51.32,51.32,0,0,1-16.46,16.19A35.52,35.52,0,0,1,278.08,81,13.36,13.36,0,0,1,272,78.08a1.78,1.78,0,0,1-.73-1.64c.19-.74,1-.25,1.44-.33,6.66-1.06,13.42-1.45,20-3,9.32-2.22,16.86-7.5,23.46-14.25.92-.94,1.77-2,2.65-2.92a28.85,28.85,0,0,1,3.57-4.61C324.1,52,324.27,54.05,325.52,55.2ZM320.88,49c.71.66.63,1.3,0,2-1.06,1.25-2.05,2.57-3.08,3.85a52.15,52.15,0,0,1-15.37,12.87c-8.94,5-18.53,6.09-28.48,5.5-.6,0-1.79.47-1.73-.91,0-1.08.9-1.11,1.73-1.16a38.38,38.38,0,0,0,12.51-2.67A43.16,43.16,0,0,0,300.67,59a91.29,91.29,0,0,0,8.39-10.13c.22-.29.4-.46.75-.26.08-2.17,1.79-3.51,2.69-5.25.32-.61.77,0,1.17.1C316.66,44.51,318.64,46.9,320.88,49ZM309.11,39.2a26.48,26.48,0,0,1-1.4,8.37c-1.4,3.48-4,6-6.46,8.79a41.09,41.09,0,0,1-17.39,11.72,33,33,0,0,1-6.42,1.56c-.73.1-1.58.36-2.21-.67a90.35,90.35,0,0,0,10.48-5.33c6.91-4.23,12.57-9.66,16.2-17a1.94,1.94,0,0,1,.93-1c.9-2.8,1.79-5.6,2.71-8.4.17-.52.54-.73,1.07-.36C307.56,37.51,309.2,37.35,309.11,39.2Zm-7.64-7.27c-.88,3.75-1.65,7.49-3.51,10.91-3.18,6.8-8.21,11.92-14.38,16a21.08,21.08,0,0,1-8.89,3.4c-.46-.63,0-1,.34-1.24a59.71,59.71,0,0,0,18-19.46c-.18-.92,1.36-1.64.34-2.66,1.24-.21,1.5-.83.78-1.87a1.63,1.63,0,0,0,1.05-2.47c1.18-.52,1.37-1.29.6-2.31,1.61-.28,1-1.48,1-2.45a.37.37,0,0,0,.18,0c1-.27-.37-3.07,1.84-1.89C300.3,28.72,302.09,29.31,301.47,31.93Z"/><path class="cls-1" d="M252.42,279.84v0Z"/><path class="cls-1" d="M187.57,291.12a75.44,75.44,0,0,1,7.13,2.67c7.69,3.72,14.88,8.2,20.65,14.65,3.7,4.15,7.28,8.38,9.55,13.53.45-.14,1-.22,1-.84-.29-.26-.68-.46-.85-.78A62.19,62.19,0,0,0,216.18,308c-7.38-8.27-16.51-13.72-26.74-17.59C188.63,290.1,188,290,187.57,291.12Z"/><path class="cls-1" d="M244.89,299l1.41.5a3.53,3.53,0,0,1-.4-2.55c-1.4-1.69-.78-4.35-2.76-5.79C243.73,293.75,245.2,296.15,244.89,299Z"/><path class="cls-1" d="M148.79,369c.48.33.89.08,1.3-.17-2.43-3.19-3.84-6.92-5.56-10.5a59.28,59.28,0,0,0,3.06,8.13C148,367.31,149,367.84,148.79,369Z"/><path class="cls-1" d="M265.14,260.79h.05v0a.7.7,0,0,0,.39-.93l-.12-.29a6.1,6.1,0,0,1-.28,1.2Z"/><path class="cls-1" d="M175.87,359.32a23.41,23.41,0,0,0-4.93-12C172.59,351.3,174.31,355.28,175.87,359.32Z"/><path class="cls-1" d="M72.12,273.07l-.28-.18.18.24Z"/><path class="cls-1" d="M187.23,287c.25-.49-.41-.88-.71-2.35-.17-.88,0-1-.19-1.44a2.59,2.59,0,0,0-2.88-1.39c-.48.18-.39.53-1.5,1.79-.66.76-.83.79-1,1.19a2.62,2.62,0,0,0,.2,2.19,2.87,2.87,0,0,0,2.89,1.4c.44-.09.37-.23,1.26-.62C186.6,287.23,187,287.41,187.23,287Z"/><text class="cls-2" transform="translate(34.89 250.47) rotate(-90.79) scale(1 0.8)">A</text><text class="cls-2" transform="matrix(0.14, -0.99, 0.79, 0.11, 35.14, 215.4)">R</text><text class="cls-2" transform="matrix(0.29, -0.96, 0.77, 0.23, 40.43, 181.54)">A</text><text class="cls-2" transform="matrix(0.42, -0.91, 0.72, 0.34, 50.36, 149.98)">C</text><text class="cls-2" transform="translate(64.89 120.17) rotate(-55.57) scale(1 0.8)">Á</text><text class="cls-2" transform="translate(85.62 91.83) rotate(-47.25) scale(1 0.8)"> </text><text class="cls-2" transform="matrix(0.75, -0.66, 0.52, 0.6, 100.54, 76.47)">I</text><text class="cls-2" transform="matrix(0.85, -0.53, 0.43, 0.68, 114.18, 64.57)">N</text><text class="cls-2" transform="translate(143.46 47.03) rotate(-19.86) scale(1 0.8)">T</text><text class="cls-2" transform="translate(174.62 37.04) rotate(-11.08) scale(1 0.8)">.</text></g></g></svg>