<svg xmlns="http://www.w3.org/2000/svg" viewBox="0 0 407.12 160.19"><defs><style>.cls-1,.cls-2{fill:#d9b38a;}.cls-2{font-size:20.06px;font-family:Morien;letter-spacing:0.2em;}</style></defs><g id="Camada_2" data-name="Camada 2"><g id="Camada_1-2" data-name="Camada 1"><path class="cls-1" d="M40.19,31.32a3.46,3.46,0,0,0-3.61-2.64H28.37L0,126a3.7,3.7,0,0,0,1.81,1.18,7.93,7.93,0,0,0,2.36.35,8.67,8.67,0,0,0,2.44-.35A3,3,0,0,0,8.34,126,265.93,265.93,0,0,1,13.91,94.6a4.59,4.59,0,0,1,5-4H42.83A5,5,0,0,1,48,94.45l8.62,28.81a3.46,3.46,0,0,0,3.62,2.63l5.42.14q2.79,0,2-2.64ZM42,87.79H19.47q-4.17,0-3.06-4,2.22-9.31,5.08-20T28,40.36q.84-3.06,1.95-3.06t2,3.06L44.92,83.89C45.76,86.49,44.78,87.79,42,87.79Z"/><path class="cls-1" d="M129.79,124.39l.06-.37,0-.32.06-.34,0,0a10.89,10.89,0,0,1-5.5-6.92c-.62-2.18.23-4.14,1-5.87l.07-.15c.16-.38.34-.77.51-1.15l.56-1.29c-1.73-2.09-3.38-4.16-4.92-6.2a110.16,110.16,0,0,1-11.89-19.4,5,5,0,0,1-.7-3.54,7.59,7.59,0,0,1,2.79-3.13q3.89-3.06,8.06-6a74.82,74.82,0,0,0,7.65-6.12,31.22,31.22,0,0,0,5.7-6.89,15.7,15.7,0,0,0,2.23-8.27q0-9.32-9.18-14.53t-25.59-5.22H81.78A2.46,2.46,0,0,0,79,31.46v91.79A2.46,2.46,0,0,0,81.78,126h4.86a2.45,2.45,0,0,0,2.78-2.78V109.62a30.92,30.92,0,0,1,2.37-12.24,39.6,39.6,0,0,1,7.65-11.26,3.47,3.47,0,0,1,2.36-1.25q1.4,0,2.37,2.22a183.92,183.92,0,0,0,11,20.93,125.14,125.14,0,0,0,13.28,18,11,11,0,0,0,1.32.26A5.08,5.08,0,0,1,129.79,124.39ZM89.42,95.58V35.63c0-2.78,1.4-4.17,4.18-4.17h7.51q22.8,0,22.81,16.55a26.73,26.73,0,0,1-4.32,14.12q-4.3,7-14.18,14.81Q93.45,86.41,89.42,95.58Z"/><polygon class="cls-1" points="130.97 113.14 130.97 113.13 130.96 113.14 130.97 113.14"/><path class="cls-1" d="M243.24,31.32a3.47,3.47,0,0,0-3.62-2.64h-8.2l-1.14,3.91a13.14,13.14,0,0,1,0,3.43,18.42,18.42,0,0,1-1.39,5.27,4.77,4.77,0,0,0-.38,3.49,6.08,6.08,0,0,1-.7,5c-.34.58-.71,1.14-1.07,1.69a15.93,15.93,0,0,0-1.83,3.28c-.14.36-.26.73-.38,1.1s-.27.83-.42,1.23a1.71,1.71,0,0,0,.12.23,4.82,4.82,0,0,1,.23.5,11.19,11.19,0,0,1,.68,3.57q2.63-9.72,5.84-21,.84-3.06,1.95-3.06c.74,0,1.39,1,1.94,3.06L248,83.89q1.25,3.9-2.92,3.9H222.52c-2.78,0-3.81-1.35-3.06-4,1.29-5.41,2.75-11.2,4.36-17.32-.22.32-.45.63-.67.9s-.28.35-.41.53a7.1,7.1,0,0,0-1.57,4.1c-.14,3.16-2.35,5.34-4,6.94-.19.19-.38.36-.57.54l-4.77,16.35a6.57,6.57,0,0,1-.22,3.17V99a25.79,25.79,0,0,1-2.57,6.37L207.13,112v.07a2,2,0,0,0,.35.85,6.19,6.19,0,0,1,.3.57c1.09,2.3.14,4.31-.92,6-.32.5-.69,1-1.16,1.62a4.62,4.62,0,0,0-1,3.46,7.09,7.09,0,0,1-.2,2.5,2.2,2.2,0,0,0,.36.13,7.88,7.88,0,0,0,2.36.35,8.65,8.65,0,0,0,2.43-.35,3,3,0,0,0,1.74-1.18A267.69,267.69,0,0,1,217,94.6a4.61,4.61,0,0,1,5-4h23.92A5,5,0,0,1,251,94.45l8.62,28.81a3.46,3.46,0,0,0,3.62,2.63l5.42.14q2.78,0,1.95-2.64Z"/><path class="cls-1" d="M290.94,43.42a29.15,29.15,0,0,1,8.07-9.8,16.75,16.75,0,0,1,10.29-3.55,15.58,15.58,0,0,1,10.36,3.83q4.51,3.83,7.16,11.89a4.38,4.38,0,0,0,2.58.07,8.31,8.31,0,0,0,2.71-1.19,7.36,7.36,0,0,0,2.08-2.08,4.49,4.49,0,0,0,.84-2.51,24.09,24.09,0,0,0-10.43-9.45,34,34,0,0,0-15.16-3.34,32,32,0,0,0-15.86,3.89A35.21,35.21,0,0,0,281.9,41.82a49.79,49.79,0,0,0-7.16,15.86,76.11,76.11,0,0,0-2.43,19.68A76.23,76.23,0,0,0,274.74,97a49.73,49.73,0,0,0,7.16,15.85,35.3,35.3,0,0,0,11.62,10.64,31.55,31.55,0,0,0,15.78,3.89,34.07,34.07,0,0,0,15.16-3.33,24.11,24.11,0,0,0,10.43-9.46,4.49,4.49,0,0,0-.83-2.5A7.56,7.56,0,0,0,332,110a8.28,8.28,0,0,0-2.71-1.18,4.38,4.38,0,0,0-2.58.07q-2.22,7.5-6.81,11.61a15.59,15.59,0,0,1-10.71,4.1,16.5,16.5,0,0,1-10.22-3.54,29.62,29.62,0,0,1-8-9.81,57.61,57.61,0,0,1-5.21-15,90,90,0,0,1-1.88-19,90.16,90.16,0,0,1,1.88-19A57.74,57.74,0,0,1,290.94,43.42Z"/><path class="cls-1" d="M366.88,23.81Q377.3,18.26,382,9.63a6.87,6.87,0,0,0-3.41-3.27A9.32,9.32,0,0,0,374,5.73,43,43,0,0,1,365.07,22a2.67,2.67,0,0,0,.62,1.26A1.53,1.53,0,0,0,366.88,23.81Z"/><path class="cls-1" d="M406.93,123.39l-27.4-92.07a3.46,3.46,0,0,0-3.61-2.64h-8.21L339.34,126a3,3,0,0,0,1.74,1.18,8.65,8.65,0,0,0,4.87,0,3,3,0,0,0,1.73-1.18,265.93,265.93,0,0,1,5.57-31.43,4.59,4.59,0,0,1,5-4h23.92a5,5,0,0,1,5.15,3.89l8.62,28.93a3.47,3.47,0,0,0,3.62,2.64H405Q407.77,126,406.93,123.39Zm-25.59-35.6H358.81q-4.17,0-3.06-4,2.22-9.31,5.08-20t6.46-23.37c.56-2,1.18-3.06,1.88-3.06s1.37,1,2,3.06l13.07,43.53Q385.51,87.79,381.34,87.79Z"/><path class="cls-1" d="M139.19,135.75c-2.55.09-4.16-1.51-5.67-3.22s-2.08-4.1-2.7-6.32a6.72,6.72,0,0,1,.12-2.75c.08-.58-.12-.77-.56-1a9.94,9.94,0,0,1-5-6.31c-.54-1.9.27-3.64,1-5.34.5-1.15,1-2.28,1.5-3.43a1.34,1.34,0,0,0,.1-.85c-.77-2.42-.45-5-1-7.43a6.22,6.22,0,0,1,1-4.29,22.64,22.64,0,0,1,3.22-4.72,11.21,11.21,0,0,0,2-3.25,11.05,11.05,0,0,1,5.31-5.27c3.57-1.9,7.54-2.21,11.34-3.16a9.5,9.5,0,0,1,6.36.55,2.13,2.13,0,0,0,.57.1c.07.1.15.09.23,0h0a2.42,2.42,0,0,0,1.69.22,4.34,4.34,0,0,1,3.15.41c.57.29,1.08.69,1.66,1s1.31.7,2,.13a4.19,4.19,0,0,0,1.41-1.92,11.64,11.64,0,0,1-4.95-2.15,20.71,20.71,0,0,1-5.09-5.78,19.89,19.89,0,0,1-2.73-8.26,14,14,0,0,1,.22-6.1c.19-.68.47-1.31.71-2a14.49,14.49,0,0,1,2.79-2.85c.42-.36,1-.58,1-1.27.05-1.23.1-2.46.2-3.69.18-2.49.81-4.7,3.35-5.89a4.48,4.48,0,0,0,1.94-2.19,1.28,1.28,0,0,0,.14-1.15,5.52,5.52,0,0,1-.21-3.75,3.25,3.25,0,0,0-.41-3.21,5.17,5.17,0,0,1,1.25-3.79c1.5-1.78,2.82-3.88,4.86-4.93,2.25-1.15,2.47-2.89,2.42-4.91a5.83,5.83,0,0,1,2.89-5.36,7.73,7.73,0,0,1,4.47-1.37,5.05,5.05,0,0,0,4.38-2.12c.45-.65,1-1.23,1.4-1.91,1.13-2,3.09-2.94,5-3.89A26.69,26.69,0,0,0,193.64.7,4,4,0,0,1,195.8,0c1.7,0,2.28.52,3,2.8A15.66,15.66,0,0,1,201.7.72a2,2,0,0,1,1.82-.31,3.1,3.1,0,0,0,1.42,0A3,3,0,0,1,208.55,2c.45.75.83,1.43,1.91,1.43a1.65,1.65,0,0,1,1.51,1,1.69,1.69,0,0,0,1.34,1c2.17.41,3.6,1.93,5.12,3.32A9,9,0,0,1,221,12.29a5,5,0,0,1,.32,2.62,2.21,2.21,0,0,0,.92,1.9c.67.67,1.47,1.2,2.13,1.87a5.62,5.62,0,0,1,1.91,4.87,3.17,3.17,0,0,0,.17,3.45c.71.9,1.49,1.75,2.13,2.72a13.75,13.75,0,0,1,.72,6.17,18.09,18.09,0,0,1-1.31,5,5.75,5.75,0,0,0-.43,4.18,5.07,5.07,0,0,1-.61,4.2,33.45,33.45,0,0,0-3,5.12c-.29.78-.51,1.58-.81,2.36-.21.56.2,1,.36,1.39a9.06,9.06,0,0,1-.23,7.2,11.56,11.56,0,0,1-1.38,1.92,8.23,8.23,0,0,0-1.75,4.66c-.13,2.66-1.9,4.51-3.68,6.27a13.21,13.21,0,0,1-3.38,2.51,19.06,19.06,0,0,1-3.83,1.5c2.05,2.69,2.16,5.59,1.34,8.6a6.31,6.31,0,0,0,.1,4.79,4.62,4.62,0,0,1-.08,3.19,25.2,25.2,0,0,1-3.17,7.36,10.67,10.67,0,0,0-1.35,6,4.41,4.41,0,0,0,.75,1.84c.88,1.87.13,3.47-.87,5-.34.53-.71,1-1.1,1.54a5.59,5.59,0,0,0-1.2,4.19,6.65,6.65,0,0,1-.73,3.68,18.91,18.91,0,0,0-1.26,4,13.63,13.63,0,0,1-3.9,6.57,22.14,22.14,0,0,1-5.1,3.35,2.43,2.43,0,0,0-1.09,1.15,11.26,11.26,0,0,1-5.34,5.57c-2.57,1.28-5.21,1.74-7.84.12-.47-.3-.71-.21-1,.23-1.44,2.33-3.71,3.63-6.05,4.83a21.69,21.69,0,0,1-2.57,1,2.85,2.85,0,0,1-2.55-.32,15.64,15.64,0,0,1-2.85-1.92c-1.2-1.08-2.7-.9-4.13-1a9.21,9.21,0,0,1-4.94-1.6,9.58,9.58,0,0,1-2.62-3.25c-.25-.79-.53-1.76-1.28-2a41.56,41.56,0,0,1-4-1.37,8.7,8.7,0,0,1-3.77-3.46,28.1,28.1,0,0,1-1.12-2.59C141.17,136.44,140.54,135.67,139.19,135.75Zm13.39-56.46.22.08,0-.16-.19.11c0-.2-.17-.09-.26-.12a.91.91,0,0,0-.87.13c-.17,0-.26-.29-.48-.15,0,0,0,.08,0,.09.15.18.34,0,.51,0s.61.13.87-.14C152.37,79.33,152.45,79.35,152.58,79.29Zm3.5.74.38.06a12.31,12.31,0,0,1,2.13,1.45,36.44,36.44,0,0,1,3,4.56,9.82,9.82,0,0,0,2.08,2.21,10.81,10.81,0,0,0-.5-3.94,5.21,5.21,0,0,0-2.41-3.19c-1.33-.81-2.87-.75-4.26-1.24a.4.4,0,0,0-.4-.19l-.48-.09a5.82,5.82,0,0,0-2.06-.41.54.54,0,0,0-.53-.07.21.21,0,0,0,0,.16.36.36,0,0,0,.5.07,4.25,4.25,0,0,0,2,.36A.55.55,0,0,0,156.08,80Zm33.31-10.41h0a1.91,1.91,0,0,0,1.31-.13h0a2.61,2.61,0,0,0,.55.08,23.81,23.81,0,0,1,8,.79,13.35,13.35,0,0,0,2.66.54,27.65,27.65,0,0,0,7.32-.29,31.44,31.44,0,0,0,11.58-4.33,5,5,0,0,0,2.56-5.13,16.07,16.07,0,0,1-4.51,3.1,30.8,30.8,0,0,1-9.18,2.44,48.47,48.47,0,0,1-7.52.22,22.79,22.79,0,0,0-4.66-.32,36.51,36.51,0,0,0-13,2.64c-.41.16-1,0-1.19.59h0c-.26-.14-.43-.09-.48.23-.46.33-1,.53-1.21,1.1.73-.14,1.46-.42,2.24-.54,1.51-.25,3-.58,4.5-.88.29.12.56.16.77-.14C189.16,69.66,189.27,69.71,189.39,69.62Zm16,35.6c.21-.25-.08-.36-.15-.53a1,1,0,0,0,0-.38,11.88,11.88,0,0,0-5.17-6.07,28.79,28.79,0,0,0-7.81-3.11c-2.58-.68-5.15-1.51-7.88-1.33a20.44,20.44,0,0,0-8,2.2,43.55,43.55,0,0,0-6.07,3.73c-1.92,1.42-3.62,3.09-5.4,4.67-.22.19-.38.35-.08.67a37.75,37.75,0,0,1,8-5.81A16.08,16.08,0,0,1,181.46,97c3.06.12,5.85,1.32,8.69,2.21,2.23.71,4.34,1.78,6.55,2.57a12.08,12.08,0,0,1,5.31,3.56c1,1.17,1.92,2.4,2.87,3.6l.53,1.09a7.92,7.92,0,0,1,.25-2,3.6,3.6,0,0,0-.26-2.81Zm-72,17.22h0a19,19,0,0,0,2.42-3.15,39.61,39.61,0,0,1,8.75-8.35,41.45,41.45,0,0,1,10.18-5.25c2.73-.94,5.47-2.07,8.48-1.46.14,0,.34.11.4-.12s-.16-.3-.35-.36a13.1,13.1,0,0,0-4.31-.47,16.25,16.25,0,0,0-8,2.9c-2.75,1.79-5.36,3.81-8.22,5.39a27.45,27.45,0,0,0-6.73,5.16c-1.11,1.18-2.53,2.17-2.93,3.9-1.26,2.12-1.68,3.54-1.48,5.06l1.72-3C133.48,122.66,133.55,122.58,133.45,122.44Zm33.41-96.27a6.5,6.5,0,0,0-2.26,3.88,2,2,0,0,0,.26,1.57,2,2,0,0,1,.23,2.3,4.49,4.49,0,0,0,1.53,5.33A16.71,16.71,0,0,0,175,42.62a12.16,12.16,0,0,1,4.36,1c2.33,1.27,3.65,3.39,4.77,5.7A12.9,12.9,0,0,0,185.36,52c.79-1.79,2.67-3.09,1.52-5.45l.3.06.76,1.22c.38-.59.73-1.12,1.06-1.66a4.44,4.44,0,0,0,0-4.71,13.61,13.61,0,0,0-1.77-1.87,57.25,57.25,0,0,0-9.1-6c-3.05-1.79-6-3.68-7.23-7.22a8.3,8.3,0,0,1,.12-4.16c-2.68,1.44-2.68,2.59-2.65,5.48a7.8,7.8,0,0,0,2.48,6.08c2.26,2.17,5.18,3.34,7.78,5,2.45,1.56,5,3,6.9,5.25a1.28,1.28,0,0,1,.4,1,14.5,14.5,0,0,0-3.46-3.31c-2.7-1.86-5.54-3.53-8.4-5.14a11.77,11.77,0,0,1-4.78-4.32c-.73-1.28-1.16-2.7-1.92-4l-.28-2.16c0-.1.16-.24,0-.28S166.83,26,166.86,26.17Zm60,20.56A22.25,22.25,0,0,0,224.69,49c-.73.4-1.34,1-2,1.41a37.63,37.63,0,0,1-8.49,3.54c-2.62.73-5.29,1.25-7.93,1.86s-5.11,1-7.67,1.51a35.43,35.43,0,0,0-10.94,3.86,19,19,0,0,0-5.18,4.33,2.62,2.62,0,0,0-.78,1.66,24,24,0,0,1,3.59-2.89A30.58,30.58,0,0,1,193.91,60a42.22,42.22,0,0,1,10.72-1.81A42.93,42.93,0,0,0,214,56.84C217,56,220.05,55,222.59,53c2.38-1.27,3.35-3.56,4.29-5.88,0-.1,0-.23,0-.35l.06-.15s-.07,0-.08,0S226.78,46.72,226.88,46.73ZM178.63,69.92h0a3.84,3.84,0,0,0-2.27-1.59,6.36,6.36,0,0,0-4.42.51c-.59-.2-1,.21-1.56.33-5.11,1.25-9.93.18-14.58-1.67a14.66,14.66,0,0,0,2.42,4.69c.36.56.73,1.23,1.49,1.35a13,13,0,0,0,2.69.29,39.48,39.48,0,0,0,10.59-2,8.08,8.08,0,0,1,7.07.55c.1-1-.65-1.58-1.18-2.29C178.85,69.91,178.77,69.85,178.63,69.92ZM157.44,59l.11-.16a1.7,1.7,0,0,0,.43.38,21.49,21.49,0,0,0,5.16,1.43c2.74.41,5.51.23,8.25.51s5.55.84,7.67,3c.52.55.75,1.36,1.67,1.88a16.87,16.87,0,0,0-1.56-3.91,5.68,5.68,0,0,0-2.53-2.21c-2.87-1.6-6.07-2-9.2-2.61a12,12,0,0,1-4.55-1.73,9.25,9.25,0,0,1-3-3.29c-.28-.53-.52-.88-1.07-.17a6.49,6.49,0,0,1-1.32,1.1c-.25.19-.45.31-.16.67A12.41,12.41,0,0,0,165,58.33c2,.36,4.09.21,6.12.62a15.82,15.82,0,0,1,7,2.79c.28.22.77.27.78.89-.59-.38-1.07-.71-1.58-1a20.25,20.25,0,0,0-10-2.56,13,13,0,0,1-9.41-4c-.36-.37-.49-1.22-1-1.07s-.74.82-1.08,1.28a1.58,1.58,0,0,0-.14.45c-.66.72-.16,1.27.28,1.82.31.39.83.6.93,1.16a3.07,3.07,0,0,1-1.67-1.81c-.67,1.73-.64,2,.33,3.42,0,0,0,.11-.06.17-.43.24-.38-.6-.94-.31.17,1.21.39,2.46.49,3.71a3.36,3.36,0,0,0,1.47,2.45,11.22,11.22,0,0,0,5.38,2.5,18.61,18.61,0,0,0,8.43-.24h0c.12.13.23.07.33,0,.83-.22,1.66-.45,2.49-.65a6.76,6.76,0,0,1,6.29,1.45c.15.12.27.28.55.18a7.54,7.54,0,0,0-.66-1.94c-1.46-2.42-3.8-3.36-6.42-3.68-3.64-.45-7.32.15-11-.37h0c-.07-.1-.14-.21-.3-.14-.72-.27-1.63-.1-2.15-.88.41-.19.79.17,1.19.1a14.52,14.52,0,0,0,3.2.57c2.83.31,5.67-.2,8.51.16a11,11,0,0,1,5.31,1.91,10.57,10.57,0,0,1,2.6,3.18c.2-.51.4-.9.25-1.26A7.45,7.45,0,0,0,176.9,63a17.14,17.14,0,0,0-7.37-1.47,31.29,31.29,0,0,1-11.28-1.68C158,59.47,157.33,59.6,157.44,59ZM207.81,7.46a1.25,1.25,0,0,0-.16.24,16.24,16.24,0,0,1-5.41,8c-.87.73-1.75,1.45-2.7,2.23a1.77,1.77,0,0,0,1.53-.28A17.08,17.08,0,0,0,208.46,9c.15-.38.43-.8.13-1.25a6,6,0,0,0-.13-3.95Zm-73,120.5h0c.22-.2.16-.47.2-.72a10.52,10.52,0,0,1,1.89-4.87c3.08-4.07,7.09-7.13,11.24-10a44.69,44.69,0,0,1,7.34-4.2,19.62,19.62,0,0,1,8.08-2c.17,0,.39.15.48-.14s-.17-.3-.31-.41c-1.64-1.35-3.48-1-5.27-.5a46.33,46.33,0,0,0-8.59,3.42,41.44,41.44,0,0,0-7.12,4.52,35.94,35.94,0,0,0-7.13,7.54c-.77,1.12-1.81,2.08-2.15,3.47-1.38,2.63-2.33,6.34,2.15,9.73-.17-.94-.35-1.79-.46-2.66s-.18-1.83-.27-2.75C135,128.2,134.89,128.08,134.79,128ZM193.3,9.51c.95,2.47,2.43,4.44,5.16,5.26-1.09-2.07-2.53-4-3.15-6.25a16.24,16.24,0,0,1-.55-7.43c-.75.47-1.36.87-2,1.23a.87.87,0,0,0-.48.94A24.08,24.08,0,0,0,193.3,9.51Zm12.56,107.74a3.9,3.9,0,0,0,.29-3.52,12.93,12.93,0,0,1-1.37-3.2,14.12,14.12,0,0,0-4.08-6.06c-2.1-1.92-4.92-2.4-7.4-3.57a60.4,60.4,0,0,0-8-2.73,14,14,0,0,0-8.88.12,26.84,26.84,0,0,0-7.79,4.25,13.08,13.08,0,0,0-3.47,3.68c-.17.29-.42.57-.21,1,.71-.09,1-.76,1.53-1.08a41.65,41.65,0,0,1,8.34-4.1,17.75,17.75,0,0,1,9.14-.81,75.72,75.72,0,0,1,8.48,2.52,25.46,25.46,0,0,1,7.1,3.33,6.8,6.8,0,0,1,2.41,2.62,19.94,19.94,0,0,0-6.95-4.51c-2.4-1-4.89-1.63-7.33-2.47a18.94,18.94,0,0,0-6.85-1.26c-5.08.19-9.49,2.33-13.68,5a5.4,5.4,0,0,0-1.83,2.12c2.08-1,4-2.18,6.13-3a18.47,18.47,0,0,1,10.34-1,43.42,43.42,0,0,1,10.54,3.52,20.88,20.88,0,0,1,7.25,5.22,27.12,27.12,0,0,1,2.55,3.77,18.38,18.38,0,0,1,1.44,3c.08.21.33.39.38.25.25-.7,1.2-1,.93-2-.37-1.4-.52-2.85-.76-4.28a10.7,10.7,0,0,1,1.59,3.21c0,.09,0,.21.06.22S205.88,117.33,205.86,117.25Zm1.42-110a17.11,17.11,0,0,0,.65-4.61c.07-1.09-.69-1.2-1.32-1.41-1-.32-.22.7-.6.88a.34.34,0,0,1-.1,0,9.71,9.71,0,0,0-1.78-.72,2.57,2.57,0,0,1-.38-.08,5.81,5.81,0,0,0-3.91,1.79,1,1,0,0,0-.14.54c.09,1.23.2,2.46.31,3.69-.21,2.38-.57,4.75-.65,7.28,2.82-1.89,4.16-4.58,5.15-7.52.41-.26.08-.94.64-1.11.52.34-.07.74.07,1.1a24.23,24.23,0,0,1-5.86,9c-.11.11-.28.3-.05.53a8.6,8.6,0,0,0,3.32-2A15.88,15.88,0,0,0,207.28,7.27ZM165,84.58c.87-.93,1.84-1.75,2.71-2.67a34.51,34.51,0,0,1,7.5-6.18c.32-.19.64-.4,1-.61a6.79,6.79,0,0,0-2.57.55,11.51,11.51,0,0,0-5.5,3.3c-.93,1-1.6,2.33-2.89,3-.13.07-.18.33-.2.52-.08.66-.13,1.34-.18,2,0,.1-.18.24,0,.3S165,84.73,165,84.58Zm25.09-73.19a7.13,7.13,0,0,0,1.45,2.42,6.23,6.23,0,0,0,6.23,2l-1.47-1.34a14.46,14.46,0,0,1-3.39-4.69A17.76,17.76,0,0,1,192,7.37c-.32-1.26-.49-2.55-.7-3.83-.07-.4-.16-.66-.59-.34a8,8,0,0,1-1.56.74.92.92,0,0,0-.59,1.1A23.51,23.51,0,0,0,190.09,11.39Zm-2.9,1.72a4.81,4.81,0,0,0,.88,1.36c2.1,2.25,4.89,2.59,7.71,2.67a5.3,5.3,0,0,0,2.68-.61c-.31-.27-.59-.09-.86-.07a7,7,0,0,1-5.19-1.34,14.55,14.55,0,0,1-2.71-3.55,41.77,41.77,0,0,0-1.46-4.06,8,8,0,0,0-.77-2.29,14.79,14.79,0,0,0-1.49,2,1.9,1.9,0,0,0-.39,1.65,8.84,8.84,0,0,1,.4,2.36c-.66-.75-.59-1.79-.93-2.64a1.22,1.22,0,0,0-.57,2,19.44,19.44,0,0,0,1.78,3.18l2.79,3.37a12.48,12.48,0,0,1-3-3.1c.39.63.49,1.36.9,2a30,30,0,0,0,4.83,5.88A8.88,8.88,0,0,0,196,24.46c.93.18,1.49-.52,1.82-2,.24-1.06-.56-.74-1-.88s-1.11-.32-1.65-.51a15.79,15.79,0,0,1-4.85-2.59c.46-.33.62,0,.88.18,1.68,1,3.37,1.94,5.45,1.81,1.58-.11,1.54-.06,1.74-1.63.08-.65-.29-1-.69-.95a12.86,12.86,0,0,1-2.85-.23c-3.33-.19-6.21-1.3-8.08-4.27,0-.4-.46-.64-.42-1.06l.2-.09Zm8.56-4.69c.34,1.86,1.55,3.18,2.83,4.52,0-1.86.67-3.63.54-5.48a6.72,6.72,0,0,0,0-1.34c-.12-.78.25-1.65-.37-2.33a3.46,3.46,0,0,1-1-2c-.11-.95-1-.86-1.63-.91s-1.1,0-1,.93-.22,1.7-.16,2.54A11.09,11.09,0,0,0,195.75,8.42Zm15.76.06a11,11,0,0,0,0-3.44c-.09-.75-.74-.57-1.16-.77-.24-.11-.37,0-.4.22-.18,1.18-.34,2.36-.51,3.55a.79.79,0,0,0-.3.47,16.81,16.81,0,0,1-5.3,7.92A36.24,36.24,0,0,1,200,19.28c.32.37.64.21.93.12a13.37,13.37,0,0,0,2.46-1.07,16.63,16.63,0,0,0,6.15-5.89A12.8,12.8,0,0,0,211.51,8.48Zm-37,4.84c-1.5,1.76-1.57,3.81-1.29,5.95,0,.21.4.55,0,.66-.82.24-.76.92-.65,1.42a9.73,9.73,0,0,0,1.13,3.26,11.38,11.38,0,0,0,5.49,6.24c2.26,1.24,4.65,2.23,6.93,3.44a26.14,26.14,0,0,1,5.63,3.77c.54.49.75,1.68,1.46,1.47.5-.14.7-1.28,1-2a.36.36,0,0,0,0-.09,1.24,1.24,0,0,0-.57-1.76c-2.43-1.58-5.06-2.82-7.55-4.29a79.4,79.4,0,0,1-7.68-4.85,42.27,42.27,0,0,1-3.47-3.07l-.53-.89c.11,0,.21,0,.25-.12l.58.65c.32.35.62.71,1,1,4.18,3.85,9.23,6.35,14.13,9.07,1.26.69,2.59,1.23,3.87,1.89.26.14.45.42.73.14a1.58,1.58,0,0,0,.44-1.24c0-.33-.43-.09-.66-.15a12.42,12.42,0,0,1-1.29-.36A37,37,0,0,1,187,30a35.38,35.38,0,0,1-8.16-6.41c-.59-.67-.77-1.65-1.63-2.09-.49-1.09-1-2.18-1.47-3.28a17.93,17.93,0,0,1-1-4.81l-.06-.2Zm20.69,59c-.08-.13-.16-.29-.34-.18a.23.23,0,0,0-.06.22c.09.19.25.09.39.06.76.63,1.73.94,2.45,1.65a8.9,8.9,0,0,0,3.14,2.26,23,23,0,0,1,2.4,1.16A18.93,18.93,0,0,0,206,78.91a16.46,16.46,0,0,0,5.88.49c.77,0,1.7.2,2.35-.46a10.66,10.66,0,0,1,1.54-1.2,1.56,1.56,0,0,0-.34-.12,40.65,40.65,0,0,1-7.8-.07c-2.18-.23-4.39-.47-6.15-2a15.44,15.44,0,0,0-3.08-2c-.57-.31-1.32-.31-1.71-.92,0-.26.22-.2.34-.15a12.61,12.61,0,0,1,3.75,2,9.52,9.52,0,0,0,2,1.43,15.58,15.58,0,0,0,5.77,1.23,62.27,62.27,0,0,0,7.23,0,1.25,1.25,0,0,0,.87-.35,9.06,9.06,0,0,0,2.82-6c-.39.14-.77.25-1.14.41-3.24,1.39-6.52,2.65-10.13,2.53a6,6,0,0,1-3.23-.53v-.3a19.65,19.65,0,0,0,5.83.15,17,17,0,0,0,7.89-3.39,6.68,6.68,0,0,0,2.37-2.87,31.44,31.44,0,0,1-9.79,4,24.66,24.66,0,0,1-11.46.28,26.92,26.92,0,0,0-4.16-.85,40.39,40.39,0,0,0-14,1.52c-.28.07-.58.07-.62.51a3.7,3.7,0,0,0,.37,0A46.21,46.21,0,0,1,191.31,71a24.45,24.45,0,0,1,5.6.39l-.15.28c-.23.14-.56-.06-.77.23.15.33.74.17.72.66C196.13,73,195.77,72,195.2,72.35Zm-15.83,1.06c.09,0,.2,0,.21-.06s-.1-.09-.18-.07a.92.92,0,0,0-.45-.48c-2.1-1.4-4.29-1.15-6.49-.37a31.6,31.6,0,0,1-7.8,1.75c-1.48.13-3,0-4.67,0a12.87,12.87,0,0,0,2.82,2.21c.22.36.52.14.77.09a14.59,14.59,0,0,1,5.35-.51c.37.06.84.34,1.31.11a30.18,30.18,0,0,1,5-1.92Zm-28.6,9.31a14.58,14.58,0,0,0,4,.85,9.16,9.16,0,0,1,5.67,3.24c.85,1,1.73,2,2.65,3.08a2.22,2.22,0,0,0-.47-1.49,41.18,41.18,0,0,1-2.56-4.19,6.74,6.74,0,0,0-5.33-4,17.57,17.57,0,0,0-6.61-.32c-3.23.52-6.54.89-9.5,2.54a8.83,8.83,0,0,0-4,3.86,23.31,23.31,0,0,1,6-3.44,11.39,11.39,0,0,1,6.66-1C148.43,82.13,149.6,82.44,150.77,82.72Zm37,54.94a.26.26,0,0,0-.09-.09,13.64,13.64,0,0,0-3-3.7,49.61,49.61,0,0,0-11.52-8.14c-1.37-.76-2.67-1-4,.12-.24.19-.4.31-.32.69s.29.31.53.35a8.42,8.42,0,0,1,3,1.08,39.19,39.19,0,0,1,7,5.25,24.81,24.81,0,0,1,5.32,7.1,11.07,11.07,0,0,1,.47,8.17,6.39,6.39,0,0,0,1.53-.76,5.23,5.23,0,0,0,2.23-2.14,7.42,7.42,0,0,0,.46-4.39l.31-.23a12.1,12.1,0,0,1,.37,3.15c1.48-1.6.81-3.27.53-5,.85.76.73,1.76,1,2.62,1.48-.64,2-1,2.25-2.12a8.94,8.94,0,0,0,.3-2.51,11.32,11.32,0,0,0-2.25-6.29c-2-3.29-5.2-5.28-8.55-6.83a40.09,40.09,0,0,0-10.5-3.17c-2-.33-3.75-.14-4.92,1.85a2.08,2.08,0,0,1,1.32-.06,68.68,68.68,0,0,1,9.26,3.24,27.68,27.68,0,0,1,6.74,4.43,24.85,24.85,0,0,1,4.07,5.22.75.75,0,0,0,0,.16l-.28.15h0a20.24,20.24,0,0,0-6.92-7.41,39.14,39.14,0,0,0-12-5c-.94-.24-1.53.22-1.82,1.22l.08.21.14-.17a3.17,3.17,0,0,1,3.19-.12,35.75,35.75,0,0,1,5.44,3c4.1,2.6,8,5.46,10.65,9.68a2.17,2.17,0,0,0,0,.25ZM180.61,18.11c.49.34.67.93,1,1.35a40.36,40.36,0,0,0,9.87,8.07,7.43,7.43,0,0,0,2.46,1.2,3.72,3.72,0,0,0-1.11-1.26,39.39,39.39,0,0,1-8.4-9.75A16.92,16.92,0,0,0,183.15,16a6.81,6.81,0,0,0-.85-1.51,19.6,19.6,0,0,1-1.21-2.07c-.58-1.36-.57-1.41-2-1.28-.38,0-.75.16-1.12.18-.62,0-.64.36-.47.81A23.83,23.83,0,0,0,180.61,18.11ZM192,130c1.83,3.08,3.34,6.24,2.63,10.06,1.67-.72,1.75-.88,1.7-2.36,0-.89,0-1.77.06-2.66a8,8,0,0,0-.18-2.7,12.11,12.11,0,0,0-2.49-4.21,17.08,17.08,0,0,0-5.14-3.76,85.12,85.12,0,0,0-13.61-4.86,21.26,21.26,0,0,0-6.57-.44,1.27,1.27,0,0,0-1,.41,1.25,1.25,0,0,0,0,1.44c.17.32.39.12.56,0,1.56-1.1,3.29-.93,5-.61a43.61,43.61,0,0,1,9.81,2.92,22.89,22.89,0,0,1,7.32,4.78A12.57,12.57,0,0,0,192,130Zm12.52-63.67h0a25.33,25.33,0,0,0,6.79-.43,29.33,29.33,0,0,0,7.45-2.16,13.13,13.13,0,0,0,3.73-2.48,2.06,2.06,0,0,0,.41-3c-1.81,2.55-4.48,3.57-7.37,4.14-1.37.26-2.76.36-4.15.53-2.35-.1-4.72-.14-7.07-.33a42.46,42.46,0,0,0-7.47-.3,22.91,22.91,0,0,0-8.69,2.45A20.85,20.85,0,0,0,181.91,69c-.2.23-.45.42-.33.87a10.7,10.7,0,0,1,3.24-1.58c1.75-.51,3.5-1,5.29-1.42a30.24,30.24,0,0,1,7.59-.81l6.4.28Zm-39.93,35.09c1.87-1.41,3.6-3,5.51-4.36a32.23,32.23,0,0,1,7.18-3.83c4.1-1.59,8.44-2.33,12.73-3.25a5.13,5.13,0,0,1,2.75,0c.53.17.81.69,1.35.86a25.1,25.1,0,0,1,6.78,3c3.28,2.59,5.06,6.18,6.65,10.1a8.93,8.93,0,0,0-.81-5.51,26.45,26.45,0,0,0-3.35-4.45,12.79,12.79,0,0,1,4.91,8.44c1.44-1.88,1.33-4.1,1.87-6.1.34-1.25-.77-2.37-.86-3.65,0-.13-.17-.26-.28-.39-1.6-1.87-3.18-3.76-4.81-5.61-.46-.52-.82-1.55-1.09-1.6-1-.17-1.66-1-2.55-1.35A21.08,21.08,0,0,0,192,82.35c-11.32-.18-19.8,5.07-26.45,13.82.82-.45,1.56-1,2.34-1.56,2.12-1.37,4.13-2.89,6.39-4.09,4-2.1,8-4,12.5-4.52a22.61,22.61,0,0,1,9.11.71,19.2,19.2,0,0,1,4,1.77,26.81,26.81,0,0,0,4.37,2.45,7.41,7.41,0,0,1,3.31,2.45c.74,1,1.8,1.86,1.57,3.32v0a.29.29,0,0,0,.11-.41,16.21,16.21,0,0,0-2.92-3.73c-1.09-.93-2.52-1.17-3.69-2a30.91,30.91,0,0,0-6.09-3.24,19.67,19.67,0,0,0-3.56-.78,23.73,23.73,0,0,0-6.41,0A35,35,0,0,0,175,90.75a81.52,81.52,0,0,0-8.51,5.59,7.48,7.48,0,0,0-2.07,2.86,74.54,74.54,0,0,1,6.74-4.63,22.37,22.37,0,0,1,5.68-2.68c3.51-1,7.07-1.91,10.54-3.06a11,11,0,0,1,6.29,0c1.49.37,3,.61,4.5.9,1.09.58,2.41.83,3,2.08-.4-.18-.74-.44-1.11-.65a2.5,2.5,0,0,0-1.28-.52,4.66,4.66,0,0,0-1.4-.58,43.32,43.32,0,0,1-4.54-.88,8.68,8.68,0,0,0-5.17.18c-1.58.5-3.15,1-4.75,1.42-4.82,1.19-9.5,2.59-13.61,5.58a29.74,29.74,0,0,0-4.3,4.16c-.23.26-.55.55-.5,1l-.11.08.1.06Zm19.12-25a22.81,22.81,0,0,0-4.54,2,36.47,36.47,0,0,0-5.55,3.45,39.38,39.38,0,0,0-5.25,4.28c-1.26,1.39-2.37,2.91-3.59,4.33a1.61,1.61,0,0,0-.34,1.62c.56-.49,1.08-.91,1.54-1.38A58.55,58.55,0,0,1,173.06,84a38.73,38.73,0,0,1,8.25-4.64,44.8,44.8,0,0,1,4.81-1.53,3.68,3.68,0,0,0,.74,0,25.4,25.4,0,0,1,9.36.13,37,37,0,0,1,7.31,2.25,9.36,9.36,0,0,1,3.24,1.64c-.38.52-.7,0-.93-.13a38.45,38.45,0,0,0-6.52-2.5A27.38,27.38,0,0,0,191,77.94a8.31,8.31,0,0,0-3.66.44h0l-.26-.06a2.81,2.81,0,0,0-.58,0,31.84,31.84,0,0,0-8.46,3A37.51,37.51,0,0,0,164.6,93.68a1.53,1.53,0,0,0-.37,1.32c.05.21-.11.55.14.6a1,1,0,0,0,.67-.28c.77-.71,1.56-1.41,2.27-2.18a38.78,38.78,0,0,1,7.13-6.28,29.75,29.75,0,0,1,11.48-4.6c1.77-.3,3.57-.21,5.34-.54,1.79.19,3.58.26,5.38.49a12,12,0,0,1,7,3.42c1,1,1.8,2.11,2.71,3.15a26.45,26.45,0,0,0,3.12,3.15,28.53,28.53,0,0,0,.86-4.89,4.54,4.54,0,0,0-3.05-4.75c-.22-.09-.59-.08-.54-.5.65-.22,1.11.49,1.77.4a4.25,4.25,0,0,0-2.06-1.85,68,68,0,0,0-9.56-4.15A16.94,16.94,0,0,0,192.58,75,23.54,23.54,0,0,0,183.66,76.41ZM128.5,104.17a2.56,2.56,0,0,0,.34-.31A31.1,31.1,0,0,1,133,99.18a44.22,44.22,0,0,1,4.67-3.48,22.41,22.41,0,0,1,4.05-1.93,35.94,35.94,0,0,1,8.87-1.92,23.91,23.91,0,0,1,12.5,1.89c-.3-.34-.44-.76-.89-1-1.92-1.06-3.82-2.16-5.72-3.27a7.26,7.26,0,0,0-2.41-.83,25.59,25.59,0,0,0-5.72-.36,16.76,16.76,0,0,0-6,1.24A14.51,14.51,0,0,0,138,91.44a22.71,22.71,0,0,0-4.11,3.16,24,24,0,0,0-5.3,6.63,3.7,3.7,0,0,0-.18,2.91.82.82,0,0,0,0,.2C128.51,104.42,128.48,104.27,128.5,104.17Zm4.91,14.62h0l1.19-1.35a23.49,23.49,0,0,1,6.83-5.66,65.6,65.6,0,0,0,6.87-4.45,51.69,51.69,0,0,1,5.35-3.19c2.89-1.52,6.07-1.45,9.21-1.54-.18-.77-.9-.84-1.46-1-2.3-.85-4.61-1.55-7.1-.73a35,35,0,0,0-5.85,2.73,57,57,0,0,0-6.8,4.64c-2.6,2-5.16,4-7.73,6-.39.3-.71.74-1.29.71h0c.18-.82,1-1.09,1.48-1.61,1.49-1.13,3-2.23,4.48-3.4,3-2.4,6.14-4.61,9.36-6.7.57-.37,1.22-.48,1.79-.84a15,15,0,0,1,5.82-2.28c2.75-.39,5.19.67,7.55,1.8a4.57,4.57,0,0,0-3-2.32,16,16,0,0,0-6.65-.24,43.16,43.16,0,0,0-11.71,3.37c-1.19.53-2.21,1.3-3.36,1.87a17.63,17.63,0,0,0-3.86,2.91,24.21,24.21,0,0,0-2.92,3.07c-1.77,2.28-3.3,4.68-3.5,7.69-.1,1.42,0,1.88,1,2.61a6.75,6.75,0,0,1,2.56-5.43c.2-.18.4-.56.67-.3s-.19.46-.32.67a4.25,4.25,0,0,1-.65.69,4.71,4.71,0,0,0-1.4,4.65c.09.42.24.65.59.73a.77.77,0,0,0,.91-.32,22.28,22.28,0,0,0,1.65-2.33C133.29,119.06,133.5,119,133.41,118.79ZM218.68,13.11a24.4,24.4,0,0,1-3.35,5.33,15.92,15.92,0,0,1-10,5.88,17.65,17.65,0,0,1-6.19-.3c-.71-.15-.88.19-1,.68s-.24,1,.59,1.23a14.59,14.59,0,0,0,6.92,0,19.46,19.46,0,0,0,9.44-4.43,19.73,19.73,0,0,0,5.2-6.52c.67-1.44.2-2.71-.6-4.09ZM143.43,88.45a24.06,24.06,0,0,1,10.28-.29c-.43-1-1.37-1.07-2.13-1.37a10.06,10.06,0,0,0-5.82-.5,13.79,13.79,0,0,0-2.7.49,36.22,36.22,0,0,0-7.24,2.82,45.46,45.46,0,0,0-5.32,3.09,1.51,1.51,0,0,0-.47.47,18.62,18.62,0,0,0-1.92,3.64,5.39,5.39,0,0,0-.16,3.76l.69-.89a28.63,28.63,0,0,1,14.79-11.22Zm42.14-74.33c-.26-1.22-1.2-2.15-1.47-3.38-.07-.3-.28-1-.74-.62s-1.66.08-1.27,1.34,1,2.72,1.54,4c.93,1.18,1.34,2.64,2.26,3.88a44.31,44.31,0,0,0,6,6.71,18.5,18.5,0,0,0,3.74,2.95c.67.35,1.1.47,1.15-.53a11.14,11.14,0,0,1,.32-1.89.92.92,0,0,0-.65-1.18A14.27,14.27,0,0,1,192.58,23a26,26,0,0,1-4.79-5.41ZM150,83.13a11.26,11.26,0,0,0-5-.84,19.31,19.31,0,0,0-9.4,3.9A5.87,5.87,0,0,0,133.09,89a4.11,4.11,0,0,1-1,1.45,1.88,1.88,0,0,0-.66,1c4.82-2.86,9.74-5.32,15.37-6a5.2,5.2,0,0,0,1,.09,10.83,10.83,0,0,1,6.46,2c2.05,1.29,4.13,2.55,6.29,3.65,1,.5,2.14.63,2.89,1.57.39-.95-.44-1.44-.72-2.11a10.91,10.91,0,0,0-4.84-5.57C155.4,83.82,152.63,83.81,150,83.13Zm66-72.43c.32-.58.63-1.18,1-1.75.19-.34.18-.6-.15-.82a9.17,9.17,0,0,0-3.27-1.72c-.17,0-.39-.22-.47,0-.24.76-.83,1.42-.71,2.29-.16-.06-.22,0-.29.15a37.3,37.3,0,0,1-2.65,4.64,17.64,17.64,0,0,1-5,4.78,15.49,15.49,0,0,1-4.82,1.94c-.33.07-.66.14-.61.58s.51.27.75.24a20.35,20.35,0,0,0,11-4.16A21.18,21.18,0,0,0,216.05,10.7ZM178.51,74.57a.62.62,0,0,0-.62.15c-1.8,1.23-3.73,2.25-5.48,3.59a28.61,28.61,0,0,0-7.48,8.58,1.91,1.91,0,0,0-.34,1.77,76.12,76.12,0,0,1,6.7-5.79A51.62,51.62,0,0,1,176,79.54a58.79,58.79,0,0,1,6.54-3.41,2.31,2.31,0,0,0,.75-.08,19.88,19.88,0,0,1,7.9-1.62,14.24,14.24,0,0,1,6.66,1.1.49.49,0,0,0-.25-.62c-3.06-2.2-6.32-3.58-10.24-2.76-1.88.39-3.6,1.2-5.46,1.63C180.78,74.05,179.65,74.32,178.51,74.57Zm20.62,47.31c.15,0,.09-.14.05-.23a24.41,24.41,0,0,0-3.2-4,23.28,23.28,0,0,0-9-4.77c-1.89-.51-3.82-.87-5.73-1.27-.22,0-.52,0-.46-.34s.36-.15.56-.13a43.27,43.27,0,0,1,4.5.93,23.53,23.53,0,0,1,9.26,4.4,20.86,20.86,0,0,1,4.26,4.88,27.76,27.76,0,0,1,3,6.19c1.18-2.9-.8-4.78-1.74-7.07.68.43.83,1,1.17,1.48s.53,1.07,1.05,1.46a8.61,8.61,0,0,0-.86-5.76,14.7,14.7,0,0,0-5.23-6.5,28.85,28.85,0,0,0-4.89-2.81,49.33,49.33,0,0,0-9.39-3.21,18.23,18.23,0,0,0-11.26,1.06c-2.08.87-4.17,1.79-5.5,3.79-.16.24-.45.49-.27.75s.51.09.75-.06a24.64,24.64,0,0,1,6-2.59,20.45,20.45,0,0,1,15.84,1.33,36,36,0,0,1,10,7.61,6.21,6.21,0,0,1,1.54,2.08c-.74-.17-.85-.88-1.27-1.3A44.31,44.31,0,0,0,190,111a24.12,24.12,0,0,0-6.95-2.9,20,20,0,0,0-10.53.46c-2.42.75-4.76,1.62-6.54,3.55-.25.28-.39.49-.24.83l0,.21.16-.15c2.74-2.49,8.27-2.9,10.05-2.27a1,1,0,0,1-.9.3c-2.63,0-5.24,0-7.34,2a6.87,6.87,0,0,0-1.54,2.14c-.08.18-.1.4.1.5s.29-.08.38-.22a5.84,5.84,0,0,1,1.87-1.47,10.55,10.55,0,0,1,7.51-.55c-.26.28-.6.22-.95.19a27,27,0,0,0-4,0c-2,.14-2.84,1.83-4,3.1-.17.2-.56.51-.25.81s.51-.1.75-.24a5.64,5.64,0,0,1,4.19-.88c.94.21,1.9.3,2.84.51a69.69,69.69,0,0,1,7.63,2.15,59.79,59.79,0,0,1,5.6,2.22,44.27,44.27,0,0,1,7.55,4.77c.47.79,1.41,1.2,1.81,2.31l-2.17-2a32.2,32.2,0,0,0-6-3.94,62.36,62.36,0,0,0-16.77-5.44,4.26,4.26,0,0,0-4.14,1.42,30,30,0,0,1,7,.53c3.23.77,6.27,2.16,9.42,3.21a22.54,22.54,0,0,1,9.31,5.6,14.15,14.15,0,0,1,3.35,10.2c1.91-1.73,3.27-3.2,2.27-5.6a16.1,16.1,0,0,0-1.32-2.54A.76.76,0,0,1,198,129l2.53,4.07a3.36,3.36,0,0,0,.1-3.22,15.16,15.16,0,0,1-.84-1.72c-.29-.9-1-1.63-1.07-2.8,1.2,1.42,1.69,3.06,2.75,4.39a12.08,12.08,0,0,0-2.34-7.86Zm19.1-109.22c.31-.59.62-1.18,1-1.76.12-.21.21-.44,0-.59-.58-.38-.79-1.18-1.53-1.34a11.61,11.61,0,0,0-1.11,2.09c-.29.45-.56.91-.86,1.35a19.66,19.66,0,0,1-8.4,7.32c-2.52,1.08-5.2,1.7-7.79,2.59-.19.06-.53-.08-.55.23a.71.71,0,0,0,.4.6,5.49,5.49,0,0,0,2.64.76,14.46,14.46,0,0,0,10.8-3.64A20.91,20.91,0,0,0,218.23,12.66ZM160.09,45.49c-1.29,3.59.91,10.22,6.13,11.1a49.05,49.05,0,0,1,7.57,1.62c2.4.81,4.65,1.83,5.9,4.25.28.55.64,1,1,1.57a6,6,0,0,0,.05-2.88c-.79-2.46-2.77-3.62-4.91-4.62-.3-.14-.69-.12-.82-.53a.41.41,0,0,1,.44-.11A24.18,24.18,0,0,1,180.67,59c.26.22.42.55.87.66.35-1.79.44-3.44-.93-4.93a15.81,15.81,0,0,0-3.71-2.65c-1-.62-2.29-.63-3.2-1.44.7-.39,1.25.17,1.8.38A14.34,14.34,0,0,1,182,55.78c.16.21.3.43.6.43.71,0,1.73-1.56,1.4-2.18-.75-1.39-1.17-3-2.32-4.14A10.34,10.34,0,0,0,177.51,47c-1.85-.59-3.72-1.14-5.61-1.56a9.37,9.37,0,0,1-7.1-5.65,7.49,7.49,0,0,1-2.07,2c-.65.34-.88.73-.59,1.43a12.91,12.91,0,0,1,.37,1.39,6.05,6.05,0,0,0,5.16,4.46c1.77.33,3.52.72,5.28,1.1.31.06.73,0,.77.5-.09,0-.19.12-.26.1-2.36-.49-4.75-.87-7.05-1.53a6.16,6.16,0,0,1-3.77-3.49,27.52,27.52,0,0,1-1.08-3.17,2,2,0,0,0-.88,2.48,23.18,23.18,0,0,0,1.1,3.33,9.07,9.07,0,0,0,5.54,5.08c1.78.62,3.65,1,5.45,1.57A4.22,4.22,0,0,1,175,56c-.3.31-.61.06-.87,0-1.76-.59-3.57-1-5.36-1.52a10.18,10.18,0,0,1-6.46-4.54,28.25,28.25,0,0,1-2-4.34.26.26,0,0,0-.12-.39Zm4.21,103.59a7.51,7.51,0,0,1-1-3.62c.18-3.5.43-7,.87-10.48s1-6.91,3-9.94a1.35,1.35,0,0,0,.12-1.4c-.92,1.52-2.11,2.71-2.95,4.18a30.26,30.26,0,0,0-4,10.68,27.36,27.36,0,0,0,.51,10.51c.13.52.27,1,.38,1.57.06.25.07.54.39.6,1.42.26,2.27,1.45,3.46,2.1.88.48,1.67,1.22,2.9,1A13.16,13.16,0,0,1,164.3,149.08Zm7.31-123.14a.89.89,0,0,0-.06.56A7.39,7.39,0,0,0,174.87,31c2.51,1.83,5.3,3.21,7.91,4.88,3.18,2.05,6.3,4.13,7.76,8a6.23,6.23,0,0,0,1-1.38c.22-.53.83-.88.63-1.63A6.24,6.24,0,0,0,190,37.14,43.54,43.54,0,0,0,182.64,33a20.65,20.65,0,0,1-6.11-3.63,17.38,17.38,0,0,1-3.17-4.52c-.35-1-.7-1.91-1-2.86A8.4,8.4,0,0,0,171.61,25.94ZM186,58.71a14.11,14.11,0,0,1,4.32-2l4.9-1.28c3.38-.89,6.77-1.76,10.14-2.68s6.88-1.91,10.24-3.12a63.82,63.82,0,0,0,6.83-2.71,13.25,13.25,0,0,0,3.83-2.56c.2-.21.52-.54.28-.83s-.6.05-.8.22a21.39,21.39,0,0,1-8,3.93C212.69,49.22,207.46,50,202.28,51a32,32,0,0,0-8.4,2.62c-1.86,1-3.58,2.08-5.34,3.17a11.91,11.91,0,0,0-2.5,2l-1.22.76C185.29,59.32,185.82,59.25,186,58.71Zm-33.29,88.83a5.88,5.88,0,0,0,3.32,2.82l-.78-2.3c0-.1.06-.2,0-.28a24.6,24.6,0,0,1-.43-10.25,23.17,23.17,0,0,1,4.87-10.4c1.7-2.11,3.78-3.88,5.39-6.07.26-.36.88-.82.53-1.16s-.84.28-1.19.55a47.67,47.67,0,0,0-4.69,4.17,46.39,46.39,0,0,0-5.81,6.57c-2.68,4-3,8.47-2.23,13.1C151.94,145.4,151.86,146.62,152.73,147.54Zm24.7-126.45a11.78,11.78,0,0,0,2,2.59c2.19,2.48,5,4.13,7.73,5.93a15.14,15.14,0,0,0,6.72,2.76,3.6,3.6,0,0,0,1.87-.18c.51-.23.72-1,.31-1.29-1.47-.88-2.81-2-4.31-2.81a35.54,35.54,0,0,1-11.27-9.75c-.25-.72-1-1.07-1.27-1.77-.6-1.56-1.67-2.91-2-4.58,0-.17-.17-.45-.38-.32-.55.34-1.33.4-1.43,1.31A13.49,13.49,0,0,0,177.43,21.09Zm48,1c.23-.87-.3-1.48-.7-2.13s-.49-.24-.59.16a51.55,51.55,0,0,1-3.64,5.16,33.6,33.6,0,0,1-12.23,8.83,49,49,0,0,1-12.45,3.51c-.33,0-.79,0-.83.46s.43.5.73.64a7.91,7.91,0,0,0,4.59.37,14.66,14.66,0,0,0,6.19-1.78c3.08-1.94,6.31-3.64,9.49-5.41a46.06,46.06,0,0,0,6.49-4.1A6.84,6.84,0,0,0,225.46,22.11Zm-90.77,84.24a6.35,6.35,0,0,0,.91-.53,28.65,28.65,0,0,1,6.91-4.08,36,36,0,0,1,14.35-3.2c2.06,0,4.17.21,5.9,1.59.62.49.78.1.8-.44.06-1.31-.83-1.92-1.86-2.41a28.18,28.18,0,0,0-4.84-1.48,12.09,12.09,0,0,0-5.41-.48,23.44,23.44,0,0,0-6.71,2.32,59.61,59.61,0,0,0-9.92,6.22,7.25,7.25,0,0,0-1.75,1.25,20.88,20.88,0,0,0-6.32,7.35,5.68,5.68,0,0,0,0,5.81,29.3,29.3,0,0,1,4.5-8.15C132.32,108.78,133.6,107.67,134.69,106.35Zm2-9.34a12.19,12.19,0,0,0-3.2,2.41c-2.33,2.35-5.05,4.52-4.79,8.4,1.5-1.17,3-2.29,4.43-3.51.7-.61,1.67-.87,2.18-1.71a30.92,30.92,0,0,0,4.12-2.46A46.25,46.25,0,0,1,147,96a14.73,14.73,0,0,1,6.59-1.35,15.66,15.66,0,0,1,3.81.79c1.9.61,4,.08,5.87,1.24a2.24,2.24,0,0,0-1.17-2.29c-2.47-1.73-5.31-2.09-8.21-2.16a35.16,35.16,0,0,0-9.83,1.34A20.91,20.91,0,0,0,136.72,97Zm65.05-1.69a13.2,13.2,0,0,0-4.43-2.77c-1.53-.67-3.22-1-4.61-2a1.6,1.6,0,0,0-1.17-.19c-2.29.26-4.51.88-6.76,1.35A40.83,40.83,0,0,0,172.73,96a21.48,21.48,0,0,0-6.33,5.17c-.4.52-1,.85-1.36,1.54a4.33,4.33,0,0,0,1.86-1c1.53-1.11,3-2.33,4.54-3.4a35.23,35.23,0,0,1,6.76-3.64,16.5,16.5,0,0,1,8.5-1.26,47,47,0,0,1,8.77,2.22A21.05,21.05,0,0,1,201,98.32a25.1,25.1,0,0,1,3.5,3.49c.62,1.39,1.82,2.48,2.06,4.15C207.6,104.27,204.58,97.66,201.77,95.32Zm24.57-50.1a27.33,27.33,0,0,1-6.17,3.29c-2.82,1-5.6,2.08-8.47,3-5.83,1.77-11.75,3.17-17.62,4.76-3,.82-6.15,1.45-8.61,3.7a10.92,10.92,0,0,0-3.3,4.94,23.32,23.32,0,0,1,8.6-5.87,51.43,51.43,0,0,1,9.94-2.7c6-1.17,12-2.1,17.69-4.4A19.83,19.83,0,0,0,226,46.78c.35-.21.36-.69.85-.85.3-.09.17-.68,0-.92S226.46,45,226.34,45.22Zm-4.67,9.08c-1,.54-2.07,1.16-3.16,1.61a43.63,43.63,0,0,1-14.24,2.88,35,35,0,0,0-5.22.52,37.83,37.83,0,0,0-9.91,3.33,32.88,32.88,0,0,0-7.89,5.74,3.49,3.49,0,0,0,1.12-.72,6.19,6.19,0,0,1,1.8-1.39,30,30,0,0,0,3.56-1.86,23,23,0,0,1,11.42-2.61c2.89.1,5.78.42,8.67.57a19.14,19.14,0,0,0,4.84-.17c.61.27,1.2,0,1.78-.11,2.91-.36,5.56-1.21,7.05-4.07a18.34,18.34,0,0,0,1.83-4.87Zm-86.14,75.58a7.7,7.7,0,0,0,.69,3.38,1.89,1.89,0,0,0,2.34,1.51,1.86,1.86,0,0,0,1.07,0c-1.92-4.34-1.22-8.4,1.35-12.22,2.41-3.6,5.81-6.15,9.31-8.56a31.47,31.47,0,0,1,4.73-2.77c3.11-1.45,6.21-2.7,9.57-.74a8.72,8.72,0,0,1-.14-1.24,2.27,2.27,0,0,0-1.33-2.06,3,3,0,0,0-2.27-.22,24.32,24.32,0,0,0-8,3.14,57.6,57.6,0,0,0-8,5.41c-1.26,1-2.62,2-3.8,3.13-1.92,1.89-3.93,3.74-5,6.31A7.76,7.76,0,0,0,135.53,129.88Zm24.53,18.88a35.29,35.29,0,0,1-.4-5,27.31,27.31,0,0,1,4.11-15.94,31.49,31.49,0,0,0,2.91-5.73c.06-.19.32-.4.07-.59s-.43.09-.59.21a34.91,34.91,0,0,0-3.43,3c-4.25,4.13-7.11,8.95-7.67,15a16,16,0,0,0,1.38,8.76,10.47,10.47,0,0,0,1,2c.33.42,2.27,1,2.77.61s0-1,0-1.46A3.12,3.12,0,0,0,160.06,148.76Zm16.55-3c.58,1.12.95,2.4,2.36,2.81.43.13.84.69,1.29.21s1.31-1.08,1.05-2.09a1.09,1.09,0,0,1,.1-1,5.25,5.25,0,0,1,.13,3.51c1.59.17,2.44,0,2.84-.84a7.94,7.94,0,0,0,0-7.65,10.17,10.17,0,0,0-2.5-4.34,35,35,0,0,0-9-7.58,3.7,3.7,0,0,0-2.17-.65c-1.42.09-1.48.2-.69,1.46a24.82,24.82,0,0,0,4.26,4.43c1.52,1.47,2,2,2.28,2.92a29.8,29.8,0,0,0-5.69-5.14A86.07,86.07,0,0,0,176.61,145.72Zm-11.93,3.48a14,14,0,0,0,3.88,4.36,1.36,1.36,0,0,0,1.56.23,27.82,27.82,0,0,0,4.27-2.41,13.51,13.51,0,0,1-3.5-2.67,4,4,0,0,1,2,.88c.78.49,1.69,1.07,2.54.76s1.3-1.35,1.65-2.24c.25-.63-.37-1-.57-1.45-.1-.24-.23-.46-.34-.69-.56-1.18-1.1-2.36-1.67-3.53a94.89,94.89,0,0,1-4.65-11.4,10.68,10.68,0,0,0-1.27-3,21.34,21.34,0,0,0-1.07,15.55c-2.54-5.71-1.16-11.29.71-17a2.79,2.79,0,0,0-.47.25c-.11.11-.2.25-.3.37a13.17,13.17,0,0,0-2.71,7.34l-.75,8.1A12.09,12.09,0,0,0,164.68,149.2Zm-23-12.64a15.48,15.48,0,0,1,1.66-5.59c2-4,5.21-6.77,8.68-9.37q2.65-2,5.32-3.93a31,31,0,0,1,5.72-3.48c2.22-1,2.29-1.14.54-2.84a4,4,0,0,0-3.72-1.28,18.84,18.84,0,0,0-5.11,1.85,44.81,44.81,0,0,0-7,4.47,29.63,29.63,0,0,0-5.69,5.61c-2.54,3.32-3.71,6.91-2.64,11,.17.66.15,1.53.75,1.89A4.33,4.33,0,0,1,141.71,136.56Zm41-76a5.41,5.41,0,0,0,.6-.35c.17-.14.3-.33.47-.47a66.09,66.09,0,0,1,8.72-6,22.12,22.12,0,0,1,4.26-1.94,38.77,38.77,0,0,1,6.31-1.46c3-.48,5.88-1.15,8.82-1.7a56.24,56.24,0,0,0,7.59-2,13.5,13.5,0,0,0,4.87-3.14c.78-.74,1.78-1.34,2.1-2.54-1.06.42-2.05.85-3.06,1.22a127.5,127.5,0,0,1-12.61,3.41c-3.62.89-7.36,1.31-10.87,2.63a32.64,32.64,0,0,0-6.5,2.85c-1,.68-2.32,1-3.31,1.74-2.14,1.59-4.53,2.87-6.15,5.13A6.48,6.48,0,0,0,182.69,60.53Zm4.55-9.76c1-.47,2.07-.89,3.06-1.39a72.69,72.69,0,0,1,11-4.42c3.45-1.07,7-1.67,10.52-2.43,4.42-1,8.87-1.76,13-3.63,2-.87,4-1.7,3.85-4.45a10,10,0,0,0-.42-3.36,12.69,12.69,0,0,1-3.16,3.13,41.92,41.92,0,0,1-8.82,4.44A128.51,128.51,0,0,1,197.5,44c-2.57.55-5.06,1.23-7.13,3A9.29,9.29,0,0,0,187.24,50.77ZM191,45.09a1.84,1.84,0,0,0,1-.08c1.3-.41,2.6-.84,3.93-1.15a142.93,142.93,0,0,0,18.91-5.27,47.32,47.32,0,0,0,9.81-4.7,10.14,10.14,0,0,0,3.18-3.14,1,1,0,0,0,0-1.17c-.54-1-1.54-1.6-2.16-2.7a19,19,0,0,1-4.27,5.59,25.77,25.77,0,0,1-9.1,5.5A64.15,64.15,0,0,1,196,41.74C193.82,42,192.42,43.6,191,45.09ZM165,116.7a2.57,2.57,0,0,0-1.83.15,21.43,21.43,0,0,0-7.24,3.81,38.45,38.45,0,0,0-7,7c-2.78,3.65-4.25,7.71-3.52,12.39.24,1.54.54,3,2.39,3.31l.21,0a25.6,25.6,0,0,1-.2-4.1,17.82,17.82,0,0,1,3.67-10.76,31.25,31.25,0,0,1,5.46-5.32C159.62,121,162.52,119.16,165,116.7Zm63.05-79c-.65.1-.9.7-1.37.91a44.32,44.32,0,0,1-5,2.08c-3.31,1-6.72,1.67-10.09,2.44s-6.65,1.27-9.9,2.26a77,77,0,0,0-9.18,3.48,19.14,19.14,0,0,0-6.12,3.75A5.52,5.52,0,0,0,185,55c3.44-1.91,6.74-3.81,10.16-5.48a40.87,40.87,0,0,1,5.58-2.24c3.65-1.17,7.47-1.64,11.18-2.58,4.54-1.14,9.13-2.08,13.43-4C226.57,40.19,228.09,39.64,228.08,37.71ZM166,118a13,13,0,0,0-3.45,1.76,67.75,67.75,0,0,0-7.31,5.61c-3.58,3.15-6.11,6.91-6.77,11.75a17,17,0,0,0,.35,6.27c.18.75.83.61,1.32.63.68,0,.28-.5.29-.76a13.37,13.37,0,0,1,.17-2.68,24.56,24.56,0,0,0,.55-2.87,15.79,15.79,0,0,1,4-8.78,95.19,95.19,0,0,1,9.47-9.37A4.56,4.56,0,0,0,166,118Zm30.89-81.46a2.47,2.47,0,0,0,1.5.11c1-.21,1.93-.42,2.89-.67a39.25,39.25,0,0,0,14.29-6.71,30,30,0,0,0,8.19-9.6.6.6,0,0,0-.06-.76c-.81-1.05-1.19-1.06-1.9.05a34.19,34.19,0,0,1-10.2,10.47,42,42,0,0,1-9.42,4.91A23.94,23.94,0,0,0,196.84,36.52Zm27-8.77c-1,.31-1.58,1.11-2.35,1.59q-3.8,2.37-7.76,4.44c-2.21,1.16-4.39,2.39-6.49,3.75a16.28,16.28,0,0,1-7.37,2.18,33,33,0,0,1-5,.08c-.7,0-.93.43-1.2.9-.13.24-.19.59,0,.7a1.3,1.3,0,0,0,1.19-.11.64.64,0,0,1,.28-.06,43,43,0,0,0,7.56-1.12c6.07-1.28,11.93-3,16.93-6.92A13.84,13.84,0,0,0,223.85,27.75ZM165.75,39.1c.07.93.73,1.51,1,2.26a4.27,4.27,0,0,0,2.07,2.38,18.54,18.54,0,0,0,4.67,1.59,41.45,41.45,0,0,1,4.21,1.17,10,10,0,0,1,5,4.26,5.94,5.94,0,0,0,1.4,1.94c.25.19.51.36.77.18s0-.45-.06-.69a30.45,30.45,0,0,0-1.37-3.66,8.79,8.79,0,0,0-4.92-4.77c-1.57-.59-3.27-.51-4.88-.84A17.12,17.12,0,0,1,165.75,39.1Zm-20.66,103c-.07-.91-.09-1.6-.19-2.28a14.62,14.62,0,0,1,.86-7.7c2.23-5.35,6.31-9.2,10.8-12.64a27.23,27.23,0,0,1,7.53-3.61c.4-.15,1.1-.13,1-.67s-.8-.28-1.21-.24a8.43,8.43,0,0,0-3.54,1.39,61,61,0,0,0-6.35,4.48c-2,1.57-4.06,3.08-5.92,4.82a20.12,20.12,0,0,0-4.08,5.16,12.6,12.6,0,0,0-1,8.2A4.86,4.86,0,0,0,145.09,142.08ZM196,35.64c.75-.22,1.42-.42,2.09-.59a41,41,0,0,0,15.8-7.95,36.74,36.74,0,0,0,7.69-8.83c.48-.76.49-1.26-.31-1.69A26.77,26.77,0,0,1,217,22.33a44.71,44.71,0,0,1-5.48,4.89,38.81,38.81,0,0,1-5.91,3.59C203,32.2,200,32.71,197.33,34A2.13,2.13,0,0,0,196,35.64Zm23.08-17.15a.39.39,0,0,0-.48.17,23.71,23.71,0,0,1-2.76,2.91,19.74,19.74,0,0,1-10.87,5,22.91,22.91,0,0,1-6.3.16c-.31,0-.7-.14-.79.43s.15.55.52.71a9.23,9.23,0,0,0,4.59.55,20.42,20.42,0,0,0,12.65-5.51A18.36,18.36,0,0,0,219.08,18.49ZM210.65,27a1.87,1.87,0,0,0-.34.08c-3.49,1.66-7.23,2-11,2-1.1,0-1.67.3-2,1.34a9.74,9.74,0,0,0-.31,1.32c-.15.78.27,1.17,1.1,1A31.27,31.27,0,0,0,210.65,27ZM169.39,76.53c-1.61-.43-2.88.27-4.26.87C167.34,78.52,167.34,78.52,169.39,76.53Zm37.89,3.37c.78.36,1,1.75,2.2,1.3A6.13,6.13,0,0,0,212.1,80C210.42,79.91,208.88,80,207.28,79.9ZM164,83.36a1.37,1.37,0,0,0-.85-2.09,2.94,2.94,0,0,1-.64-.42,4.39,4.39,0,0,0-2.52-.58A18.61,18.61,0,0,1,164,83.36ZM184.59,60c-.79.69-2.05,1-2.17,2.3Zm11.18,12,.09-.12-.15-.1c-.08-.06-.12,0-.11.06S195.64,72,195.77,72Zm-13.63-9.38h.07l0,0Zm-14,63.94,0-.08s-.06,0-.08,0,0,0,0,.08Z"/><path class="cls-1" d="M197.65,123.56c0,.25-.18.32-.35.4a21.4,21.4,0,0,0-4.75-4.75,26.41,26.41,0,0,0-9.27-4.44c-1-.28-2-.38-3-.57.08-.47.35-.48.7-.41A26.83,26.83,0,0,1,192.85,119a25.4,25.4,0,0,1,4.4,4.33A1.44,1.44,0,0,0,197.65,123.56Z"/><path class="cls-1" d="M204,112.49a1.48,1.48,0,0,0,.34,1l-.6-.11c-.07-1.14-.82-2-1.24-3C203.36,110.81,203.29,111.91,204,112.49Z"/><path class="cls-1" d="M170.6,147.88c-.14.12-.29.25-.5.15,0-.48-.44-.62-.66-.93a23.68,23.68,0,0,1-1.78-3A23.67,23.67,0,0,0,170.6,147.88Z"/><polygon class="cls-1" points="209.19 96.7 209.2 96.72 209.18 96.72 209.19 96.7"/><path class="cls-1" d="M196.91,71.4a23.83,23.83,0,0,1,4.51.73c.16,0,.35.09.29.28s-.36.26-.55.18a21.64,21.64,0,0,0-2.7-.57c-.57-.14-1.18,0-1.7-.34Z"/><path class="cls-1" d="M205,73.17a6.91,6.91,0,0,1-3.16-.66,9.67,9.67,0,0,1,3.17.36Z"/><path class="cls-1" d="M177.46,137.82a9.47,9.47,0,0,1,2.8,4.47C179.36,140.78,178.4,139.31,177.46,137.82Z"/><path class="cls-1" d="M155.41,60.44c1,.15,1.62,1,2.55,1.29.27.08.69.13.68.59A5,5,0,0,1,155.41,60.44Z"/><path class="cls-1" d="M158.63,62.31c.33-.28.35-.28.82.19C159.09,62.79,159,62.77,158.63,62.31Z"/><path class="cls-1" d="M132.63,114.87l.18.07,0,0-.12-.11Z"/><path class="cls-1" d="M205.93,2.1c0,.4.4.86-.26,1.09A.73.73,0,0,1,205.93,2.1Z"/><path class="cls-1" d="M205.6,4.14c.27.45.23.82-.26,1.08A.7.7,0,0,1,205.6,4.14Z"/><path class="cls-1" d="M205.67,3.17c.4.37.37.69-.08,1C205.21,3.79,205.47,3.49,205.67,3.17Z"/><path class="cls-1" d="M205.34,5.2c.38.38.32.65-.19.82C204.89,5.67,204.94,5.4,205.34,5.2Z"/><path class="cls-1" d="M156.81,58.66c.37-.26.54,0,.65.29C157.09,59.21,156.92,59,156.81,58.66Z"/><path class="cls-1" d="M179.78,112.36c0-.23-.28-.28-.6-.81-.2-.32-.13-.38-.28-.53a1.07,1.07,0,0,0-1.31-.13c-.16.14-.08.26-.33.9-.15.39-.21.42-.21.6a1.07,1.07,0,0,0,.38.82,1.18,1.18,0,0,0,1.31.13c.16-.09.11-.14.4-.42S179.76,112.53,179.78,112.36Z"/><text class="cls-2" transform="translate(211.34 155.41)">INTERIORES</text></g></g></svg>