<svg xmlns="http://www.w3.org/2000/svg" viewBox="0 0 549.7 264.29"><defs><style>.cls-1{fill:#473018;}</style></defs><g id="Camada_2" data-name="Camada 2"><g id="Camada_1-2" data-name="Camada 1"><path class="cls-1" d="M216.32,171.42a5.56,5.56,0,0,0-5.7-4.3H184.1c-3.08,0-4.93,1.5-5.55,4.48a294.45,294.45,0,0,0-6.17,34.84,3.38,3.38,0,0,1-1.92,1.31,9.84,9.84,0,0,1-2.7.38,8.92,8.92,0,0,1-2.62-.38,4.23,4.23,0,0,1-2-1.31L194.58,98.52h9.1a3.85,3.85,0,0,1,4,2.93l30.37,102.06q.93,2.93-2.16,2.93l-6-.16a3.84,3.84,0,0,1-4-2.91Zm-22.2-59.95q-4,14-7.17,25.9t-5.62,22.2q-1.25,4.47,3.39,4.47h25q4.63,0,3.24-4.32l-14.49-48.25q-.93-3.39-2.16-3.39T194.12,111.47Z"/><path class="cls-1" d="M284.77,158A122.66,122.66,0,0,0,298,179.53a238,238,0,0,0,19.35,22.28,9.19,9.19,0,0,1-4.93,4.32,11,11,0,0,1-6.78.31,137.3,137.3,0,0,1-14.73-20,202.76,202.76,0,0,1-12.25-23.2c-.72-1.64-1.6-2.47-2.63-2.47a3.93,3.93,0,0,0-2.62,1.39,44.13,44.13,0,0,0-8.47,12.49,34.28,34.28,0,0,0-2.63,13.57v15.1q0,3.09-3.08,3.09h-5.4q-3.08,0-3.08-3.09V101.6q0-3.07,3.08-3.08h21q18.19,0,28.37,5.78t10.17,16.11a17.42,17.42,0,0,1-2.46,9.17,35.37,35.37,0,0,1-6.32,7.64A82.84,82.84,0,0,1,296,144q-4.63,3.24-8.94,6.63c-1.75,1.34-2.78,2.49-3.09,3.47S284,156.39,284.77,158ZM266.89,101.6c-3.08,0-4.63,1.54-4.63,4.63v66.44Q266.73,162.5,280,152q11-8.64,15.73-16.42A29.74,29.74,0,0,0,300.5,120q0-18.35-25.29-18.35Z"/><path class="cls-1" d="M376.66,171.42c-.93-2.86-2.83-4.3-5.71-4.3H344.44c-3.09,0-4.94,1.5-5.55,4.48a292.4,292.4,0,0,0-6.17,34.84,3.4,3.4,0,0,1-1.93,1.31,9.73,9.73,0,0,1-2.7.38,9,9,0,0,1-2.62-.38,4.2,4.2,0,0,1-2-1.31L354.92,98.52H364a3.84,3.84,0,0,1,4,2.93L398.4,203.51q.92,2.93-2.16,2.93l-6-.16a3.83,3.83,0,0,1-4-2.91Zm-22.2-59.95q-4,14-7.17,25.9t-5.63,22.2q-1.23,4.47,3.39,4.47h25q4.62,0,3.24-4.32l-14.5-48.25c-.61-2.26-1.33-3.39-2.15-3.39S355.07,109.21,354.46,111.47Z"/><path class="cls-1" d="M400.25,152.48a83.88,83.88,0,0,1,2.7-21.82,54.94,54.94,0,0,1,7.93-17.57,38.9,38.9,0,0,1,12.95-11.8A35.45,35.45,0,0,1,441.41,97a37.6,37.6,0,0,1,16.8,3.7,26.69,26.69,0,0,1,11.57,10.48,5,5,0,0,1-.93,2.78,8.2,8.2,0,0,1-2.31,2.31,9.28,9.28,0,0,1-3,1.31,4.79,4.79,0,0,1-2.85-.08q-2.93-8.94-7.94-13.18a17.25,17.25,0,0,0-11.48-4.24A18.6,18.6,0,0,0,429.85,104a32.3,32.3,0,0,0-9,10.87,64.26,64.26,0,0,0-5.78,16.57,107.5,107.5,0,0,0,0,42.09,64.2,64.2,0,0,0,5.78,16.58A32.8,32.8,0,0,0,429.77,201a18.24,18.24,0,0,0,11.33,3.94A17.26,17.26,0,0,0,453,200.35q5.08-4.54,7.56-12.87a4.79,4.79,0,0,1,2.85-.08,9.28,9.28,0,0,1,3,1.31A8.46,8.46,0,0,1,468.7,191a5,5,0,0,1,.92,2.78,26.72,26.72,0,0,1-11.56,10.48,37.66,37.66,0,0,1-16.8,3.7,34.91,34.91,0,0,1-17.5-4.32,39.13,39.13,0,0,1-12.88-11.79A55,55,0,0,1,403,174.29,83.75,83.75,0,0,1,400.25,152.48Z"/><path class="cls-1" d="M527.74,171.44q-1.38-4.32-5.7-4.32H495.52c-3.08,0-4.93,1.5-5.55,4.48a292.08,292.08,0,0,0-6.16,34.84,3.44,3.44,0,0,1-1.93,1.31,9.78,9.78,0,0,1-5.4,0,3.44,3.44,0,0,1-1.93-1.31L506,98.52h9.09a3.85,3.85,0,0,1,4,2.93l30.37,102.06q.93,2.93-2.16,2.93h-6a3.85,3.85,0,0,1-4-2.93Zm-22.2-60q-4,14-7.17,25.9t-5.62,22.2c-.83,3,.31,4.47,3.39,4.47h25q4.64,0,3.24-4.32l-14.49-48.25c-.72-2.26-1.46-3.39-2.23-3.39S506.16,109.21,505.54,111.47Zm-2.46-20.35a47.75,47.75,0,0,0,9.86-18,10.4,10.4,0,0,1,5.17.69,7.63,7.63,0,0,1,3.78,3.63Q516.64,87,505.08,93.12a1.68,1.68,0,0,1-1.31-.61A3,3,0,0,1,503.08,91.12Z"/><path class="cls-1" d="M13.83,199.73h0Z"/><path class="cls-1" d="M108.25,232.14v0h0Z"/><path class="cls-1" d="M126.16,208.83s0,0,0,0v0Z"/><polygon class="cls-1" points="15.67 215.51 15.68 215.5 15.67 215.49 15.67 215.51"/><path class="cls-1" d="M65.78,106.77h0Z"/><path class="cls-1" d="M94.1,118.7h0Z"/><path class="cls-1" d="M112.49,118.8h0Z"/><path class="cls-1" d="M56.49,133.1h0Z"/><path class="cls-1" d="M143.17,1.17a5.29,5.29,0,0,1-2.44,0,3.49,3.49,0,0,0-3.13.41A27.9,27.9,0,0,0,132.5,5c-1.08-3.94-2-4.92-5-5a6.79,6.79,0,0,0-3.72,1.07,49,49,0,0,1-5.48,2.61c-3.34,1.51-6.74,3-8.81,6.36a40.09,40.09,0,0,1-2.51,3.2,8.61,8.61,0,0,1-7.6,3.37,13.33,13.33,0,0,0-7.75,2.09,10,10,0,0,0-5.26,9c0,3.45-.51,6.41-4.42,8.26-3.55,1.67-5.94,5.19-8.61,8.15A8.89,8.89,0,0,0,71,50.54a5.55,5.55,0,0,1,.51,5.51,9.57,9.57,0,0,0,.15,6.44,2.17,2.17,0,0,1-.3,2,7.71,7.71,0,0,1-3.45,3.63C63.5,70,62.31,73.73,61.84,78c-.23,2.1-.39,4.2-.55,6.31-.08,1.17-1.06,1.53-1.8,2.11a24.84,24.84,0,0,0-4.94,4.72c-.45,1.11-1,2.18-1.34,3.34a24,24,0,0,0-.73,10.42c.6,5,1.5,9.94,4.21,14.31,2.33,3.76,4.75,7.47,8.37,10.19,2.53,1.81,5.15,3.45,8.34,4a6.88,6.88,0,0,1-2.53,3.2c-1.14.95-2.3.19-3.35-.33s-1.82-1.21-2.77-1.75a7.52,7.52,0,0,0-5.37-.88,4.12,4.12,0,0,1-2.87-.47.23.23,0,0,1-.38,0,3.72,3.72,0,0,1-1-.2,16.32,16.32,0,0,0-10.86-1.33c-6.55,1.42-13.37,1.72-19.59,4.76-4.1,2-7.39,4.56-9.39,8.72a19.37,19.37,0,0,1-3.58,5.44A39.06,39.06,0,0,0,6,158.36c-1.32,2.23-2.54,4.69-2,7.27.84,4.24.15,8.6,1.33,12.79A2.29,2.29,0,0,1,5,179.86c-.89,1.94-1.85,3.85-2.77,5.78-1.37,2.88-2.85,5.81-2,9.08a17,17,0,0,0,8.2,11.1c.75.42,1.09.77.91,1.75-.27,1.54-.74,3.12-.36,4.7.93,3.84,1.64,7.82,4.25,11,2.48,3,5.15,5.84,9.52,5.83,2.31-.06,3.35,1.3,3.94,3.34.46,1.55,1.17,3,1.77,4.51a14.92,14.92,0,0,0,6.25,6.14c2.21,1,4.54,1.75,6.83,2.58,1.27.46,1.68,2.15,2.08,3.51a16.22,16.22,0,0,0,4.28,5.72,15.78,15.78,0,0,0,8.36,3c2.44.29,5,.07,7,2A27.45,27.45,0,0,0,68,263.34a4.88,4.88,0,0,0,4.35.7,42.08,42.08,0,0,0,4.46-1.56c4.08-1.92,8-4,10.64-7.92.49-.73.9-.87,1.69-.34,4.41,2.92,8.95,2.3,13.42.26a19.34,19.34,0,0,0,9.46-9.23,4.25,4.25,0,0,1,1.94-1.9c3.1-1.61,6.29-3,8.93-5.44a23.59,23.59,0,0,0,7.06-11,32.43,32.43,0,0,1,2.38-6.73,11.38,11.38,0,0,0,1.46-6.25,9.62,9.62,0,0,1,2.3-7.1c.7-.83,1.37-1.68,2-2.57,1.79-2.6,3.17-5.31,1.78-8.54-.46-1.06-1.23-2-1.18-3.21.12-3.57.56-7,2.66-10.12A43.34,43.34,0,0,0,147.23,170c.51-1.8,1.09-3.75.32-5.46-1.29-2.84-.75-5.45.1-8.2,1.58-5.11,1.56-10.08-1.8-14.8a32,32,0,0,0,6.65-2.36,22.24,22.24,0,0,0,5.94-4.09c3.14-2.91,6.29-6,6.65-10.52a14,14,0,0,1,3.28-7.87,21.11,21.11,0,0,0,2.48-3.21,15.51,15.51,0,0,0,.8-12.32c-.24-.75-.92-1.44-.53-2.39.55-1.32,1-2.68,1.52-4,1.3-3.17,3.59-5.73,5.39-8.59A8.73,8.73,0,0,0,179.32,79a9.78,9.78,0,0,1,1-7.13,30.65,30.65,0,0,0,2.53-8.47A23.44,23.44,0,0,0,182,52.77c-1-1.68-2.32-3.18-3.48-4.76-1.35-1.83-1.09-3.93-.1-5.92.64-3.4-.85-6.07-3-8.44-1.08-1.2-2.43-2.15-3.53-3.33-.84-.91-1.76-2-1.47-3.31a8.29,8.29,0,0,0-.4-4.5,15.2,15.2,0,0,0-4.21-6.17c-2.52-2.47-4.88-5.15-8.56-6A2.87,2.87,0,0,1,155,8.61a2.86,2.86,0,0,0-2.52-1.88c-1.85-.06-2.47-1.23-3.2-2.55C147.8,1.53,146.17.8,143.17,1.17Zm-8.89,4.4c.82-1.37,5.22-3.18,6.81-2.83.21,0,.42.13.63.16a17.49,17.49,0,0,1,3,1.32,1.22,1.22,0,0,0-.45,1.8c-.37.51-.82,1-.2,1.65a1.2,1.2,0,0,0-.49,1.8c-.68.3-.78.75-.38,1.35-.95.26-.44,1.44-1.15,1.86-1.85,5-4.31,9.49-9.25,12.58.28-4.34,1-8.38,1.53-12.44-.11-2.11-.23-4.22-.31-6.33A1.7,1.7,0,0,1,134.28,5.57Zm-6.14-4c1.09.12,2.6,0,2.74,1.65a6,6,0,0,0,1.56,3.45c1,1.21.34,2.68.51,4a11.77,11.77,0,0,1-.16,2.28c.12,3.18-1.11,6.16-1.24,9.36-2.12-2.37-4.11-4.71-4.58-7.91a19.37,19.37,0,0,1-1.08-7c-.06-1.44.48-2.9.43-4.35S127.23,1.44,128.14,1.55Zm-6.8,3.82a1.53,1.53,0,0,1,.89-1.58c1.1-.57,2.16-1.23,3.48-2a27.92,27.92,0,0,0,.5,12.76c.94,4,3.28,7.28,5,10.88-4.62-1.57-7-5-8.52-9.31A41.57,41.57,0,0,1,121.34,5.37Zm-5.43,1a14.49,14.49,0,0,0,2.71-1.19c.75-.52.89-.06,1,.62.29,2.21.51,4.43,1,6.61A32.25,32.25,0,0,0,122,16.53a25.34,25.34,0,0,0,5.53,8.22c.82.78,1.62,1.57,2.44,2.37-3.71,1-8.08-.71-10.55-3.72a12.16,12.16,0,0,1-2.33-4.24,40.17,40.17,0,0,1-2.29-10.95A1.56,1.56,0,0,1,115.91,6.36ZM108.67,14c.52,1.48.35,3.25,1.43,4.57.21-1.42-.39-2.71-.54-4.06a3.24,3.24,0,0,1,.77-2.81A24.9,24.9,0,0,1,113,8.45a14,14,0,0,1,1.19,4c.65,2.38,1.83,4.59,2.25,7.05,1.4,2.13,2.37,4.5,4.44,6.23a12,12,0,0,0,8.8,2.59c.46,0,1-.31,1.47.17a9.11,9.11,0,0,1-4.62.89c-4.82-.31-9.58-1.05-13-5A8.77,8.77,0,0,1,112,21.94l-1-1.57-.35.15c-.09.72.61,1.16.66,1.83,3,5.2,7.89,7.27,13.59,7.79,1.61.15,3.16.75,4.85.56.7-.08,1.31.56,1.14,1.67-.44,2.68-.36,2.6-3.08,2.68-3.57.11-6.41-1.6-9.23-3.42-.43-.27-.68-.89-1.49-.35A27.15,27.15,0,0,0,125.26,36c.92.34,1.86.64,2.8,1,.79.27,2.18-.22,1.71,1.58-.66,2.54-1.66,3.7-3.23,3.34-3-.68-5.1-2.72-7.14-4.76a51.84,51.84,0,0,1-7.93-10.34c-.65-1.11-.79-2.37-1.43-3.47,1.51,2,2.82,4.07,5,5.49l-4.58-5.94c-1.35-1.64-1.85-3.72-2.85-5.54C106.86,16,107,14.75,108.67,14Zm29,13.33a27.76,27.76,0,0,0,9.74-13.45,1.57,1.57,0,0,1,.29-.4c.41-1.94.82-3.88,1.32-6.29.58,2.57.94,4.66,0,6.77.5.79,0,1.49-.3,2.13a29.21,29.21,0,0,1-13.15,14.5,3,3,0,0,1-2.63.4C134.58,29.69,136.12,28.52,137.65,27.32Zm.56,21.74a15.87,15.87,0,0,1-7.82-1.19c-.63-.3-1-.44-.85-1.26s.84-.77,1.37-.69a39.87,39.87,0,0,0,10.8.1,33.88,33.88,0,0,0,18.89-7.94,40.41,40.41,0,0,0,4.89-4.81.68.68,0,0,1,.83-.27,31.42,31.42,0,0,1-6.14,7.37C153.93,45.94,146.51,48.6,138.21,49.06Zm13.2-2c-6.71,4.53-13.85,7.88-21.85,9.12-1.42.22-2.12-.46-1.83-1.8a19,19,0,0,1,.61-2.24C129,50.44,130,50,131.85,50c6.47.17,12.89-.14,19-2.77A2.91,2.91,0,0,1,151.41,47.11Zm-48-28.29c-.6-2.19,1.47-1.58,2.24-2.22s1.14.59,1.24,1.11c.39,2.12,1.95,3.75,2.32,5.86,1.2,2.05,2.39,4.1,3.59,6.13a44.9,44.9,0,0,0,7.89,9.54,24.12,24.12,0,0,0,6.55,4.37,1.56,1.56,0,0,1,1.05,2,20.24,20.24,0,0,0-.66,3.24c-.15,1.7-.87,1.47-2,.83-2.43-1.35-4.28-3.4-6.24-5.27a75.39,75.39,0,0,1-10-11.84c-1.5-2.18-2.12-4.69-3.64-6.77C104.94,23.53,104.08,21.21,103.42,18.82Zm-7-.5c.64,0,1.28-.21,1.93-.24,2.44-.14,2.42-.06,3.34,2.31A36.06,36.06,0,0,0,103.6,24,11.71,11.71,0,0,1,105,26.63a29.11,29.11,0,0,1,2.18,3A66.89,66.89,0,0,0,121,46.85a6.71,6.71,0,0,1,1.83,2.22,12.46,12.46,0,0,1-4.15-2.2A69.2,69.2,0,0,1,102.21,32.5c-.62-.75-.89-1.77-1.72-2.39a41.11,41.11,0,0,1-5-10.43C95.27,18.91,95.32,18.33,96.38,18.32Zm-2.06.55c.36-.21.58.27.63.56.48,2.89,2.24,5.26,3.16,8,.42,1.22,1.7,1.86,2.07,3.11a60.91,60.91,0,0,0,18.74,17.35c2.52,1.54,4.75,3.46,7.22,5.06.68.43.27,1.82-.62,2.18a6,6,0,0,1-3.21.2A26.11,26.11,0,0,1,111,50.19c-4.53-3.26-9.28-6.24-12.88-10.61A20.08,20.08,0,0,1,94.88,35c-2.29-4.39-3.78-9-3.09-14C92,19.48,93.36,19.42,94.32,18.87ZM87.8,32.8c.62-.16,0-.76,0-1.12-.35-3.69-.11-7.2,2.56-10.11l.34-.21.08.36c.29,2.78.3,5.62,1.35,8.28.75,1.91,1.54,3.8,2.32,5.71,1.46.8,1.71,2.49,2.67,3.67,3.82,4.68,8.67,8.1,13.59,11.44a63.23,63.23,0,0,0,11,6.42,21.6,21.6,0,0,0,2.2.7c.38.12,1.08-.27,1.11.29a2.67,2.67,0,0,1-.83,2.1c-.49.46-.8,0-1.24-.27-2.14-1.21-4.4-2.21-6.51-3.48-8.23-4.93-16.73-9.5-23.66-16.34-.57-.56-1.06-1.21-1.58-1.81l-1-1.15c-.08.21-.24.23-.43.19L90.66,39a74.06,74.06,0,0,0,5.76,5.44,134.74,134.74,0,0,0,12.86,8.75c4.18,2.67,8.61,4.94,12.69,7.79a2.13,2.13,0,0,1,.87,3.05,1,1,0,0,0-.07.15c-.61,1.16-1,3.09-1.88,3.31-1.24.31-1.52-1.73-2.41-2.61a46.13,46.13,0,0,0-9.43-6.78c-3.82-2.2-7.87-4-11.65-6.29a19.39,19.39,0,0,1-9-11,16.25,16.25,0,0,1-1.75-5.64C86.44,34.33,86.39,33.17,87.8,32.8Zm35.91,35.26a52.57,52.57,0,0,0,8.51.14c4.46-.28,8.86-1,12.75-3.3,3.67-2.2,7.48-4.18,11.32-6,4.61-2.22,9.13-4.59,13.55-7.15,1.35-.79,2.35-2.11,4.11-2.58a23.63,23.63,0,0,1-7.43,9c-8.79,6.36-18.93,9-29.4,10.87a72.91,72.91,0,0,1-13,1.47,1.15,1.15,0,0,0-.48.1,2.27,2.27,0,0,1-2,.11c-.36-.2-.24-.8,0-1.2C122.1,68.75,122.51,67.94,123.71,68.06Zm-36-26.81a29.52,29.52,0,0,0,5.17,7.91c2.88,3,6.58,4.76,10.24,6.59a73.72,73.72,0,0,1,12.29,7.48c2.16,1.66,3,4,3.63,6.52.3,1.29-.77,1.86-1.16,2.76A11.35,11.35,0,0,1,116,74.8c-2.27-6.65-7.49-10.4-12.83-14.08-4.36-3-9.06-5.54-13.25-8.82-2.62-2-4.86-4.45-5.42-7.95a1.47,1.47,0,0,1,.14-1,14.3,14.3,0,0,1,1.44-6.71ZM75.32,65.49A7.69,7.69,0,0,1,73,56.28c.63-1.46.75-2.66-.26-4a3.35,3.35,0,0,1-.35-2.69c.42-2.76,2.11-4.73,4.08-6.52,0-.27.16-.46.35-.41s0,.31,0,.48c.12,1.24.23,2.47.35,3.7,1.23,2.2,1.88,4.64,3.06,6.89,1.83,3.48,4.7,5.7,7.92,7.66,4.8,2.94,9.56,5.95,14.09,9.29A24.92,24.92,0,0,1,108,76.6a2.23,2.23,0,0,0-.64-1.78c-3.16-4-7.39-6.58-11.49-9.39-4.36-3-9.29-5.17-13-9A13.4,13.4,0,0,1,79,45.86c.13-4.93.18-6.91,4.86-9.21a14.1,14.1,0,0,0-.44,7.11c2,6.14,6.83,9.54,12,12.77s10.65,6.52,15.23,10.8a23,23,0,0,1,2.91,3.32c1.51,2.08,1.34,5.64-.25,8-.6.91-1.23,1.8-1.91,2.79l-1.24-2.13-.5-.12c1.83,4.09-1.47,6.21-2.91,9.24-1.13-1.56-1.32-3.29-2-4.81-1.78-4-3.91-7.71-7.84-10-2.27-1.34-4.89-1.49-7.4-1.9A28.7,28.7,0,0,1,75.32,65.49Zm-1.48-.31a29.18,29.18,0,0,0,13.22,7c2.75.68,5.65.63,8.31,1.74a15.07,15.07,0,0,1,8.15,8.45,52.44,52.44,0,0,1,2.13,6.34c.12.42.52.87.06,1.18s-.89,0-1.31-.35a10.15,10.15,0,0,1-2.27-3.4,17.16,17.16,0,0,0-8.33-7.59,72.14,72.14,0,0,0-7.14-2.24c-2.69-.85-5.48-1.43-7.9-3a7.22,7.22,0,0,1-3.41-4.2C75,67.81,73.9,66.78,73.84,65.18Zm-5.34,4.4a12.78,12.78,0,0,0,3.67-3.34c2.15,5.52,6.22,8.64,11.82,10.08,3.22.83,6.38,1.89,9.51,3a17.68,17.68,0,0,1,7,5.25c1.9,2.11,2.52,4.8,3.72,7.23.54,1.08-1.31,3.65-2.52,3.64-.51,0-.75-.4-1-.77a24.57,24.57,0,0,0-10.87-8.51c-.92-.38-1.82-1.36-3-.77-.06-.8-.76-.76-1.28-.89-3-.74-6-1.52-9-2.18-4.44-1-7.43-3.45-8.58-7.94a21.45,21.45,0,0,0-.56-2.4C67,70.77,67.37,70.12,68.5,69.58Zm-2,1.29a48.09,48.09,0,0,0,1.68,5.48c1.31,2.93,3.27,5.23,6.24,6.19,3.91,1.27,8,2.06,12,3,.12,0,.29-.09.44-.15,1.52,1.42,3.68,1.52,5.38,2.63,2.19,1.43,4.44,2.72,6.19,4.76,2.26,2.62,2,5.46,1.31,8.5-.77-.22-1-.8-1.45-1.18a41.79,41.79,0,0,0-8.8-5.66.68.68,0,0,0-.75.16c-1-1.19-2.45-1.35-3.74-1.8-3.06-1.08-6.22-1.84-9.24-3a15.55,15.55,0,0,1-9.19-9,39.23,39.23,0,0,1-1.69-5.77A3.44,3.44,0,0,1,66.45,70.87ZM63.77,75.8l.24-.52a.46.46,0,0,1,.18.67,47,47,0,0,0,3.12,7.54c2.41,4.41,6.3,6.71,10.81,8.15,3,1,6.1,1.8,9.08,2.91.44.16.94.6,1.47.12.2.68.85.67,1.36.93,3.61,1.83,6.93,4,8.14,8.2a10.32,10.32,0,0,1-.27,4.92c-.52-.91-1.11-1.79-1.56-2.73-2-4.22-5.79-6.1-9.85-7.62a83.8,83.8,0,0,0-12.87-3.21C64.74,93.34,61.35,81.87,63.77,75.8ZM104.88,102l-3.86,3.8C101.3,103.55,103.47,103.15,104.88,102Zm-4.26,4.23,0,.08h-.11ZM55.53,93a2.64,2.64,0,0,1,.27-.76c.6-.76,1.14-1.93,1.92-2.12.94-.24,1.12,1.22,1.71,1.88A22.15,22.15,0,0,0,75.3,99.42c6,.38,11.84,1.64,17,5,.85.54,1.67,1.15,2.65,1.83,0-1.06-.81-1.19-1.28-1.58-3.44-2.9-7.57-4.17-11.86-5.18-3.45-.82-7-.68-10.44-1.41A21.21,21.21,0,0,1,58.6,90c-.49-.63-.12-.83.32-1.14a11.51,11.51,0,0,0,2.32-1.8c1-1.19,1.37-.58,1.81.35A15.66,15.66,0,0,0,68,93.23a20.38,20.38,0,0,0,7.67,3.22c5.32,1.31,10.79,2.1,15.61,5,1.71,1,3.46,2.24,4.2,3.94a29.1,29.1,0,0,1,2.45,6.78c-1.56-.94-1.9-2.35-2.76-3.32-3.5-3.9-8.09-5-12.94-5.67-4.68-.64-9.44-.49-14.1-1.34a37.79,37.79,0,0,1-8.76-2.75c-.28-.13-.48-.45-.71-.69l-.17.25c-.17-.54-.44-.9-1.07-.52-.14-.94-1-1.34-1.51-2C55.18,95.16,54.36,94.19,55.53,93Zm-.86,2a5.32,5.32,0,0,0,2.72,3.19c.17.57.44.93,1.07.55-.22,1.08,1,.91,1.33,1.5,6.15,2.62,12.62,3.26,19.22,3.53a29.23,29.23,0,0,1,12.52,3c3.08,1.62,4.73,4.3,5.88,7.4.24.62-.13,1.27-.49,2.13-1.25-2.14-2.39-4.14-4.27-5.59a19,19,0,0,0-9-3.58c-4.84-.77-9.73-.07-14.55-.77a24.29,24.29,0,0,1-5.45-1.16c-.69.1-1.29-.51-2-.25-.74-.8-.79-.81-1.35-.37,0-.77-.69-.87-1.14-1-1.56-.54-2.59-2-4.24-2.35,0-.1.14-.23.1-.28C53.46,98.32,53.43,97.89,54.67,95Zm1.66,16.25A5.82,5.82,0,0,1,54,106.93c-.1-2.16-.41-4.31-.62-6.39,1-.45.83.95,1.57.6a8.52,8.52,0,0,0,5.39,3.37c.6.79.75.83,1.35.38.85,1.33,2.4,1.1,3.62,1.62.27-.11.38.07.5.25,6.2,1.1,12.54.29,18.73,1.27,4.46.7,8.41,2.45,10.77,6.67a13,13,0,0,1,1,3.36c-.48.15-.69-.12-.93-.34a11.58,11.58,0,0,0-10.68-2.84c-1.44.28-2.87.64-4.3,1-.19.15-.37.25-.57,0l0,0a31.91,31.91,0,0,1-14.45-.08A19.37,19.37,0,0,1,56.33,111.21ZM59,121.38c-1.55-2.63-3.36-5.15-3.87-8.15,7.85,3.43,16,5.54,24.85,3.7.89-.18,1.7-.86,2.69-.47a11,11,0,0,1,7.61-.63,6.62,6.62,0,0,1,3.78,2.86c.24-.11.37,0,.43.24.87,1.24,2.11,2.31,1.89,4-3.79-2.53-7.88-2.55-12.07-1.34a67.76,67.76,0,0,1-18.26,2.87,23.4,23.4,0,0,1-4.59-.65C60.21,123.54,59.62,122.37,59,121.38Zm2.9,3.52c2.91.11,5.44.4,8,.27a53.84,53.84,0,0,0,13.44-2.54c3.83-1.21,7.59-1.5,11.1,1a1.53,1.53,0,0,1,.74.84c.14,0,.34-.08.31.14s-.22.17-.37.08l-7,1a54.18,54.18,0,0,0-8.76,3c-.81.38-1.6-.13-2.23-.26-3.15-.66-6.14.1-9.18.56-.43.07-1,.44-1.32-.19A22,22,0,0,1,61.94,124.9Zm16,4.57c-3.62,3.28-3.62,3.28-7.35,1.23C72.94,129.76,75.16,128.64,77.89,129.47Zm-7.46,9.12c2.25-1.13,3.48-3.28,5.13-5a19.66,19.66,0,0,1,9.61-5.34c1.42-.37,2.78-1,4.42-.78-.57.32-1.12.66-1.7,1A58.85,58.85,0,0,0,74.7,138.59c-1.54,1.51-3.25,2.87-4.79,4.4,0,.25-.12.5-.33.41s0-.33,0-.51c.14-1.14.26-2.29.43-3.43C70.1,139.15,70.21,138.7,70.43,138.59Zm-4.54-2.12a5.45,5.45,0,0,0,1.07.75c1.76.72,2.11,1.95,1.34,3.63-2.09-1.92-4-4.13-6.69-5.53A7.5,7.5,0,0,1,65.89,136.47Zm-16.11-3.41a.91.91,0,0,1,.9.14,10.29,10.29,0,0,1,3.5.82l.82.19a.65.65,0,0,1,.67.35c2.36.92,5,.91,7.22,2.36a8.86,8.86,0,0,1,3.94,5.61,18.47,18.47,0,0,1,.64,6.78A16.93,16.93,0,0,1,64,145.4c-1.65-2.66-2.86-5.57-4.92-8-1-1.16-2.38-1.72-3.56-2.6l-.65-.13a.93.93,0,0,1-.87-.49,7.1,7.1,0,0,1-3.45-.72.6.6,0,0,1-.84-.16S49.74,133.07,49.78,133.06Zm-.46.3-.32-.12.28-.15Zm-.38-.14c-.19.08-.33,0-.4-.16C48.69,133.09,48.91,133,48.94,133.22Zm-.45-.17c-.44.38-.94.24-1.43.15A1.46,1.46,0,0,1,48.49,133.05Zm-2.33,0s0-.12,0-.14c.32-.19.47.08.67.22C46.63,133.15,46.36,133.35,46.16,133.08Zm-21.28,4.71c5.16-2.64,10.85-3.08,16.41-3.78a29.85,29.85,0,0,1,11.29.93,11.47,11.47,0,0,1,8.88,7.13,72,72,0,0,0,4.15,7.33,3.87,3.87,0,0,1,.72,2.57c-1.52-1.89-3-3.64-4.36-5.43a15.72,15.72,0,0,0-9.51-5.87c-2.28-.48-4.67-.57-6.8-1.69-2-.54-4-1.15-6-1.6a19.39,19.39,0,0,0-11.45,1.26,39.13,39.13,0,0,0-10.48,5.53C19.3,141.11,21.93,139.3,24.88,137.79Zm-11.71,13.4A6.87,6.87,0,0,0,15,148.78c.83-2.29,2.7-3.54,4.54-4.74,5-3.25,10.23-5.78,16.31-6.12a19.12,19.12,0,0,1,8.52,1.73c4.39,1.31,9.13,1.48,13.17,3.89a18.7,18.7,0,0,1,8,9.81c.44,1.16,1.84,2.06,1.1,3.65-1.23-1.65-3.21-1.94-4.85-2.85-3.64-2-7.11-4.28-10.55-6.61s-6.83-3.88-10.95-3.78a11.36,11.36,0,0,1-1.63-.21c-9.67.78-18.25,4.7-26.66,9.32A3.11,3.11,0,0,1,13.17,151.19ZM6,161.76a33.16,33.16,0,0,1,3.5-6.12,2.53,2.53,0,0,1,.83-.76,75.6,75.6,0,0,1,9.3-5,61.56,61.56,0,0,1,12.56-4.4,24.18,24.18,0,0,1,4.64-.69A17.24,17.24,0,0,1,46.8,146c1.28.57,2.89.72,3.58,2.48a41.23,41.23,0,0,0-17.62-.11,54.81,54.81,0,0,0-10.2,4.28A54.12,54.12,0,0,0,6.78,166.72c-.36.46-.75.9-1.22,1.47C4.76,165.89,5.3,163.79,6,161.76Zm0,12.59a6.25,6.25,0,0,1,.48-5,40.76,40.76,0,0,1,9.45-11,38.72,38.72,0,0,1,7.22-5.17c2.42-1.23,4.84-2.63,7.62-3a28.89,28.89,0,0,1,10.27-1.78,44.72,44.72,0,0,1,9.77,1A12.17,12.17,0,0,1,55,150.85c3.18,2,6.37,4,9.6,5.94.75.45,1,1.17,1.47,1.77-6.76-3.42-13.91-4.38-21.29-4a61.12,61.12,0,0,0-15.29,2.76,38.34,38.34,0,0,0-7,3.08c-2.73,1.89-5.73,3.43-8.21,5.67a55.49,55.49,0,0,0-7.31,7.78,4.34,4.34,0,0,1-.61.51c0,.17,0,.43-.3.29A1.29,1.29,0,0,1,6.07,174.35Zm9.09-7.79a20.74,20.74,0,0,1,5.62-3.93,35.7,35.7,0,0,1,12.74-5.42,60.18,60.18,0,0,1,16.91-1.71c5,.28,9.8,1.06,13.92,4.17,1.21.91,2.2,2,1.87,4-3.11-2.09-6.76-1.3-10-2.45a26.68,26.68,0,0,0-6.48-1.58,25.23,25.23,0,0,0-11.35,1.92,79.18,79.18,0,0,0-13.14,6.6,54.62,54.62,0,0,1-7.19,4c-.93,1.4-2.6,1.8-3.84,2.79-2.51,2-5.15,3.83-7.78,5.76C6.25,174,11,170.46,15.16,166.56ZM2.8,188.5a35.65,35.65,0,0,1,11.25-12.21c1-.68,1.83-1.68,3.08-2a101.62,101.62,0,0,1,17.33-10.09,41,41,0,0,1,11.62-3.58,20.72,20.72,0,0,1,9.24,1.15,46.45,46.45,0,0,1,8.2,2.82c1.72.89,3.22,2,3,4.23-.07.91-.36,1.58-1.4.7-2.89-2.46-6.49-2.88-10-3.06-8.59-.43-16.76,1.65-24.75,4.63a48.61,48.61,0,0,0-12.06,6.6,12.18,12.18,0,0,1-1.6.85c-1.93,2.19-4.2,4-6.1,6.26a50.14,50.14,0,0,0-8.19,13.69A9.77,9.77,0,0,1,2.8,188.5Zm65.35-16.59v.21L68,172Zm-57,21.84c-2.78,2.4-4.74,5.23-4.7,9.14-1.69-1.3-1.88-2.1-1.63-4.52.53-5.15,3.28-9.16,6.45-13a40.83,40.83,0,0,1,5.18-5.09,29.34,29.34,0,0,1,6.78-4.75c2-.91,3.79-2.17,5.85-3a74.27,74.27,0,0,1,20.24-5.09,27.18,27.18,0,0,1,11.38.8,7.88,7.88,0,0,1,5,4.15c-4-2.08-8.08-4-12.82-3.53a25.65,25.65,0,0,0-10.09,3.57c-1,.58-2.12.72-3.12,1.32-5.63,3.4-11.13,7-16.41,10.93-2.58,1.92-5.25,3.71-7.87,5.56-.9.87-2.27,1.28-2.63,2.67h0l.09,0,0,0c1,.07,1.52-.64,2.2-1.13,4.52-3.26,9-6.57,13.58-9.75a98,98,0,0,1,11.91-7.55,61.67,61.67,0,0,1,10.17-4.33c4.31-1.26,8.23.07,12.12,1.66,1,.39,2.17.56,2.43,1.89-5.38,0-10.81-.34-15.86,2.09A89.4,89.4,0,0,0,40,181a111.7,111.7,0,0,1-12,7.22,40.24,40.24,0,0,0-12,9.29c-.7.75-1.41,1.49-2.12,2.23.13.4-.23.45-.44.61a40.87,40.87,0,0,1-3,3.88,1.33,1.33,0,0,1-1.57.5c-.6-.17-.85-.56-1-1.28a8,8,0,0,1,2.67-7.88,7.3,7.3,0,0,0,1.15-1.14c.24-.36,1.09-.61.58-1.14S11.49,193.45,11.14,193.75Zm2.12,9.11c.78-2.93,3.26-4.55,5.23-6.49a46.83,46.83,0,0,1,11.83-8.44c5-2.54,9.57-5.86,14.38-8.76a27.72,27.72,0,0,1,13.91-4.49,22.12,22.12,0,0,1,7.34,1c.31.1.69.2.57.64s-.44.23-.68.17c-5.13-1.2-9.87.56-14.6,2a71.35,71.35,0,0,0-17.74,8.38A68.32,68.32,0,0,0,18,200.73c-1.44,1.75-2.51,3.81-4.32,5.26h0c.17.23,0,.36-.15.49l-3.12,5C10.17,208.84,11,206.42,13.26,202.86Zm.34,5.86c.66-2.36,2.51-3.94,3.89-5.81a60.83,60.83,0,0,1,12.64-12.49,71.44,71.44,0,0,1,12.45-7.34,81.27,81.27,0,0,1,14.9-5.35c3.09-.75,6.27-1.24,9,1.18.22.19.66.24.51.71s-.55.22-.83.21c-4.91-.17-9.46,1.19-14,3a78.65,78.65,0,0,0-12.81,6.76c-7.26,4.67-14.31,9.67-19.81,16.46A18,18,0,0,0,16,214.29c-.07.42,0,.88-.36,1.21.16.21.33.43.1.7.1,1.58.14,3.16.3,4.73s.4,2.95.63,4.58C9.24,219.44,11.08,213.15,13.6,208.72Zm4.21,15.94c-.54-1.91-1.32-3.78-1-5.84-.69-3,.11-5.78,1.26-8.42,1.9-4.34,5.45-7.4,8.85-10.51,2.08-1.89,4.47-3.41,6.68-5.13A97.38,97.38,0,0,1,47.68,186a41.39,41.39,0,0,1,13.82-4.91,5.09,5.09,0,0,1,3.87.51c1.29.9,2.28,1.87,2.16,3.6a13.9,13.9,0,0,0,.17,2.13c-5.64-3.55-11-1.6-16.43.7A55.68,55.68,0,0,0,43,192.46c-6.14,3.92-12.09,8.1-16.43,14.11-4.61,6.4-6.06,13.3-3,20.84a3.14,3.14,0,0,1-1.83,0C19.54,227.55,18.41,226.76,17.81,224.66ZM66,188.75c2.88,3,2.77,3.29-1.1,4.82a52.89,52.89,0,0,0-10,5.63c-3.13,2.12-6.23,4.26-9.33,6.42-6.09,4.24-11.8,8.86-15.41,15.53A26.29,26.29,0,0,0,27,230.61a7.46,7.46,0,0,0-2.53-2.87c-1-.65-.93-2.15-1.18-3.28-1.58-7.14.62-13.22,5.16-18.74a51.47,51.47,0,0,1,10.07-9.28,75.51,75.51,0,0,1,12.32-7.24,32.05,32.05,0,0,1,8.85-2.86A6.89,6.89,0,0,1,66,188.75ZM29,234.86c-.64-4.91-.22-9.66,2.28-14a34.24,34.24,0,0,1,7.28-8.6c3.29-2.87,6.88-5.34,10.41-7.9a104.55,104.55,0,0,1,11.13-7.31,14.44,14.44,0,0,1,6.14-2.18c.71,0,1.91-.32,2.06.49s-1,.86-1.73,1.09c-4.56,1.48-9.16,2.93-13.1,5.74-7.9,5.62-15.09,12-19.22,21a24.82,24.82,0,0,0-1.92,13.13c.13,1.16.11,2.35.18,3.91C30.52,238.65,29.26,237.13,29,234.86Zm4.17,1.91c-1-8.06,1.77-14.92,6.74-21a64.79,64.79,0,0,1,12.47-11.54,36.48,36.48,0,0,1,12.6-6.1c1-.25,2.07-.69,3.15-.17-4.44,4.08-9.52,7.11-14.24,10.64a53.83,53.83,0,0,0-9.66,8.79,30.48,30.48,0,0,0-6.9,18.21,43.45,43.45,0,0,0,.1,7l-.36,0C33.88,241.88,33.45,239.43,33.13,236.77Zm36.45-36.55a7.74,7.74,0,0,1-2.53,2.59,162.73,162.73,0,0,0-16.76,15.5A27.14,27.14,0,0,0,43,233.09a42.48,42.48,0,0,1-1.1,4.89,22.78,22.78,0,0,0-.46,4.57c0,.46.63,1.38-.53,1.3-.85-.07-2,.13-2.22-1.17a29.22,29.22,0,0,1-.24-10.75c1.41-8.25,6-14.54,12.27-19.72A118.59,118.59,0,0,1,63.57,203,22.39,22.39,0,0,1,69.58,200.22ZM50.75,255.08c-2.48-1.23-4.5-2.58-5.52-5-1.42-1.63-1.22-3.71-1.49-5.63-1.11-8-.24-15.62,4.59-22.3,2.94-4,6.67-7.46,10.32-10.9a84.75,84.75,0,0,1,8.27-6.86c.62-.45,1.55-1.43,2.08-.87s-.51,1.35-1,1.95c-2.88,3.65-6.54,6.57-9.57,10.08a39.77,39.77,0,0,0-9,17.51,42.5,42.5,0,0,0,.13,17.58,1.62,1.62,0,0,1-.07.47C49.94,252.35,50.32,253.62,50.75,255.08Zm7.1,1.44c-.87.56-4.16-.46-4.7-1.2a18.12,18.12,0,0,1-1.62-3.56,27.32,27.32,0,0,1-1.84-15.08c1.31-10.27,6.48-18.36,14-25.17a57.3,57.3,0,0,1,6.06-4.94c.28-.2.63-.62,1-.32s0,.67-.16,1a52.77,52.77,0,0,1-5.3,9.63,46.76,46.76,0,0,0-8,27.05,62.2,62.2,0,0,0,.4,8.63A6.08,6.08,0,0,1,58,254C57.88,254.86,58.84,255.89,57.85,256.52Zm8.25,4.08c-2-1.18-3.39-3.27-5.81-3.8-.54-.12-.54-.61-.62-1.05-.17-.9-.38-1.8-.57-2.71a46.89,46.89,0,0,1-.26-18c1.18-6.56,4-12.43,7.42-18.05,1.53-2.46,3.64-4.44,5.29-7a2.31,2.31,0,0,1-.29,2.4c-3.5,5.07-4.69,10.9-5.64,16.84s-1.59,11.91-2.1,17.9A12.89,12.89,0,0,0,65,253.37c1.82,4.35,3.77,7.32,6.05,9.14C68.89,262.78,67.58,261.47,66.1,260.6Zm6.84-45.77-.07.14-.14,0c0-.05,0-.12.06-.14S72.89,214.82,72.94,214.83Zm13.9,37.61c-.65,1.51-1.43,3.24-3,3.74s-3-.55-4.3-1.45a6.8,6.8,0,0,0-3.32-1.61,22.93,22.93,0,0,0,5.84,4.77,48.8,48.8,0,0,1-7.46,3.88,2.35,2.35,0,0,1-2.65-.48c-2.48-2.29-5-4.52-6.39-7.7-1.6-3.65-1.34-7.44-.86-11.24q.89-6.91,1.76-13.81c.59-4.59,2-8.85,5.06-12.41a8,8,0,0,1,.54-.62,4.25,4.25,0,0,1,.81-.4c-3.52,9.64-6.2,19.1-2.18,29a36.49,36.49,0,0,1,2.73-26.55,18.51,18.51,0,0,1,2,5.23,164,164,0,0,0,7.3,19.78c.91,2,1.77,4.09,2.65,6.14.18.4.39.79.54,1.2C86.26,250.76,87.3,251.38,86.84,252.44Zm7.62,2a9,9,0,0,0,0-6,1.89,1.89,0,0,0-.24,1.74c.38,1.75-1,2.55-1.92,3.52-.79.8-1.46-.19-2.18-.42-2.4-.8-3-3-3.88-5a146.61,146.61,0,0,1-9-24.25,51.11,51.11,0,0,1,9.44,9.12c-.36-1.53-1.21-2.52-3.74-5.12s-5.24-4.74-7-7.84c-1.27-2.2-1.16-2.38,1.28-2.45A6.39,6.39,0,0,1,80.79,219a59.82,59.82,0,0,1,15,13.51c1.76,2.25,3.52,4.61,4,7.57a13.64,13.64,0,0,1-.49,13.1C98.64,254.55,97.18,254.85,94.46,254.48Zm17.72-12c-.39-1.49-.13-3.2-1.55-4.54.39,2.93,1.45,5.84-1.19,8.48-.1-2,.12-3.73-.45-5.41l-.54.38a12.61,12.61,0,0,1-1,7.49c-.79,1.73-2.45,2.6-3.94,3.54a10.77,10.77,0,0,1-2.66,1.2,18.9,18.9,0,0,0-.34-14,41.8,41.8,0,0,0-8.68-12.45,67.08,67.08,0,0,0-11.66-9.4,14.24,14.24,0,0,0-5-2c-.42-.08-.77,0-.89-.64s.17-.84.58-1.16c2.3-1.78,4.52-1.35,6.82,0,6.94,4.18,13.72,8.6,19.24,14.59,1.82,2,3.77,4,4.86,6.52a.67.67,0,0,1,.14.15l.27-.25c0-.14,0-.28-.05-.43-4.29-7.37-10.79-12.5-17.66-17.18a61.09,61.09,0,0,0-9.14-5.39c-1.79-.8-3.65-1.14-5.48,0l-.24.29-.11-.38c.55-1.68,1.58-2.45,3.17-2,7.16,2.12,14,4.8,20.22,9.18a34.77,34.77,0,0,1,11.41,13.06l.47-.23a1.27,1.27,0,0,1-.06-.28,42.51,42.51,0,0,0-6.68-9.17,47.2,47.2,0,0,0-11.27-8c-5-2.61-10.38-4.25-15.67-6.1a3.58,3.58,0,0,0-2.26,0c2.12-3.35,5.07-3.57,8.53-2.89a69,69,0,0,1,17.79,6c5.65,2.85,11,6.44,14.24,12.2a19.33,19.33,0,0,1,3.49,10.88,15.22,15.22,0,0,1-.66,4.28C115.62,240.78,114.76,241.41,112.18,242.43Zm5.13-2.67c1.44-6.5-1-12-3.91-17.38-1.31-.91-2-2.37-3.07-3.51a39.48,39.48,0,0,0-12.26-8.62,74.88,74.88,0,0,0-16.62-5.57c-2.92-.63-5.86-1-8.59.77-.3.19-.7.52-1,0a1.94,1.94,0,0,1,1.72-3.12,36.54,36.54,0,0,1,11.24,1.14,146.84,146.84,0,0,1,23,9.11,29.28,29.28,0,0,1,8.58,6.74,20.66,20.66,0,0,1,4,7.35,13.17,13.17,0,0,1,.15,4.63c-.08,1.52-.25,3-.25,4.55C120.36,238.35,120.21,238.62,117.31,239.76Zm15.14-28c-.86-.72-1.12-1.76-1.71-2.58s-.78-1.82-1.92-2.59c1.48,4,4.76,7.31,2.57,12.21A47.87,47.87,0,0,0,126.64,208a36.06,36.06,0,0,0-7-8.6A40.34,40.34,0,0,0,104,191.31a75.09,75.09,0,0,0-7.67-1.85c-.33-.05-.82-.4-1,.19s.4.51.77.6c3.26.8,6.53,1.53,9.74,2.53A39.71,39.71,0,0,1,121,201.46c2.21,2,3.53,4.62,5.24,7,.06.15.14.3,0,.38,2.52,4.19,4.18,8.59,3.53,13.58-1.75-2.34-2.49-5.18-4.45-7.68,0,2,1.22,3.31,1.67,4.86a24.79,24.79,0,0,0,1.33,3,5.76,5.76,0,0,1-.35,5.51c-1.38-2.39-2.68-4.63-4.11-7.12a1.32,1.32,0,0,0,.25,1.58,28.08,28.08,0,0,1,2.11,4.43c1.57,4.17-.84,6.61-4.21,9.46a24.32,24.32,0,0,0-5.14-17.65,38.63,38.63,0,0,0-15.62-10.14c-5.33-2-10.44-4.53-15.94-6a50.66,50.66,0,0,0-11.9-1.31,7.35,7.35,0,0,1,7.17-2.2,106.83,106.83,0,0,1,28.39,10.29,56.35,56.35,0,0,1,10,7.09l3.59,3.54c-.62-1.92-2.21-2.68-3-4.06a75.58,75.58,0,0,0-12.65-8.6,100.19,100.19,0,0,0-9.46-4.12,113.87,113.87,0,0,0-12.94-4.13c-1.59-.42-3.24-.63-4.83-1a9.62,9.62,0,0,0-7.22,1.26c-.42.23-.91.78-1.3.37s.17-1,.48-1.37c2-2.11,3.55-5,7-5.08a45.13,45.13,0,0,1,6.88.2c.61.07,1.18.19,1.64-.27-2.9-1.46-10.07-1.2-12.89.51a10,10,0,0,0-3.28,2.4c-.17.23-.37.51-.66.36s-.29-.55-.14-.87A11.87,11.87,0,0,1,73,192c3.71-3.41,8.18-3.22,12.69-3.08a1.7,1.7,0,0,0,1.55-.45c-3-1.18-12.5-.81-17.32,3.31l-.3.24-.06-.36c-.23-.6,0-.95.48-1.4,3.16-3.21,7.2-4.57,11.39-5.71a34.24,34.24,0,0,1,18.05-.18,41.48,41.48,0,0,1,11.73,5.37A75.7,75.7,0,0,1,125,201.86c.7.74.85,2,2.11,2.29a10.92,10.92,0,0,0-2.52-3.66A62.3,62.3,0,0,0,108,186.88a35.1,35.1,0,0,0-27-3.18,42.59,42.59,0,0,0-10.48,4.07c-.41.25-1,.55-1.3.07s.23-.86.52-1.27c2.4-3.34,6-4.79,9.64-6.16a31,31,0,0,1,19.32-1.17,84.64,84.64,0,0,1,15.89,6,48,48,0,0,1,8.21,5.1,24.9,24.9,0,0,1,8.57,11.42C132.74,204.11,133.19,207.92,132.45,211.73Zm6.2-16.45a6.64,6.64,0,0,1-.71,6c0,.14.1.35-.13.32s-.17-.23-.08-.38a18.37,18.37,0,0,0-2.54-5.6c.33,2.47.51,5,1.06,7.38.4,1.78-1.24,2.24-1.71,3.43-.09.22-.52-.09-.64-.46a31,31,0,0,0-2.3-5.21,47.72,47.72,0,0,0-4.13-6.61c-3.25-4.18-7.57-7-12.11-9.36a74.55,74.55,0,0,0-17.84-6.64,31.63,31.63,0,0,0-17.76,1.11c-3.69,1.27-7.05,3.2-10.66,4.77a9,9,0,0,1,3.26-3.52c7.32-4.31,15-7.7,23.69-7.73a32.24,32.24,0,0,1,11.66,2.56c4.13,1.57,8.36,2.85,12.41,4.64a34.1,34.1,0,0,1,11.63,8.13c-.43-1.34-2-3.16-4-4.63a43.83,43.83,0,0,0-12-6.11c-4.75-1.7-9.41-3.66-14.36-4.8a30.39,30.39,0,0,0-15.7.84A71.94,71.94,0,0,0,71.23,180c-.93.52-1.45,1.65-2.67,1.76-.34-.73.11-1.19.41-1.69A22.56,22.56,0,0,1,75.13,174a45.22,45.22,0,0,1,13.59-6.83,23.82,23.82,0,0,1,15.2.32c4.54,1.55,9.18,2.93,13.48,5.13s9,3.14,12.46,6.54a24.1,24.1,0,0,1,6.63,10.61C136.7,191.77,137.94,193.43,138.65,195.28Zm-.51-9.82a14.23,14.23,0,0,0-.54,3.43l-.84-1.9c-1.57-2.11-3.08-4.26-4.71-6.32a20.59,20.59,0,0,0-8.88-6.41c-3.73-1.47-7.28-3.44-11.06-4.77-4.82-1.7-9.52-3.92-14.74-4.3a27.64,27.64,0,0,0-14.84,3.39,64.7,64.7,0,0,0-14,9.48c-.5-.57-.21-.82.17-1.14,3.14-2.61,6.14-5.36,9.52-7.69a73.53,73.53,0,0,1,10.6-6,35,35,0,0,1,13.77-3.31c4.69-.15,9,1.43,13.42,2.73a49.67,49.67,0,0,1,13.18,5.79,20.35,20.35,0,0,1,8.51,10.68,2,2,0,0,1,0,.65c.11.3.58.5.24.9C138.42,182.23,138.91,183.75,138.14,185.46Zm1.58-3.45c-.32-2.87-2.31-4.8-3.29-7.23-1.86-2.12-3.49-4.42-5.79-6.18a36.06,36.06,0,0,0-9.22-5,80.48,80.48,0,0,0-14.88-4.3A28.31,28.31,0,0,0,91.91,161a60.11,60.11,0,0,0-11.78,5.84c-2.73,1.73-5.28,3.74-8,5.55A7.58,7.58,0,0,1,68.93,174c.62-1.16,1.69-1.69,2.41-2.55a36.39,36.39,0,0,1,11.14-8.49c6.56-3.47,13.64-5.35,20.91-6.62,3.88-.67,7.7-1.62,11.64-1.93a2.86,2.86,0,0,1,2,.4c2.32,1.83,5.19,2.49,7.78,3.73a23,23,0,0,1,7.42,5C136.9,167.69,141.68,179.17,139.72,182Zm5.45-22.45c.1,2.18,1.92,4.18,1.27,6.29-1.05,3.4-1,7.2-3.56,10.34A22,22,0,0,0,135,161.44c1.86,2.57,4.15,4.87,5.47,7.81a15.24,15.24,0,0,1,1.07,9.49c-2.5-6.8-5.34-13.06-10.79-17.68a43.57,43.57,0,0,0-11.43-5.62c-.93-.31-1.36-1.21-2.27-1.55a8.88,8.88,0,0,0-4.71-.12c-7.39,1.31-14.86,2.32-22,4.81a55.48,55.48,0,0,0-12.52,6.13c-3.33,2.23-6.37,4.83-9.63,7.12a2.25,2.25,0,0,1,.92-1.59,49.28,49.28,0,0,1,7.59-6.87c7.21-4.89,15.31-7,23.62-8.77,2.77-.58,5.49-1.39,8.22-2.16a14.87,14.87,0,0,1,8.86,0,76.93,76.93,0,0,0,7.71,1.77,8,8,0,0,1,2.37,1.08,4.19,4.19,0,0,1,2.16,1,21.16,21.16,0,0,0,1.87,1.19c-1-2.18-3.24-2.68-5.06-3.74-2.56-.59-5.14-1.09-7.66-1.8a18.79,18.79,0,0,0-10.77-.33c-6,1.78-12.16,3.06-18.23,4.63a38.37,38.37,0,0,0-9.87,4.27A123.78,123.78,0,0,0,68.12,168c1-1.79,2-3.64,3.71-4.77a139,139,0,0,1,14.88-9.07c6.43-3.15,13-5.74,20.09-6.51a40.69,40.69,0,0,1,11,.46,33.88,33.88,0,0,1,6.06,1.55,53.22,53.22,0,0,1,10.24,5.91c1.95,1.39,4.38,1.89,6.2,3.55a26.44,26.44,0,0,1,4.66,6.36c0-2-1.5-3.43-2.57-4.93a12.59,12.59,0,0,0-5.52-4.37c-2.66-1.1-4.94-2.9-7.35-4.46a32.23,32.23,0,0,0-6.77-3.26,38.5,38.5,0,0,0-15.55-1.74c-7.79.6-14.74,3.65-21.67,7-3.94,1.91-7.46,4.4-11.17,6.63-1.37.82-2.66,1.8-4.1,2.53,11.89-14.59,26.72-23.08,46.08-22.13a36,36,0,0,1,14.45,3c1.5.68,2.5,2.11,4.28,2.46.48.09,1,1.88,1.78,2.8,2.69,3.25,5.29,6.58,7.92,9.88C144.9,159.09,145.16,159.32,145.17,159.56Zm2.2-9.71c-.19,2.83-1.08,5.43-1.77,8.32a47.65,47.65,0,0,1-5.16-5.58c-1.49-1.84-2.84-3.87-4.45-5.55a20.52,20.52,0,0,0-11.79-6.26c-3.06-.5-6.13-.72-9.18-1.16-3,.47-6.12.2-9.17.62a50.86,50.86,0,0,0-19.92,7.2,67.08,67.08,0,0,0-12.56,10.34c-1.26,1.28-2.65,2.44-4,3.6a1.65,1.65,0,0,1-1.16.45c-.44-.11-.13-.68-.21-1a2.6,2.6,0,0,1,.71-2.24,64,64,0,0,1,23.75-20.26,54.12,54.12,0,0,1,14.65-4.73,6.56,6.56,0,0,1,1,0l.44.13,0,0c2-.94,4.2-.54,6.29-.54a46.45,46.45,0,0,1,14.19,2.6,63.76,63.76,0,0,1,11,4.65c.38.2.89,1.08,1.54.32-.07.65.53.65.9.83C145.94,143.2,147.64,145.8,147.37,149.85Zm-2.85-8.41c-1.12.11-1.86-1.11-3-.79-1.5-1.55-3.57-2.14-5.43-3a63.17,63.17,0,0,0-12.38-4.28,43.85,43.85,0,0,0-16-.77,6.75,6.75,0,0,1-1.27,0A79.47,79.47,0,0,0,98.13,135a66.91,66.91,0,0,0-14.39,7.47c-4.67,3.17-8.56,7.16-12.59,11-.82.78-1.74,1.46-2.73,2.28A2.77,2.77,0,0,1,69.1,153c2.17-2.36,4.17-4.89,6.39-7.21,2.71-2.8,6.13-4.73,9.24-7a61.43,61.43,0,0,1,9.7-5.58,38.34,38.34,0,0,1,7.9-3.09,40.1,40.1,0,0,1,15.35-2c2.66.22,4.91,1.49,7.31,2.35a116.5,116.5,0,0,1,16.12,7.66A7.15,7.15,0,0,1,144.52,141.44Zm-17.82-12a24.55,24.55,0,0,0-11.34-2.27c-4.66,0-9.27.42-13.62,2.31a3.89,3.89,0,0,1-1.29.1A103.52,103.52,0,0,0,89.06,135a88.63,88.63,0,0,0-8.29,5.42A126.74,126.74,0,0,0,69,150a3.29,3.29,0,0,1,.68-3A48.85,48.85,0,0,1,83,132.7c3.06-2.2,6.43-3.83,9.58-5.83.33-.21.66-.42,1.07-.23,2-.36,3.93-.76,5.89-1.14,3.2-.64,6.2-1.92,9.44-2.49,6.76-1.17,12.25,1.38,17.37,5.33A.83.83,0,0,1,126.7,129.41Zm19.54,10.39c-2.1.7-2.38-1.7-3.69-2.36,2.73.34,5.38.2,8.26.37C149.39,139.14,147.72,139.3,146.24,139.8Zm8.27-3.6c-1.16,1.1-2.74.64-4.06.65-3.36,0-6.75,0-10-1.18a33.2,33.2,0,0,1-4.75-2.54,40.21,40.21,0,0,0-4.05-2.13,15.28,15.28,0,0,1-5.25-4c-1.18-1.25-2.82-1.85-4.09-3-.24,0-.52.2-.67-.12a.39.39,0,0,1,.12-.37c.32-.18.44.1.58.32,1-.64,1.53,1.21,2.54.48.65,1,1.92,1.09,2.86,1.64a27.07,27.07,0,0,1,5.17,3.64c2.91,2.8,6.69,3.36,10.4,3.87a70.11,70.11,0,0,0,13.35.58c.14,0,.28.1.58.22A18,18,0,0,0,154.51,136.2ZM123,122.9c0-.17,0-.2.19-.1l.25.18-.16.2C123.08,123.21,123.05,123.06,123,122.9Zm39.68-2.38a28.9,28.9,0,0,1-13.7,5.35,33.64,33.64,0,0,1-10-.59h0c-1.8-.32-3.52-1.09-5.42-.8a12,12,0,0,0,5.38,1.31c1.68,1.13,3.63,1,5.49,1.1,6.18.41,11.86-1.56,17.5-3.75.63-.25,1.29-.42,2-.64-.25,4.2-2.41,7.33-5.2,10.13a2.07,2.07,0,0,1-1.5.54,104.5,104.5,0,0,1-12.38-.47c-3.41-.37-6.74-.82-9.8-2.44a15.6,15.6,0,0,1-3.36-2.57,21.41,21.41,0,0,0-6.3-3.67c-.18-.08-.48-.18-.57.13-.05-.68-1-.51-1.17-1,.36-.49.92-.12,1.31-.35.88.59,1.94.4,2.9.68a37.47,37.47,0,0,1,4.59,1.13c.32.14.8.2,1-.28.1-.32-.21-.43-.49-.49a41,41,0,0,0-7.67-1.52c-3.13-.88-6.37-.83-9.57-1a80.2,80.2,0,0,0-17.08,1.39,5.73,5.73,0,0,1-.63,0c.09-.75.6-.73,1.08-.84,8-1.83,16-2.79,24.15-1.79a48.71,48.71,0,0,1,7.06,1.7c6.53,1.85,13.1,1.42,19.63.19a54.14,54.14,0,0,0,17-6.23A11.25,11.25,0,0,1,162.71,120.52Zm3.67-5.62a53.84,53.84,0,0,1-20.06,6.76,48,48,0,0,1-12.56,0,22,22,0,0,1-4.52-1.07,40.65,40.65,0,0,0-13.59-1.82,5.16,5.16,0,0,1-.94-.17h0a3.36,3.36,0,0,1-2.23.15.48.48,0,0,1-.57-.07.94.94,0,0,1-1.32.18c-2.59.43-5.17.92-7.77,1.24-1.34.17-2.6.6-3.87.8.34-1,1.34-1.27,2.15-1.81.09-.54.39-.62.84-.36h0c.39-1,1.37-.69,2.09-1a62.44,62.44,0,0,1,22.4-3.75,38.86,38.86,0,0,1,7.95.81,83.9,83.9,0,0,0,12.88.07c5.45-.57,10.8-1.45,15.87-3.65a27.52,27.52,0,0,0,7.9-5C171.37,110.32,169.61,113,166.38,114.9Zm3.16-8.43a22.59,22.59,0,0,1-6.53,4,51.17,51.17,0,0,1-12.88,3.25,44.12,44.12,0,0,1-11.65.35h-.58l-11-.85a52.34,52.34,0,0,0-13,.95c-3.07.55-6.11,1.34-9.13,2.13a18.08,18.08,0,0,0-5.65,2.51c-.16-.78.27-1.09.63-1.47,3-3.18,6.91-5,10.78-6.87a39.29,39.29,0,0,1,15-3.69c4.28-.24,8.53.45,12.78.94,4,.47,8,.67,12.08,1,2.38-.22,4.78-.3,7.13-.68,5-.79,9.62-2.39,12.86-6.66C171.72,103.47,171.12,105,169.54,106.47Zm-1.39-5.67c-2.71,4.83-7.31,6.11-12.31,6.57-1,.09-2,.58-3,.09a32,32,0,0,1-8.29,0c-4.95-.41-9.87-1.14-14.82-1.47A39.13,39.13,0,0,0,110,109.8a51.3,51.3,0,0,1-6.21,3,10.49,10.49,0,0,0-3.16,2.28,5.89,5.89,0,0,1-2,1.17,56.33,56.33,0,0,1,13.84-9.37,65.32,65.32,0,0,1,17.17-5.13,62.11,62.11,0,0,1,9-.59A74.5,74.5,0,0,0,163.17,97c1.9-.69,3.68-1.7,5.51-2.57l2.89-1.87A31.65,31.65,0,0,1,168.15,100.8Zm2.17-8.59c-4.46,3.33-9.67,4.82-15,6.14a73.86,73.86,0,0,1-16.09,1.83,72.15,72.15,0,0,0-18.45,2.48,52.32,52.32,0,0,0-15.06,6.74,41.21,41.21,0,0,0-6.32,4.74,4.39,4.39,0,0,1,1.43-2.79,32.39,32.39,0,0,1,9.12-7.11,60.52,60.52,0,0,1,19-6c4.41-.68,8.82-1.31,13.2-2.15,4.57-.88,9.16-1.62,13.68-2.72a64.81,64.81,0,0,0,14.75-5.56c1.23-.65,2.3-1.66,3.58-2.3a38.23,38.23,0,0,1,3.83-3.7,1.2,1.2,0,0,1,0,.56C176.27,86.32,174.47,90.19,170.32,92.21ZM178,81.79c-.12,0-.14-.1,0-.21s.1,0,.15,0Zm.11-2.94c.28.43.46,1.44,0,1.58-.85.24-.9,1.07-1.5,1.41a33.84,33.84,0,0,1-13.34,8.31c-9.87,3.61-20.25,4.85-30.53,6.5a88,88,0,0,0-17.16,4.06,39.87,39.87,0,0,0-15.07,9.55,18.63,18.63,0,0,1,5.93-8.27c4.34-3.7,9.7-4.61,15-5.84,10.15-2.37,20.37-4.43,30.44-7.13,5-1.33,9.8-3,14.67-4.56a47.31,47.31,0,0,0,10.76-5.27C177.42,78.83,177.72,78.29,178.1,78.85Zm-72.81,22.32,2.07-1.19C107,100.84,106.09,100.94,105.29,101.17Zm72.38-24.9c.41.51-.17,1-.53,1.4a22.43,22.43,0,0,1-6.69,4.17,114.34,114.34,0,0,1-11.85,4.24c-5.83,1.87-11.77,3.32-17.72,4.74s-11.68,2.67-17.52,4c-2.82.64-5.64,1.26-8.46,1.91a23.86,23.86,0,0,0-7.39,3.13,20.43,20.43,0,0,1,4.32-3.15c3.06-1.77,6.08-3.6,9.31-5.11a53.62,53.62,0,0,1,14.54-4c8.92-1.42,17.91-2.36,26.66-4.74,5-1.35,9.84-2.94,13.95-6.26C176.65,76.32,177.18,75.63,177.67,76.27ZM173.86,76a23.11,23.11,0,0,1-8.52,5.09,97,97,0,0,1-13.11,3c-5.06.78-10.11,1.75-15.19,2.41a67,67,0,0,0-10.89,2.12,39,39,0,0,0-7.41,3.08,113.39,113.39,0,0,0-15.28,9.76c-.3.24-.53.56-.82.78a8.12,8.12,0,0,1-1,.56,10.9,10.9,0,0,1,2.28-4.47c2.9-3.79,7.07-5.83,10.82-8.43,1.74-1.2,4-1.68,5.77-2.79C124,85,127.92,84,131.75,82.67c6.08-2.07,12.51-2.56,18.76-3.87,7.3-1.54,14.66-2.84,21.78-5.12,1.76-.57,3.48-1.25,5.31-1.9C177,73.81,175.23,74.78,173.86,76Zm1.84-4.56c-7.48,3-15.39,4.32-23.22,6-6.41,1.38-13,2-19.3,3.76a70.33,70.33,0,0,0-9.68,3.51c-6,2.66-11.71,5.72-17.7,8.79a9.32,9.32,0,0,1,2.59-4c3.06-2.91,6.88-4.51,10.68-6.06A132.77,132.77,0,0,1,135,78.06c5.61-1.51,11.38-2.21,17.07-3.3s11.68-2,17.42-3.58a79.71,79.71,0,0,0,8.73-3.28c.82-.33,1.28-1.34,2.4-1.47C180.52,69.73,177.88,70.58,175.7,71.45Zm6.11-10.57c.14,4.72-3.45,6-6.84,7.4-7.23,3-14.9,4.07-22.52,5.45-6.07,1.1-12.19,1.92-18.15,3.54a126.25,126.25,0,0,0-19,6.94c-1.73.79-3.52,1.46-5.33,2.21,1.13-2.8,3.39-4.44,5.58-6.2,3.64-2.93,8-4,12.38-4.74a217.68,217.68,0,0,0,32.44-8.11,72.48,72.48,0,0,0,15.36-7.09,21.87,21.87,0,0,0,5.59-5.17C182,57,181.75,59,181.81,60.88Zm-1.2-8.39a1.67,1.67,0,0,1-.1,2,17.11,17.11,0,0,1-5.63,5.18c-5.33,3.34-11.15,5.46-17.07,7.48-10.67,3.63-21.66,5.79-32.67,7.93-2.3.45-4.55,1.1-6.81,1.73a3,3,0,0,1-1.66.08c2.56-2.46,5-5.19,8.84-5.43a110.82,110.82,0,0,0,28-5.51,44,44,0,0,0,15.89-8.89,32.14,32.14,0,0,0,7.64-9.32C178.07,49.67,179.75,50.74,180.61,52.49ZM176,35.88c.65,1.15,1.52,2.22,1.07,3.69,0,4.2-2.18,7.2-5.38,9.6a78,78,0,0,1-11.35,6.65c-5.54,2.85-11.16,5.56-16.56,8.7-3.26,1.9-7,2.36-10.7,2.69-2.68.23-5.34.43-7.84-.89-.49-.27-1.29-.32-1.2-1.14s.88-.69,1.44-.75A83.88,83.88,0,0,0,147,59.15a57.55,57.55,0,0,0,21.45-14.4,88.4,88.4,0,0,0,6.53-8.63C175.14,35.44,175.29,34.68,176,35.88ZM174.12,34a1,1,0,0,1,.07,1.3,51.59,51.59,0,0,1-14.58,16,67.07,67.07,0,0,1-24.86,10.66c-1.65.37-3.31.68-5,1a4.18,4.18,0,0,1-2.56-.28,40.48,40.48,0,0,1,9.18-3.45c5.9-1.76,11.2-4.72,16.41-7.86a58.68,58.68,0,0,0,18.06-17.33C172.15,32.07,172.8,32.11,174.12,34Zm-3.51-1.2a62.22,62.22,0,0,1-13.67,14.68,70.31,70.31,0,0,1-27.52,12.69c-1.15.25-2.3.56-3.6.88a3.69,3.69,0,0,1,2.36-2.69c4.65-2.08,9.76-2.79,14.31-5a66.67,66.67,0,0,0,10.31-5.8,75.48,75.48,0,0,0,9.67-8,45.53,45.53,0,0,0,7.71-9.58C171.53,30.65,171.49,31.5,170.61,32.76Zm-1.93-5.71a33.66,33.66,0,0,1-9.27,10.86A33.3,33.3,0,0,1,143,45c-3.93.53-7.89,1-11.83-.39-1.42-.49-1.09-1.28-.94-2.13s.47-1.41,1.67-1.12a30.21,30.21,0,0,0,10.59.88c7.09-.81,12.74-4.3,17.44-9.5a41.49,41.49,0,0,0,6-8.91c.61-1.19,1.23-2.37,1.94-3.76C169.19,22.42,169.91,24.63,168.68,27.05Zm-1.75-8c.4.28.22.66,0,1-.58,1-1.15,2-1.72,2.95a35.7,35.7,0,0,1-9.81,12.71,24.7,24.7,0,0,1-18.7,5.6,9.37,9.37,0,0,1-4.47-1.44,1.25,1.25,0,0,1-.66-1.06c.06-.53.64-.27,1-.37,4.49-1.36,9.11-2.27,13.48-4,6.22-2.42,10.91-6.76,14.82-12,.54-.74,1-1.51,1.54-2.27a20.51,20.51,0,0,1,2-3.51C165.66,16.94,166,18.33,166.93,19Zm-3.79-3.85c.56.39.57.83.21,1.4-.62,1-1.18,2-1.76,2.95a36.41,36.41,0,0,1-9.37,10.31c-5.68,4.32-12.18,5.95-19.1,6.49-.41,0-1.18.5-1.27-.46-.07-.75.51-.85,1.08-1a26.58,26.58,0,0,0,8.36-3,30.05,30.05,0,0,0,8.89-7.9A64.1,64.1,0,0,0,155,16.17c.13-.21.23-.35.49-.25-.15-1.49.9-2.58,1.36-3.87.16-.45.52-.1.81,0C159.82,12.48,161.41,13.94,163.14,15.15Zm-9-5.61a18.2,18.2,0,0,1-.17,5.89c-.63,2.54-2.2,4.55-3.62,6.67a28.47,28.47,0,0,1-10.86,9.72,22.12,22.12,0,0,1-4.28,1.68c-.49.14-1.05.4-1.58-.25a61.54,61.54,0,0,0,6.71-4.66,28.87,28.87,0,0,0,9.55-13.25,1.34,1.34,0,0,1,.54-.79c.36-2,.7-4,1.07-6.05.07-.37.31-.55.7-.35C152.88,8.52,154,8.26,154.11,9.54Zm-6-4.29a29.4,29.4,0,0,1-1.38,7.85,27.36,27.36,0,0,1-8.39,12.41,14.7,14.7,0,0,1-5.8,3.19c-.38-.39-.08-.71.12-.89A41.42,41.42,0,0,0,143.25,12.7c-.2-.61.79-1.26,0-1.86.84-.26.95-.72.36-1.36a1.14,1.14,0,0,0,.49-1.81c.76-.47.82-1,.19-1.65,1.09-.34.59-1.11.49-1.78a.28.28,0,0,0,.13,0c.67-.27-.55-2.07,1.08-1.47C147.05,3.16,148.34,3.39,148.16,5.25Z"/><path class="cls-1" d="M137.87,180.67v0h0Z"/><path class="cls-1" d="M94.27,194.58c1.75.39,3.51.62,5.17,1.16,5.65,1.84,11,4.24,15.61,8.14a36.74,36.74,0,0,1,7.86,8.41c.3-.14.64-.24.61-.67a2.43,2.43,0,0,1-.66-.46,42.91,42.91,0,0,0-7.28-7.66c-5.87-5-12.68-7.89-20.09-9.58C94.9,193.78,94.43,193.79,94.27,194.58Z"/><path class="cls-1" d="M134.49,194.55l1,.21A2.43,2.43,0,0,1,135,193c-1.13-1-1-2.92-2.46-3.72C133.2,191.07,134.45,192.59,134.49,194.55Z"/><path class="cls-1" d="M74.94,251.91c.36.18.62,0,.88-.24-2-2-3.3-4.4-4.83-6.71a41.14,41.14,0,0,0,2.88,5.31C74.22,250.81,75,251.08,74.94,251.91Z"/><path class="cls-1" d="M144.82,166.34h0v0a.48.48,0,0,0,.18-.68l-.11-.18a4.27,4.27,0,0,1-.08.85Z"/><path class="cls-1" d="M92.67,242.67a16.38,16.38,0,0,0-4.53-7.82C89.65,237.45,91.21,240,92.67,242.67Z"/><path class="cls-1" d="M13,193.09l-.22-.1.15.15Z"/><path class="cls-1" d="M93.65,191.79c.12-.35-.37-.56-.71-1.55-.21-.59-.08-.67-.27-1a1.82,1.82,0,0,0-2.12-.69c-.31.18-.22.41-.86,1.38-.39.59-.5.62-.57.92a1.8,1.8,0,0,0,.34,1.49,2,2,0,0,0,2.12.69c.29-.11.23-.2.81-.55C93.23,192,93.55,192.07,93.65,191.79Z"/><path class="cls-1" d="M162.59,244.53h-3.25V226h3.25Z"/><path class="cls-1" d="M188.44,244.53H184.9L175.37,231v13.49h-3.25V226h3.54l9.53,13.49V226h3.25Z"/><path class="cls-1" d="M206,244.53h-3.25v-15.4h-6.4V226h16.06v3.12H206Z"/><path class="cls-1" d="M223.64,229.13v4.58h8.63v3.12h-8.63v4.58h10v3.12H220.39V226h13.28v3.12Z"/><path class="cls-1" d="M245.26,238.55v6H242V226h9.5a6.29,6.29,0,0,1,6.32,6.25,6.63,6.63,0,0,1-2.35,4.71,5.9,5.9,0,0,1,2.22,4.66v2.77h-3.26v-2.77a3.1,3.1,0,0,0-3.09-3.1Zm0-3.12h6.09a3.14,3.14,0,0,0,0-6.27h-6.09Z"/><path class="cls-1" d="M269.82,244.53h-3.25V226h3.25Z"/><path class="cls-1" d="M278.29,235.27a9.77,9.77,0,1,1,9.76,9.71A9.75,9.75,0,0,1,278.29,235.27Zm3.41,0a6.35,6.35,0,1,0,6.35-6.56A6.48,6.48,0,0,0,281.7,235.27Z"/><path class="cls-1" d="M309.54,238.55v6h-3.25V226h9.5a6.29,6.29,0,0,1,6.32,6.25,6.63,6.63,0,0,1-2.35,4.71,5.9,5.9,0,0,1,2.22,4.66v2.77h-3.26v-2.77a3.1,3.1,0,0,0-3.09-3.1Zm0-3.12h6.09a3.14,3.14,0,0,0,0-6.27h-6.09Z"/><path class="cls-1" d="M334.1,229.13v4.58h8.63v3.12H334.1v4.58h10v3.12H330.85V226h13.28v3.12Z"/><path class="cls-1" d="M368,239.45c0,3.31-3.28,5.45-8.13,5.45-3.33,0-8.49-1.09-8.49-5.32h3.23c0,1.72,4.15,2.14,5.26,2.14,2.28,0,4.74-.76,4.77-2.3,0-1.88-4.53-2.46-5.61-2.67-3.36-.61-7.31-1.32-7.31-5.48,0-3.44,3.29-5.63,8.15-5.63,4.63,0,7.52,2,7.52,5.13h-3.23c0-1.8-3.57-2-4.29-2-2.19,0-4.76.69-4.76,2.46,0,1.22.77,1.62,4.53,2.31C362.89,234.21,368.08,235,368,239.45Z"/></g></g></svg>